<?xml version="1.0" encoding="UTF-8"?>
<!DOCTYPE svg PUBLIC "-//W3C//DTD SVG 1.1//EN" "http://www.w3.org/Graphics/SVG/1.1/DTD/svg11.dtd">
<!-- Creator: CorelDRAW X6 -->
<svg xmlns="http://www.w3.org/2000/svg" xml:space="preserve" width="50.8mm" height="21.1666mm" version="1.1" style="shape-rendering:geometricPrecision; text-rendering:geometricPrecision; image-rendering:optimizeQuality; fill-rule:evenodd; clip-rule:evenodd"
viewBox="0 0 5080 2117"
 xmlns:xlink="http://www.w3.org/1999/xlink">
 <defs>
  <style type="text/css">
   <![CDATA[
    .str0 {stroke:#4D6631;stroke-width:7.62}
    .fil0 {fill:#4D6631}
   ]]>
  </style>
 </defs>
 <g id="Capa_x0020_1">
  <metadata id="CorelCorpID_0Corel-Layer"/>
  <g id="_403803968">
   <path class="fil0 str0" d="M1334 660c208,0 376,170 376,380 0,210 -168,380 -376,380 -208,0 -376,-170 -376,-380 0,-210 168,-380 376,-380zm-268 382l0 0c-6,16 3,35 19,40l126 44c16,6 35,-3 40,-19l0 0c6,-16 -3,-35 -19,-40l-126 -44c-16,-6 -35,3 -40,19zm262 -248l0 0c18,0 32,14 32,32l0 219c0,18 -14,32 -32,32l0 0c-18,0 -32,-14 -32,-32l0 -219c0,-18 14,-32 32,-32zm271 249l0 0c6,16 -3,35 -19,40l-126 44c-16,6 -35,-3 -40,-19l0 0c-6,-16 3,-35 19,-40l126 -44c16,-6 35,3 40,19zm-214 138l0 0c11,-12 29,-12 41,-1l65 60c12,11 12,29 1,41l0 0c-11,12 -29,12 -41,1l-65 -60c-12,-11 -12,-29 -1,-41zm-115 0l0 0c-11,-12 -29,-12 -41,-1l-65 60c-12,11 -12,29 -1,41l0 0c11,12 29,12 41,1l65 -60c12,-11 12,-29 1,-41z"/>
   <path class="fil0 str0" d="M3472 861c110,0 198,89 198,198 0,110 -89,198 -198,198 -110,0 -198,-89 -198,-198 0,-110 89,-198 198,-198zm0 65c74,0 133,60 133,133 0,74 -60,133 -133,133 -74,0 -133,-60 -133,-133 0,-74 60,-133 133,-133z"/>
   <rect class="fil0 str0" x="2974" y="848" width="69.0312" height="442.031" rx="35" ry="57"/>
   <path class="fil0 str0" d="M2635 876c50,0 96,19 131,49l0 -43c0,-19 16,-35 35,-35l0 0c19,0 35,16 35,35l0 373c0,19 -16,35 -35,35l0 0c-19,0 -35,-16 -35,-35l0 -32c-35,31 -81,49 -131,49 -109,0 -198,-89 -198,-198 0,-109 89,-198 198,-198zm131 223l0 -49c-12,-62 -66,-109 -131,-109 -74,0 -133,60 -133,133 0,74 60,133 133,133 65,0 120,-47 131,-109z"/>
   <path class="fil0 str0" d="M2142 861c74,0 139,41 173,101l-221 148c-14,9 -32,5 -41,-9l0 0c-9,-14 -5,-32 9,-41l162 -107c-23,-17 -51,-28 -81,-28 -74,0 -133,60 -133,133 0,74 74,133 133,133 59,0 98,-7 140,-92 18,-38 59,-3 55,17 -17,88 -100,140 -195,140 -109,0 -198,-89 -198,-198 0,-110 89,-198 198,-198z"/>
   <path class="fil0 str0" d="M4178 878l0 0c-18,-6 -38,3 -44,21l-82 233 -28 -88c-4,-14 -20,-22 -34,-18l0 0c-14,4 -22,20 -18,34l50 161c15,49 55,47 67,13l110 -312c6,-18 -3,-38 -21,-44z"/>
   <path class="fil0 str0" d="M3753 878l0 0c18,-6 38,3 44,21l82 233 60 -195c4,-14 20,-22 34,-18l0 0c14,4 22,20 18,34 -28,89 -60,177 -83,267 -13,51 -56,45 -67,13l-110 -312c-6,-18 3,-38 21,-44z"/>
   <path class="fil0 str0" d="M2819 1378c-31,69 -105,118 -181,118 -77,0 -147,-34 -170,-97 -17,-45 41,-54 58,-31 26,36 64,62 113,62 49,0 96,-29 118,-71 23,-48 85,-31 63,18z"/>
   <path class="fil0 str0" d="M3207 855c42,8 26,65 5,56 -49,-22 -76,4 -105,37 -20,22 -52,-25 -37,-44 43,-50 73,-62 137,-49z"/>
  </g>
 </g>
</svg>
