<?xml version="1.0" encoding="UTF-8"?>
<!DOCTYPE svg PUBLIC "-//W3C//DTD SVG 1.1//EN" "http://www.w3.org/Graphics/SVG/1.1/DTD/svg11.dtd">
<!-- Creator: CorelDRAW X6 -->
<svg xmlns="http://www.w3.org/2000/svg" xml:space="preserve" width="33.8666mm" height="33.8666mm" version="1.1" style="shape-rendering:geometricPrecision; text-rendering:geometricPrecision; image-rendering:optimizeQuality; fill-rule:evenodd; clip-rule:evenodd"
viewBox="0 0 3387 3387"
 xmlns:xlink="http://www.w3.org/1999/xlink">
 <defs>
  <style type="text/css">
   <![CDATA[
    .str0 {stroke:#D8E5DC;stroke-width:7.62}
    .fil4 {fill:#898989}
    .fil1 {fill:#6F7B49}
    .fil3 {fill:#ABC49D}
    .fil0 {fill:#C9DCBE}
    .fil2 {fill:#D8E5DC}
   ]]>
  </style>
 </defs>
 <g id="Capa_x0020_1">
  <metadata id="CorelCorpID_0Corel-Layer"/>
  <path class="fil0" d="M896 1302c-90,48 -104,28 -213,36 -37,148 -37,695 -44,889 -5,152 -4,303 -11,455 -9,188 -50,206 -161,301l0 128 134 85c306,-120 -73,-126 612,-20 325,50 707,52 1033,4 142,-21 358,-79 487,-77 123,47 23,144 283,10l1 -130c-99,-83 -151,-111 -161,-273 -19,-307 -4,-1169 -56,-1372 -372,-28 -1527,51 -1774,-26 -64,-43 -46,50 -50,-40 -11,4 -79,28 -81,29z"/>
  <path class="fil1" d="M1027 1313c246,77 1402,-2 1774,26 51,203 37,1065 56,1372 10,162 62,189 161,273l-1 130c-259,134 -160,36 -283,-10 -129,-2 -345,56 -487,77 -325,48 -708,46 -1033,-4 -685,-106 -306,-100 -612,20l-134 -85 0 -128c111,-95 152,-113 161,-301 7,-152 5,-303 11,-455 7,-194 7,-741 44,-889 109,-8 122,12 213,-36 -57,-153 -80,-59 -261,-86 -136,-20 -48,-12 -84,-39 -65,-69 -35,-354 -14,-435 163,-34 2248,-34 2410,0 28,110 73,430 -73,469l-1444 6c-309,0 -394,-43 -403,95zm633 -1299c4,10 8,20 13,30 -92,2 -201,41 -266,76 -84,46 -123,116 -197,165 -91,-2 -145,-37 -258,-17 -151,26 -412,179 -429,360 -43,17 -79,49 -102,107 -46,114 -105,522 132,585 0,165 -25,213 -29,339l-27 1106c-11,37 -271,224 -103,443 123,160 293,92 415,10 315,151 1555,151 1870,0 283,189 452,18 471,-150 15,-134 -104,-221 -159,-303l-27 -1078c-2,-143 -29,-194 -29,-367 248,-66 218,-620 13,-704 -3,-6 -6,-13 -10,-23 -11,-25 -36,-72 -51,-92 -19,-25 -126,-131 -153,-149 -38,-26 -149,-69 -201,-81 -117,-27 -180,11 -275,13 -55,-16 -106,-159 -341,-222 -36,-10 -100,-9 -137,-32 -38,18 -85,13 -117,-18zm-1036 596c160,-346 534,-227 631,-224 253,-347 704,-347 957,0 98,-3 473,-121 631,226l-61 0c-16,6 -33,9 -51,9l-83 0c-20,0 -40,-4 -57,-12l2 3 -1663 0c-12,6 -25,9 -37,13 -45,18 -104,13 -145,-13 -39,0 -82,-3 -124,-2z"/>
  <path class="fil2 str0" d="M2153 486c-45,49 -1,35 -64,29 -2,-5 -62,-8 13,-81 71,29 30,5 51,52zm-1144 -46c20,35 25,33 3,73 -68,14 -112,-47 -3,-73zm920 -115c34,-20 35,-24 73,-3 15,68 -47,112 -73,3zm-1320 322l2249 0c-149,-390 -545,-265 -646,-262 -253,-347 -704,-347 -957,0 -100,-3 -497,-130 -646,262z"/>
  <path class="fil3" d="M896 1302c2,-1 70,-25 81,-29 4,90 -13,-3 50,40 9,-138 94,-95 403,-95l1444 -6c146,-40 100,-359 73,-469 -163,-34 -2248,-34 -2410,0 -20,81 -50,366 14,435 36,27 -52,19 84,39 181,27 204,-67 261,86z"/>
  <path class="fil4" d="M2089 515c63,6 19,20 64,-29 -21,-47 20,-22 -51,-52 -75,73 -16,76 -13,81z"/>
  <path class="fil4" d="M1012 513c21,-40 17,-38 -3,-73 -108,26 -64,87 3,73z"/>
  <path class="fil4" d="M1928 325c26,108 87,64 73,-3 -38,-20 -38,-16 -73,3z"/>
  <path class="fil1" d="M1658 2326l-85 -129c-79,-106 -223,-256 -344,-304 -8,4 -8,-8 -4,10 6,80 75,224 106,286 26,51 103,158 143,200 9,10 15,12 24,23l13 13c-12,-5 -4,-3 -13,-6 -119,-55 -179,-61 -323,-68l-18 14c71,98 213,182 380,208 -63,30 -122,21 -237,125 74,12 178,10 247,-12 134,-41 149,-73 193,-91 22,32 136,76 183,90 78,23 164,22 248,14 -16,-24 -74,-59 -107,-76 -50,-27 -82,-29 -131,-50 143,-27 256,-75 352,-176 15,-16 29,-21 30,-43 -63,-8 -132,-3 -190,11 -58,14 -102,37 -155,52 9,-17 93,-93 170,-233 32,-57 105,-221 110,-297 -43,18 -100,61 -136,88 -45,34 -83,68 -120,106 -112,114 -118,149 -187,264 10,-144 40,-187 18,-379 -10,-84 -49,-268 -91,-317 -70,168 -99,305 -92,494 2,55 21,139 18,183z"/>
 </g>
</svg>
