<?xml version="1.0" encoding="UTF-8"?>
<!DOCTYPE svg PUBLIC "-//W3C//DTD SVG 1.1//EN" "http://www.w3.org/Graphics/SVG/1.1/DTD/svg11.dtd">
<!-- Creator: CorelDRAW X6 -->
<svg xmlns="http://www.w3.org/2000/svg" xml:space="preserve" width="297mm" height="210mm" version="1.1" style="shape-rendering:geometricPrecision; text-rendering:geometricPrecision; image-rendering:optimizeQuality; fill-rule:evenodd; clip-rule:evenodd"
viewBox="0 0 29700 21000"
 xmlns:xlink="http://www.w3.org/1999/xlink">
 <defs>
  <style type="text/css">
   <![CDATA[
    .fil1 {fill:#533628}
    .fil0 {fill:#7B8C30}
    .fil2 {fill:#A8B958}
   ]]>
  </style>
 </defs>
 <g id="Capa_x0020_1">
  <metadata id="CorelCorpID_0Corel-Layer"/>
  <path class="fil0" d="M13393 12526l-218 -2 -9 -1724c1190,-82 1321,55 2363,764 217,148 562,289 272,579 -249,136 -1039,-601 -1324,-684l-129 193c156,76 301,181 457,287 303,205 708,524 998,451 242,-61 262,-225 372,-403 158,-116 753,-339 962,-431 276,-121 802,-468 1012,-183 -704,498 -1397,1021 -2114,1522 -729,509 -486,446 -1891,-183 -344,-154 -315,-187 -754,-187zm2688 -1127c-91,-295 164,-222 180,-213 117,149 59,299 -180,213zm759 -604c70,-13 44,-30 119,-14 71,14 55,22 89,46 133,297 -336,306 -208,-31zm-1451 80c-343,-291 -47,-623 224,-518 235,91 294,566 -224,518zm-1997 1892c441,-11 1064,352 1455,527 739,330 837,169 1364,-224l2263 -1612c-141,-576 -648,-435 -908,-375 -46,-270 -159,-185 -318,-345 -313,-314 -347,-611 -756,-489 -218,65 -179,153 -308,293l-244 -44c-61,-559 -734,-560 -850,-91 -401,-50 -360,27 -474,288 -386,-253 -2359,-128 -2950,-117l0 2499 1490 6 10 -310 226 -4z"/>
  <path class="fil1" d="M17003 7820c-122,952 -259,602 -762,1130 -153,160 -286,353 -327,642 -52,359 -48,631 322,621 253,-102 16,-493 108,-808 164,-556 917,-627 730,-1557 -30,-174 -52,-288 -160,-387 6,145 15,244 89,358z"/>
  <path class="fil2" d="M15743 8701l-239 -103c-208,-75 -549,-154 -764,-108 -7,13 -19,-3 3,18 82,107 312,246 414,304 83,47 291,127 385,148 22,5 32,3 55,11l29 6c-21,5 -8,0 -24,3 -218,33 -307,80 -516,203l-13 36c190,72 468,59 726,-59 -61,101 -152,143 -218,395 116,-52 259,-151 337,-245 150,-182 141,-240 187,-306 61,25 262,-19 340,-43 130,-39 250,-120 361,-210 -44,-19 -158,-14 -220,-8 -96,9 -142,35 -231,52 176,-171 291,-342 332,-572 7,-37 21,-57 2,-87 -96,47 -188,117 -256,191 -68,74 -110,147 -169,217 -3,-32 44,-217 24,-485 -8,-110 -57,-406 -121,-519 -44,66 -85,178 -110,249 -32,90 -54,172 -71,260 -51,263 -28,318 -19,544 -118,-211 -116,-299 -326,-549 -92,-109 -316,-331 -421,-360 57,301 143,520 328,779 53,75 157,176 195,240z"/>
  <path class="fil2" d="M17243 8389l70 -204c49,-177 92,-464 41,-639 -11,-5 1,-16 -14,3 -83,74 -183,274 -225,362 -34,72 -86,249 -98,328 -3,19 -1,27 -5,46l-3 25c-5,-17 -1,-7 -4,-19 -41,-178 -85,-249 -201,-414l-31 -9c-47,162 -19,391 95,597 -87,-44 -128,-117 -341,-155 50,92 141,204 224,263 160,112 208,101 265,135 -17,52 33,215 57,279 41,105 116,199 197,285 13,-38 1,-132 -7,-183 -13,-79 -38,-115 -57,-187 153,135 302,219 495,238 31,3 48,14 72,-4 -45,-76 -109,-148 -175,-200 -66,-52 -128,-81 -190,-126 26,-5 182,23 402,-12 90,-14 332,-73 421,-133 -57,-32 -153,-59 -213,-75 -76,-21 -145,-34 -220,-42 -221,-25 -265,-3 -451,19 167,-111 240,-115 433,-305 85,-83 254,-283 271,-371 -245,67 -421,152 -624,321 -58,49 -135,141 -186,176z"/>
  <path class="fil2" d="M16559 6953l-188 -142c-166,-112 -450,-255 -648,-262 -9,10 -16,-7 -1,16 49,111 221,284 297,357 62,60 229,175 306,214 18,9 28,10 46,21l24 12c-20,-1 -7,-2 -21,-2 -199,-18 -287,3 -498,66l-20 29c151,104 398,154 651,106 -75,75 -165,92 -277,300 113,-21 260,-76 349,-142 171,-127 176,-180 231,-228 48,35 234,40 308,37 123,-6 246,-51 363,-106 -35,-26 -136,-47 -192,-55 -86,-13 -132,-1 -214,-5 192,-112 330,-237 416,-431 14,-31 31,-45 21,-76 -95,21 -191,62 -267,112 -76,50 -128,105 -196,154 4,-29 86,-181 126,-421 16,-98 38,-370 7,-482 -53,48 -114,138 -151,195 -47,72 -85,139 -119,213 -102,220 -94,273 -135,474 -58,-211 -37,-288 -167,-553 -57,-116 -206,-360 -292,-409 -15,277 12,488 118,756 30,77 100,188 119,253z"/>
 </g>
</svg>
