<?xml version="1.0" encoding="UTF-8"?>
<!DOCTYPE svg PUBLIC "-//W3C//DTD SVG 1.1//EN" "http://www.w3.org/Graphics/SVG/1.1/DTD/svg11.dtd">
<!-- Creator: CorelDRAW X6 -->
<svg xmlns="http://www.w3.org/2000/svg" xml:space="preserve" width="297mm" height="210mm" version="1.1" style="shape-rendering:geometricPrecision; text-rendering:geometricPrecision; image-rendering:optimizeQuality; fill-rule:evenodd; clip-rule:evenodd"
viewBox="0 0 29700 21000"
 xmlns:xlink="http://www.w3.org/1999/xlink">
 <defs>
  <style type="text/css">
   <![CDATA[
    .str0 {stroke:#75632D;stroke-width:7.62}
    .fil2 {fill:#FEFEFE}
    .fil0 {fill:#75632D}
    .fil1 {fill:#CBDCC4}
   ]]>
  </style>
 </defs>
 <g id="Capa_x0020_1">
  <metadata id="CorelCorpID_0Corel-Layer"/>
  <path class="fil0 str0" d="M16592 6597l-83 83 56 141c688,394 504,1503 230,2188l-84 140c-26,-44 -43,-6 -32,-129 3,-38 40,-132 53,-176 8,-173 27,-60 -82,-100 -229,670 -639,908 -1221,1260 -59,184 -107,273 -236,346 -62,140 -195,248 -392,272l201 -169 -35 -75c-2,-21 -15,-29 -27,-39 73,-95 -103,-57 124,-84 88,-38 131,-42 183,-99 37,-41 23,10 49,-89 25,-97 46,-27 -28,-69l-344 125c-135,222 -329,522 -579,581l238 -274c-56,-18 -72,-9 -129,-28 -94,-31 -54,-19 -99,-40l291 -109c63,-136 64,-27 26,-182l-306 -44c-120,163 -155,284 -421,305 140,-161 127,-51 321,-362l-299 -66c7,-12 16,-28 22,-40l-50 -144c-65,-87 -46,-147 -59,-181 -2,-6 -10,-18 -13,-23l-71 -109c-90,89 132,63 -170,85 -189,30 -314,148 -562,177 -259,30 -512,-1 -764,8l-215 -38c-69,84 -137,-127 -28,136 101,223 305,392 449,510 59,-127 -48,-33 133,-78 32,-8 93,-10 129,-11 74,-2 174,-24 200,44 336,196 228,398 609,522 159,-4 273,-48 359,48l155 50c266,69 276,143 491,225 227,87 276,92 513,204l663 -8c22,86 50,130 30,234 -36,193 -70,118 -123,154l124 7c211,25 167,-115 521,-108 86,16 134,24 214,49 207,63 80,9 184,88 254,-74 647,-323 706,-515 -397,-19 -656,-9 -891,-223 -70,-71 -87,111 -61,-160 260,-33 20,-15 126,50 406,-19 389,12 714,-134 295,-132 407,-144 780,-123 -183,-144 -201,-117 -489,-67l302 -54c81,-6 154,-17 239,-15l-478 -123c-73,-135 -13,-70 4,-337 183,42 363,106 536,22 -63,-51 -121,-86 -187,-148 178,-111 189,44 229,-203l25 -354c194,-56 195,-69 208,-306l194 -61c0,-404 -48,-668 112,-823l-114 -1954c-52,-125 -294,-241 -354,-467l-246 -10 -7 -510c-10,10 -23,25 -30,30l-61 50c-191,145 170,-74 -63,32 -79,-187 -180,10 -203,-234l-140 262c-34,78 -71,151 -102,204 -75,129 -186,270 -280,388 -117,146 -174,230 -305,362 -124,125 -213,187 -279,316z"/>
  <path class="fil0 str0" d="M17071 2932c20,89 408,636 507,882 250,626 53,808 120,1251 23,244 123,47 203,234 233,-107 -128,113 63,-32l61 -50c7,-6 20,-20 30,-30l7 510 246 10c60,226 302,342 354,467l114 1954c-160,155 -112,419 -112,823l-194 61c-13,237 -14,250 -208,306l-25 354c-39,248 -50,92 -229,203 66,62 124,97 187,148 -173,83 -353,19 -536,-22 -16,268 -77,203 -4,337l478 123c-86,-2 -158,9 -239,15l-302 54c288,-49 306,-77 489,67 370,115 482,193 733,387l131 22c124,-242 406,-567 596,-924 1025,-1920 745,-4329 -665,-5920 -359,-405 -1068,-1097 -1787,-1341 -79,47 -132,-74 -18,109z"/>
  <path class="fil0 str0" d="M10759 4318l50 223c390,387 847,872 1743,682 -5,-110 -551,-85 -663,-82l356 -70c-118,-63 -200,16 -361,-84 238,10 476,51 636,-76 146,-115 176,-292 289,-376 182,-135 450,-26 326,-188 -3,-4 -18,-18 -27,-27 533,-44 410,-220 414,-252l259 -2c-35,-133 18,-58 -98,-106 62,-75 13,-4 72,-72 67,-76 41,-17 82,-123 280,70 1632,5 2143,5l18 444c-1,-10 6,-36 9,-30l61 -100c5,-8 17,-24 25,-36l20 92c43,98 -41,-17 58,91 374,-457 673,-715 573,-1544 -858,-482 -2545,-419 -3511,-96 -1127,376 -1932,1015 -2476,1728z"/>
  <path class="fil0 str0" d="M9895 9243c10,341 391,965 555,1239 616,1028 1807,1882 3066,2228 3170,870 5128,-1455 5259,-1497l-10 -106c-1131,328 -2097,1471 -3581,890l-129 -54c-48,-231 -22,-3 69,-87 297,37 616,126 882,34 -251,-5 -242,37 -496,-39 213,-83 147,-30 278,-175l-124 -7c53,-36 87,38 123,-154 20,-104 -8,-148 -30,-234l-663 8c95,63 15,8 69,93l370 -13 172 50c-3,232 22,54 -89,123 -1064,491 -2562,-154 -3293,-620 -468,-298 -780,-616 -1182,-924 -340,-260 -935,-734 -1218,-822l-26 68z"/>
  <path class="fil0 str0" d="M12865 7276l-151 286 85 852c77,331 8,31 175,366 254,-69 547,29 437,273l268 -46c-157,119 -35,0 -156,202 -228,-18 -157,-77 -399,-24 110,101 379,73 602,83 -34,117 -52,131 -101,222 302,-22 80,5 170,-85l71 109c3,5 11,18 13,23 14,34 -6,94 59,181l143 -109 79 107c-24,-110 -54,-90 47,-90l73 -18 169 2c28,-87 34,-13 -40,-128l145 20 106 25c135,-18 223,-48 302,-78 183,112 199,193 334,308 341,-12 790,-483 939,-718 97,-153 204,-396 237,-579 63,-352 -43,-433 -45,-704 -148,-94 -60,-27 -160,-165 -44,-60 -65,-85 -108,-129 -220,-65 -102,29 -193,-174l212 105c142,62 198,140 298,271 252,274 286,613 172,1079 109,40 90,-73 82,100l46 0c176,-1019 -71,-1800 -1189,-1665 -947,114 -1665,346 -2725,97z"/>
  <path class="fil0 str0" d="M12551 5223c420,-35 777,19 1089,165 148,69 241,134 371,246 121,104 195,232 341,299 113,31 76,-25 149,35l257 138c107,-48 55,65 83,-166 80,82 78,19 103,170 -18,-401 -8,-116 107,-224l105 422c-1,-317 -42,-685 421,-647 392,33 419,408 267,744 78,66 75,68 158,111l10 17 131 -148c246,-139 638,-594 818,-890 332,-548 248,-773 215,-1415l-45 4 -96 904c-26,71 1,37 -50,127 -43,77 -34,42 -81,88 -61,241 -353,604 -553,721 -78,-53 -41,17 -130,-135 -22,-38 -57,-118 -80,-176 -238,-580 -168,-881 32,-1382 -99,-108 -15,8 -58,-91l-20 -92c-9,12 -20,28 -25,36l-61 100c-3,-7 -10,20 -9,30l-18 -444c-511,0 -1864,65 -2143,-5 -41,106 -15,46 -82,123 -60,68 -10,-3 -72,72 116,48 62,-27 98,106l-259 2c-4,33 120,209 -414,252 9,9 23,23 27,27 124,162 -144,53 -326,188 -113,84 -144,261 -289,376 -161,127 -398,86 -636,76 160,100 243,22 361,84l-356 70c111,-3 658,-28 663,82z"/>
  <path class="fil0 str0" d="M9711 8744l126 49c253,-89 434,-200 724,-278 356,-96 584,-45 911,-99l217 -3c-13,5 -29,-17 -37,-5l-200 -6c12,-10 29,-42 36,-31 6,11 27,-23 35,-27 10,-6 101,-49 102,-49l-186 -4c11,-12 32,-44 36,-33 4,17 79,-39 -17,-131l0 -720c11,-8 28,-36 33,-26l115 -77c5,-489 194,-262 14,-503l-68 -267c5,-6 28,-36 40,-49 -36,-136 -167,-270 -267,-430 -81,-130 -159,-277 -231,-435 -112,-242 -304,-714 -325,-1009 -7,-7 -66,-66 -83,-82 -7,-6 -29,-9 -34,-29 -6,-21 -24,-20 -36,-30 -166,305 -324,493 -506,858 -135,272 -278,676 -353,988 -230,954 -148,1467 -46,2426z"/>
  <path class="fil0 str0" d="M11472 8417l223 99c683,207 889,701 1428,670 242,-53 171,5 399,24 121,-203 -1,-84 156,-202l-268 46c110,-244 -184,-342 -437,-273 -167,-334 -98,-35 -175,-366l-85 -852 151 -286c-516,-181 -725,-295 -1111,-665l-162 -125c-11,13 -35,44 -40,49l68 267c180,241 -9,14 -14,503l-115 77c-5,-10 -22,17 -33,26l0 720c96,92 21,147 17,131 -3,-12 -24,21 -36,33l186 4c-1,0 -91,43 -102,49 -8,5 -29,38 -35,27 -6,-12 -24,21 -36,31l200 6c7,-12 24,10 37,5l-217 3z"/>
  <path class="fil0 str0" d="M4983 15444l766 1630c67,57 27,17 136,62 95,-282 668,-1353 850,-1608l2 1538c61,98 -87,74 153,69 243,-5 84,-17 149,-63l7 -2100c-39,-84 86,-87 -112,-52 -258,459 -700,1496 -997,1837l-864 -1841 -253 -11c60,317 59,1899 5,2227 107,-130 70,-77 65,-417l11 -1385c137,79 23,-2 82,115z"/>
  <path class="fil0 str0" d="M1143 17075c396,152 1010,211 1297,-134 125,-150 176,-427 83,-638 -163,-371 -724,-475 -951,-695 -162,-157 -175,-423 -18,-581 483,-488 899,431 899,431l-13 -416c-400,-323 -977,-222 -1187,143 -323,565 239,781 540,968 603,374 548,772 230,934 -478,244 -703,-202 -828,-540 -42,-114 -27,-74 -93,-136l40 661z"/>
  <path class="fil0 str0" d="M14352 5934c88,254 259,354 312,650 -361,74 -566,129 -986,118 -402,-10 -654,-144 -948,-173 -81,57 -101,-45 -30,117 173,272 1151,328 1565,273 644,-85 973,-270 1675,-296l62 -105c-82,-43 -79,-45 -158,-111 -231,88 -306,152 -540,-4l-148 -93 -105 -422c-115,108 -125,-177 -107,224 -25,-151 -23,-88 -103,-170 -28,231 24,118 -83,166l-257 -138c-72,-60 -36,-4 -149,-35z"/>
  <path class="fil0 str0" d="M14012 15267c47,179 552,805 682,995 165,243 518,777 719,949l-2 -2244c-18,-37 -87,-183 -83,1l-21 1638 -1218 -1640 -226 -13c30,157 86,347 115,286 5,-10 24,18 34,28z"/>
  <path class="fil0 str0" d="M9998 16045l0 45c482,29 393,229 586,678 55,127 179,312 302,374 106,54 428,107 498,-20l0 -41c-401,-27 -394,-144 -495,-451 -123,-375 -125,-352 -349,-588 628,-290 507,-1022 -157,-1142 -247,22 -109,-10 -153,72 263,63 435,291 378,663 -55,354 -251,372 -610,409z"/>
  <path class="fil0 str0" d="M16998 17056c0,90 -18,55 93,69 1078,-79 1328,-2074 -102,-2217l-259 56c1019,8 1242,1947 268,2092z"/>
  <path class="fil0 str0" d="M25758 17068l131 56c520,-45 902,-552 899,-1132 -3,-582 -399,-1040 -948,-1064 -5,0 -125,-3 -132,-2 -97,14 -65,21 -113,51 1114,170 1059,2049 163,2092z"/>
  <path class="fil0 str0" d="M22930 16000l-99 150c-76,186 -89,366 -227,513l-574 -1610 -99 -112c-4,-19 -18,-21 -27,-31 -314,6 -211,-11 -252,67l869 2193c122,-155 407,-951 409,-1171z"/>
  <path class="fil0 str0" d="M8125 15951l0 23c361,30 615,88 700,399 101,367 -62,652 -397,693l128 61c346,-36 589,-173 607,-567 21,-456 -192,-515 -551,-644 486,-212 538,-918 -104,-1011l-216 61c284,50 430,248 358,616 -53,274 -254,327 -527,368z"/>
  <path class="fil0 str0" d="M27579 15636l33 -1 131 -245 272 729c81,106 48,43 97,164l31 126 204 670c131,71 238,83 326,-15l-805 -2187c-117,134 -283,533 -289,761z"/>
  <path class="fil0 str0" d="M12361 15323l20 101c134,97 243,584 313,766 121,0 100,125 109,214l130 527c56,53 101,140 127,188l206 9c86,-79 33,51 29,-84 -31,-267 -274,-856 -371,-1118 -121,-327 -246,-882 -427,-1065l-137 462z"/>
  <path class="fil0 str0" d="M24836 17068c60,93 -82,74 153,65 216,-8 94,-28 139,-64l-1 -2103c-32,-23 65,-55 -138,-59 -239,-5 -100,-14 -151,65l-2 2095z"/>
  <path class="fil0 str0" d="M3003 17074c41,57 17,51 135,51 262,-1 58,18 148,-50l-5 -1049 2 -65 5 -990c-84,-77 110,-62 -151,-67 -165,-3 -113,19 -140,67l5 2104z"/>
  <path class="fil0 str0" d="M7711 17133l271 -2c-65,-288 -66,-1936 2,-2225l-287 9 14 2219z"/>
  <path class="fil0 str0" d="M24215 17078c-6,-11 -17,-38 -18,-32l-25 -1001c0,-358 -23,-791 16,-1139l-292 0c68,300 64,1910 5,2228l315 -57z"/>
  <path class="fil0 str0" d="M9571 17080c138,79 138,49 312,51 -56,-318 -58,-1928 8,-2231l-300 7c19,133 70,1980 -21,2173z"/>
  <path class="fil0 str0" d="M16341 17085c-5,-11 -15,-40 -16,-34l-23 -1005c0,-375 -29,-765 19,-1136l-290 3c70,272 70,1942 4,2216l307 -44z"/>
  <path class="fil0 str0" d="M16341 17085l-307 44c66,-274 66,-1944 -4,-2216l290 -3c-48,371 -19,761 -19,1136l23 1005c1,-6 11,22 16,34zm750 40c-110,-14 -93,21 -93,-69l-657 29 15 -2120 374 -1 259 -56c-159,-74 -1040,-97 -1183,6 79,49 -8,-3 90,44 26,12 69,51 76,37 7,-12 27,14 43,21l0 2005 -161 83c-7,-11 -26,14 -39,20 151,80 1072,111 1276,0z"/>
  <path class="fil0 str0" d="M7697 14914l287 -9c-67,289 -67,1937 -2,2225l-271 2 -14 -2219zm860 2213l-128 -61 -421 10 -18 -828c13,-422 -14,-177 136,-275l0 -23c-186,-108 -91,166 -138,-211 -1,-8 9,-227 10,-261 2,-175 0,-337 10,-512l287 -1 216 -61c-187,-83 -853,-120 -1045,30l197 82 -2 1954c-86,216 38,0 -193,154 123,85 809,82 1013,40l77 -37z"/>
  <path class="fil0 str0" d="M9571 17080c90,-193 40,-2040 21,-2173l300 -7c-66,303 -64,1913 -8,2231 -174,-2 -174,28 -312,-51zm0 0c-201,-7 -91,-38 -200,45 137,99 601,107 738,0 -117,-82 -145,-33 -163,-83 -6,-18 -27,-13 -40,-20l-9 -774c22,-138 -82,-159 101,-158l0 -45c-114,-79 -108,118 -94,-102l8 -971 319 1c44,-82 -93,-50 153,-72l-303 -49c-368,-1 -563,-50 -725,87l203 79 13 2063z"/>
  <path class="fil0 str0" d="M4983 15444c-58,-117 56,-36 -82,-115l-11 1385c5,340 42,286 -65,417 54,-328 55,-1910 -5,-2227l253 11c-39,-23 -39,-40 -134,-59 -129,-26 -231,1 -327,59l76 43c9,5 30,16 38,21l81 2063 -199 85 277 64c89,-1 164,-11 251,-21 -48,-101 0,-35 -93,-95l-99 -50c0,-223 -37,-1503 39,-1579z"/>
  <path class="fil0 str0" d="M24215 17078l-315 57c59,-318 62,-1928 -5,-2228l292 0c-39,348 -16,780 -16,1139l25 1001c1,-6 13,21 18,32zm0 0l16 -2061c9,-7 24,-14 30,-17l95 -48c88,-60 16,19 64,-77 -212,-29 -593,-76 -751,59l211 83 -4 2005 -200 103c160,86 583,122 738,-25l-199 -22z"/>
  <path class="fil0 str0" d="M13818 17068c-15,162 -38,90 67,62 253,-69 -58,183 67,-53l-15 -1391c-5,-411 -28,-348 75,-418 -11,-10 -30,-38 -34,-28 -29,61 -86,-129 -115,-286l226 13c-107,-127 -256,-154 -444,-51l186 103 -13 2051z"/>
  <path class="fil0 str0" d="M26961 17029c-33,261 69,151 132,40l261 -682 789 21 -31 -126c-49,-121 -15,-58 -97,-164l36 191 -664 -1 225 -673 -33 1c-73,61 -49,-11 -124,159 -120,270 -325,1019 -493,1234z"/>
  <path class="fil0 str0" d="M11630 17065l34 88c20,-15 38,-48 43,-37 4,10 26,-24 31,-30 187,-194 -37,29 60,-65 31,-209 116,-462 235,-636l771 19c-10,-88 12,-214 -109,-214 -32,143 56,76 -96,120l-545 -23 328 -863 -20 -101 -731 1742z"/>
  <path class="fil0 str0" d="M24508 18831l1 -610 397 51c145,369 14,538 -397,558zm-71 74c356,48 644,-20 629,-391 -14,-351 -274,-396 -633,-389l4 780z"/>
  <path class="fil0 str0" d="M17867 18565c-49,-426 570,-478 611,-105 50,452 -569,473 -611,105zm-67 -222c-44,344 41,596 399,578 340,-17 387,-250 352,-571 -258,-300 -492,-315 -751,-7z"/>
  <path class="fil0 str0" d="M4943 18370c274,-139 350,-293 618,-9l-12 319 -131 136c-380,46 -422,-127 -474,-446zm0 0c-6,5 -83,-94 -70,190 2,45 55,187 68,207 216,333 836,101 708,-357 -208,-402 -705,-346 -706,-41z"/>
  <path class="fil0 str0" d="M13624 18201l264 48c52,235 -3,271 -273,286l9 -334zm282 415c0,0 383,-580 -349,-480 -50,196 -72,630 43,770l20 -287c363,43 151,189 470,298 -64,-131 -97,-216 -184,-301z"/>
  <path class="fil0 str0" d="M3287 17075c-90,68 113,49 -148,50 -118,0 -94,6 -135,-51 -179,11 -112,-14 -217,51 172,109 1511,47 1603,14 48,-140 64,-120 -18,-264 -185,85 -81,313 -135,171 -3,-8 -12,25 -20,38l-931 -7z"/>
  <path class="fil0 str0" d="M10645 18908c31,-38 51,14 61,-184 3,-60 -8,-162 -11,-225l448 20c-7,202 -45,264 63,395 49,-243 59,-558 -34,-797l-31 293 -429 11 -56 -295c-66,149 -82,598 -10,783z"/>
  <path class="fil0 str0" d="M19488 18262c193,-118 178,39 387,-128 -253,-30 -350,-45 -494,122 -27,321 136,260 428,347l-43 187c-181,65 -192,35 -404,17 114,127 -111,31 137,106 151,46 385,-27 402,-194 -97,-432 -503,-117 -414,-457z"/>
  <path class="fil0 str0" d="M6555 18307c90,-160 241,-102 407,-76 -188,-237 -436,-88 -482,24 -33,339 165,266 409,345 56,305 -217,230 -430,198 0,0 14,171 321,115 147,-27 130,-54 200,-144 26,-502 -329,-107 -424,-463z"/>
  <path class="fil0 str0" d="M2999 14971c27,-48 -25,-70 140,-67 261,5 67,-10 151,67l826 -3c10,10 24,23 29,29 5,6 22,22 27,29l43 56c3,-7 12,18 17,27l-6 -143c57,-88 -51,-27 93,-39 -74,-75 61,-38 -149,-68l-1032 -1c-53,0 -158,-5 -208,1 -188,22 -88,16 -148,56l217 56z"/>
  <path class="fil0 str0" d="M22009 18256c-112,-180 -10,-36 -126,-129 35,253 201,592 330,758 144,-171 273,-489 331,-748 -100,75 -65,-5 -189,264 -54,117 -74,177 -142,272l-204 -416z"/>
  <path class="fil0 str0" d="M14993 18307c146,-110 -183,-26 175,-98 74,-15 159,11 188,-75l-445 -13 12 786c189,17 317,37 452,-34 -138,-72 -194,-46 -382,-40l0 -268c54,-40 28,-30 121,-71 6,-2 110,-29 119,-32 -12,-8 -28,-16 -37,-20 -346,-164 -108,34 -202,-134z"/>
  <path class="fil0 str0" d="M12414 18359l68 208 -181 -25 113 -183zm-132 273l237 21 168 261c-3,-180 -190,-625 -294,-748 -112,141 -331,615 -245,742l134 -276z"/>
  <path class="fil0 str0" d="M4059 18205c-287,-200 -649,-11 -622,360 27,366 409,445 667,248 -136,-63 -855,148 -471,-588l426 -20z"/>
  <path class="fil0 str0" d="M26131 18340c71,290 123,197 -116,226 21,-75 -2,-42 37,-124 39,-84 41,-58 79,-103zm-321 571c136,-109 82,-108 171,-269l246 -15c88,245 82,193 194,263l-297 -743c-116,109 -309,594 -314,764z"/>
  <path class="fil0 str0" d="M9757 18778c-273,29 -579,119 -568,-263 11,-390 372,-286 407,-285l126 -25c-315,-195 -438,-34 -609,153 -60,623 491,699 644,421z"/>
  <path class="fil0" d="M14755 9931l105 -110 190 93c108,-7 50,11 133,-21 74,-29 71,-44 111,-73 -98,-26 -346,-61 -404,-132 -5,-6 -16,-23 -22,-29 -109,-120 -66,-54 -208,-131l-106 -25c45,204 102,314 200,428z"/>
  <path class="fil0 str0" d="M25889 17124l-131 -56 -631 0c-45,36 76,55 -139,64 -235,9 -93,28 -153,-65l-216 57c64,38 -4,37 161,57l466 -4c225,-1 473,30 643,-54z"/>
  <path class="fil0 str0" d="M24838 14972c50,-79 -88,-70 151,-65 203,4 107,35 138,59l468 11c48,-30 16,-36 113,-51 7,-1 127,2 132,2 -121,-114 -451,-65 -646,-67 -755,-8 -516,-24 -578,102l221 9z"/>
  <path class="fil0 str0" d="M16458 18436l-49 19 75 169c233,-78 168,-120 307,-253 15,215 -35,403 87,542l-9 -763c-112,105 -213,237 -312,348l-98 -63z"/>
  <path class="fil0 str0" d="M22930 16000c119,-112 160,-311 227,-500 70,-198 131,-338 185,-525 -1,-1 -60,-176 -90,-6 -100,325 -309,700 -322,1031z"/>
  <path class="fil0 str0" d="M7854 18873l72 -30 18 -368 251 2 -165 -78c-64,-25 -61,-17 -96,-40l-3 -140 376 -39c-117,-85 -227,-53 -445,-58l-9 751z"/>
  <path class="fil0 str0" d="M3284 15961l-2 65 678 7c58,125 22,132 136,245l-17 -551c-51,59 -29,25 -76,112 -7,13 -8,134 -30,75 -3,-7 -8,24 -13,34l-676 12z"/>
  <path class="fil0 str0" d="M16408 18455l49 -19c-86,-180 -60,-181 -260,-305 -1,223 -61,620 51,774 63,-120 37,-345 29,-512 64,41 86,15 131,62z"/>
  <path class="fil0 str0" d="M12700 6645c-72,-162 -51,-60 30,-117l-666 -401c96,231 377,412 637,517z"/>
  <path class="fil0" d="M14161 9717l180 176c8,6 23,18 34,27l216 22c-88,-193 -154,-217 -310,-333l-73 18c-101,0 -71,-20 -47,90z"/>
  <path class="fil0 str0" d="M13296 17044c4,135 56,5 -29,84l-206 -9c-26,-48 -71,-135 -127,-188l-38 130c-9,6 -26,15 -35,22 -103,74 -12,-23 -82,90 211,10 576,60 727,-64l-209 -65z"/>
  <path class="fil0 str0" d="M21652 14977c41,-78 -61,-61 252,-67 9,11 23,13 27,31l99 112 -11 -86c52,-2 78,-3 129,-15 8,-2 27,-3 33,-17 5,-14 20,-14 30,-21 -117,-72 -70,-52 -358,-55 -468,-6 -300,20 -366,80l165 39z"/>
  <path class="fil0 str0" d="M28673 17062c-88,98 -195,86 -326,15 -199,1 -97,-30 -228,48 132,76 142,53 366,54 345,2 266,19 361,-77l-173 -40z"/>
  <path class="fil0 str0" d="M23467 18132c-55,76 -42,-58 -76,172 -18,122 -19,459 78,604l-2 -777z"/>
  <path class="fil0 str0" d="M11630 17065l-246 15 0 41c96,36 178,62 342,62 4,0 149,-8 150,-8 107,-18 52,-16 102,-51 -117,-74 -9,-53 -217,-46l36 -58c-97,94 127,-129 -60,65 -5,6 -27,40 -31,30 -5,-11 -23,22 -43,37l-34 -88z"/>
  <path class="fil0 str0" d="M7040 17071c-64,46 94,58 -149,63 -240,5 -92,30 -153,-69l-177 39c-6,-11 -21,14 -32,21 113,75 412,74 571,57 254,-28 67,-2 149,-57l-209 -54z"/>
  <path class="fil0 str0" d="M23252 14969c30,-170 89,5 90,6 187,-17 90,18 198,-61 -124,-82 -369,-91 -506,0l217 55z"/>
  <path class="fil0 str0" d="M7854 18873c145,76 336,86 474,0 -136,-84 -177,-56 -365,-39l-37 9 -72 30z"/>
  <path class="fil0 str0" d="M15328 14967c-4,-184 65,-37 83,-1l216 -53c-131,-89 -376,-86 -512,0 50,32 11,21 109,49 14,4 78,4 104,5z"/>
  <path class="fil0 str0" d="M13952 17077c-124,236 187,-16 -67,53 -105,28 -82,100 -67,-62l-189 57c116,81 353,114 509,-24l-187 -24z"/>
  <path class="fil0 str0" d="M27093 17069c-63,111 -165,221 -132,-40l-158 96c95,68 75,61 241,63 293,3 269,-63 269,-63l-221 -56z"/>
  <path class="fil0" d="M15002 10453l191 -103c-66,-91 74,-30 -130,-96 -227,28 -51,-11 -124,84 13,10 25,18 27,39l35 75z"/>
  <path class="fil0" d="M16795 9009l-17 -165 -46 0c-14,45 -50,138 -53,176 -11,123 7,85 32,129l84 -140z"/>
  <path class="fil0 str0" d="M7047 14971l196 -56c-26,-17 69,-52 -145,-57 -263,-6 -94,16 -163,62 198,-35 73,-33 112,52z"/>
  <path class="fil0 str0" d="M7926 18843l37 -9 -8 -269c13,-5 30,-10 39,-13 9,-3 29,-9 40,-13 108,-37 98,15 123,-43 7,-17 26,-12 39,-18l-251 -2 -18 368z"/>
  <path class="fil0 str0" d="M4232 15108c59,63 -102,54 82,53l5 -235c-143,12 -36,-49 -93,39l6 143z"/>
  <path class="fil1 str0" d="M18765 11106l10 106 170 -205 -131 -22c-53,72 -31,73 -49,121z"/>
  <path class="fil0" d="M16160 7464l20 -69 -212 -105c91,203 -27,109 193,174z"/>
  <path class="fil0 str0" d="M16522 10966c-25,-167 -33,-67 65,-111 -106,-65 134,-83 -126,-50 -25,272 -9,89 61,160z"/>
  <path class="fil0" d="M16565 6821l-56 -141 83 -83c-128,67 -80,-1 -155,158l128 66z"/>
  <path class="fil0 str0" d="M15185 11996l-61 -141c-90,83 -117,-144 -69,87l129 54z"/>
  <path class="fil0" d="M14646 10252l165 -176 -139 -6c38,155 37,46 -26,182z"/>
  <path class="fil0 str0" d="M5885 17135c-110,-44 -70,-4 -136,-62l63 110c93,23 72,43 74,-49z"/>
  <path class="fil2" d="M17131 4085l45 -4 -84 -61c1,5 11,28 12,33 2,6 20,20 27,33z"/>
  <line class="fil0 str0" x1="19851" y1="17060" x2="19851" y2= "17060" />
  <path class="fil0 str0" d="M19851 17060l0 0zm0 0l0 0z"/>
  <path class="fil0 str0" d="M19533 17088l144 44c542,-106 887,-683 819,-1292 -68,-612 -536,-1049 -1117,-1013 -6,0 -132,11 -139,12 -100,26 -66,29 -114,66 1191,53 1344,2037 407,2183z"/>
  <path class="fil0 str0" d="M19507 17078l-124 84c-549,58 -1048,-393 -1162,-995 -114,-605 205,-1161 771,-1296 5,-1 130,-29 137,-29 104,-5 72,9 128,30 -1123,400 -688,2342 251,2206z"/>
 </g>
</svg>
