<?xml version="1.0" encoding="UTF-8"?>
<!DOCTYPE svg PUBLIC "-//W3C//DTD SVG 1.1//EN" "http://www.w3.org/Graphics/SVG/1.1/DTD/svg11.dtd">
<!-- Creator: CorelDRAW X6 -->
<svg xmlns="http://www.w3.org/2000/svg" xml:space="preserve" width="70mm" height="70mm" version="1.1" style="shape-rendering:geometricPrecision; text-rendering:geometricPrecision; image-rendering:optimizeQuality; fill-rule:evenodd; clip-rule:evenodd"
viewBox="0 0 7000 7000"
 xmlns:xlink="http://www.w3.org/1999/xlink">
 <defs>
  <style type="text/css">
   <![CDATA[
    .str0 {stroke:#7B8C30;stroke-width:7.62}
    .str1 {stroke:#A8B958;stroke-width:7.62}
    .fil0 {fill:#7B8C30}
    .fil1 {fill:#A8B958}
   ]]>
  </style>
 </defs>
 <g id="Capa_x0020_1">
  <metadata id="CorelCorpID_0Corel-Layer"/>
  <path class="fil0 str0" d="M2038 2823c477,149 2717,-4 3438,50 99,393 72,2064 108,2659 19,314 121,367 312,529l-1 252c-503,259 -310,71 -548,-20 -249,-4 -669,109 -944,150 -631,92 -1372,89 -2001,-8 -1327,-205 -594,-194 -1187,39l-261 -166 0 -247c216,-184 295,-218 312,-583 13,-294 10,-588 20,-882 13,-376 13,-1436 86,-1723 210,-16 237,23 412,-70 -110,-296 -154,-114 -505,-166 -264,-39 -93,-23 -163,-76 -125,-133 -67,-686 -28,-843 315,-66 4356,-66 4672,0 54,214 142,833 -141,909l-2799 11c-598,0 -763,-83 -781,185zm1227 -2517c7,19 15,38 24,58 -178,4 -390,80 -515,148 -162,89 -239,224 -382,320 -177,-4 -281,-71 -500,-33 -293,51 -798,348 -832,698 -83,33 -153,94 -199,207 -89,221 -203,1012 255,1134 0,320 -48,412 -57,657l-53 2144c-22,72 -525,434 -200,859 237,311 568,178 805,19 611,293 3014,293 3625,0 548,367 875,35 913,-291 30,-260 -202,-428 -308,-587l-53 -2089c-3,-277 -57,-376 -57,-712 481,-128 423,-1201 25,-1364 -5,-11 -12,-25 -20,-44 -22,-49 -70,-139 -99,-177 -37,-49 -244,-254 -296,-289 -74,-51 -288,-133 -389,-157 -227,-53 -349,21 -532,25 -106,-31 -206,-308 -662,-430 -70,-19 -195,-18 -266,-61 -74,36 -165,24 -228,-34zm-2008 1155c309,-670 1035,-441 1222,-435 490,-673 1364,-673 1854,0 191,-6 916,-235 1224,438l-118 0c-31,11 -64,17 -99,17l-162 0c-39,0 -77,-8 -111,-22l4 5 -3223 0c-23,11 -48,17 -72,25 -88,35 -201,25 -280,-26 -76,0 -159,-6 -240,-3z"/>
  <path class="fil1 str1" d="M4238 1222c-88,95 -2,69 -124,56 -4,-9 -120,-16 26,-156 137,57 58,10 98,100zm-887 -312c51,210 169,125 141,-7 -74,-39 -75,-31 -141,7zm34 368c89,9 68,25 83,-3l8 -2c7,-13 13,-24 17,-34 4,-5 10,-11 16,-18 -2,-5 -4,-10 -6,-15 1,-10 -2,-18 -7,-29 -2,-21 8,-20 -17,-30l-10 -16 -19 5 -39 -16c-146,141 -31,148 -26,156zm-1366 -145c39,67 48,64 7,141 -131,28 -216,-90 -7,-141zm1782 -223c66,-38 67,-46 141,-7 28,132 -90,216 -141,7zm-2558 624l4360 0c-289,-757 -1056,-513 -1253,-507 -490,-673 -1365,-673 -1854,0 -194,-6 -963,-252 -1253,507z"/>
  <path class="fil1" d="M3275 4787l-165 -250c-152,-204 -432,-496 -667,-589 -15,8 -16,-15 -9,19 11,154 145,435 206,555 50,98 200,307 277,387 18,19 29,24 46,45l24 24c-23,-9 -8,-5 -25,-12 -231,-106 -346,-118 -626,-132l-36 26c137,189 413,354 737,404 -122,58 -237,41 -460,242 144,23 345,19 480,-22 260,-80 288,-142 375,-176 43,62 264,147 355,175 150,45 317,42 481,27 -30,-46 -143,-113 -207,-148 -98,-53 -159,-57 -255,-97 278,-53 497,-145 682,-341 30,-31 56,-42 58,-82 -122,-15 -255,-6 -368,22 -113,28 -199,72 -300,101 17,-33 180,-181 330,-452 61,-111 203,-428 213,-576 -84,36 -195,117 -264,170 -87,66 -161,131 -233,205 -216,221 -228,288 -363,512 20,-278 78,-362 34,-735 -19,-164 -95,-520 -177,-614 -136,326 -192,591 -178,958 4,106 40,268 35,354z"/>
 </g>
</svg>
