<?xml version="1.0" encoding="UTF-8"?>
<!DOCTYPE svg PUBLIC "-//W3C//DTD SVG 1.1//EN" "http://www.w3.org/Graphics/SVG/1.1/DTD/svg11.dtd">
<!-- Creator: CorelDRAW X6 -->
<svg xmlns="http://www.w3.org/2000/svg" xml:space="preserve" width="297mm" height="210mm" version="1.1" style="shape-rendering:geometricPrecision; text-rendering:geometricPrecision; image-rendering:optimizeQuality; fill-rule:evenodd; clip-rule:evenodd"
viewBox="0 0 29700 21000"
 xmlns:xlink="http://www.w3.org/1999/xlink">
 <defs>
  <style type="text/css">
   <![CDATA[
    .str0 {stroke:#75632D;stroke-width:7.62}
    .fil0 {fill:#75632D}
   ]]>
  </style>
 </defs>
 <g id="Capa_x0020_1">
  <metadata id="CorelCorpID_0Corel-Layer"/>
  <path class="fil0 str0" d="M9172 14851c132,187 240,278 327,563 63,207 165,538 196,753 -194,-249 -489,-939 -523,-1316zm411 -1414c138,227 238,604 378,901 107,227 471,741 497,834 27,99 -55,833 5,1173 77,440 226,635 352,1000 -805,-405 -1439,-3543 -1435,-3908 -343,-693 -517,-2674 -2578,-3375 -434,-148 -1182,-281 -1730,-281l1578 372c516,167 954,398 1314,758l327 405c642,987 590,1805 742,2122l256 1289c-324,-163 -344,-804 -440,-993l30 446 -983 -742c-867,-382 -2087,-829 -2788,-1255 -200,-122 -337,-201 -509,-344 -296,-246 -442,-679 -442,-1204l-61 0c0,253 -5,515 50,682 96,289 276,497 498,659l439 292c111,69 140,89 272,155 688,342 1390,628 2032,989 291,110 470,247 709,413 949,658 818,789 949,1369 69,306 171,594 303,855 385,759 942,1335 1580,1830 843,654 664,-163 668,2488l415 0 27 -1354c67,81 157,158 236,264l756 1039c6,13 16,34 25,51l395 0 0 -2114 -454 0 -2 1172c-495,-421 -556,-959 -1599,-1646 -799,-527 -856,-1462 -806,-2428 395,238 1166,1449 3196,1573 508,31 683,-115 1070,136 766,497 1429,1213 2601,1076 -3,-594 -728,-1061 -803,-1551 169,-169 1257,-1297 652,-1430 -173,-38 -498,62 -665,105 -295,76 -513,136 -789,241 -1457,552 -2110,630 -2927,-595 -156,-234 -657,-1218 -540,-1458 -208,-480 76,-1340 244,-1657 137,100 148,177 288,321 287,295 801,715 1235,715 0,-469 -311,-683 -307,-1585 2,-320 57,-343 63,-609 1125,-300 2507,-3198 896,-4004 -1058,-529 -2879,188 -3564,910 -858,904 -502,1046 -1557,1116 -612,41 -1527,-397 -543,592 241,242 318,310 625,472 -111,478 -369,791 -366,1767 6,1837 76,887 186,1950z"/>
  <path class="fil0 str0" d="M17502 2895c213,57 137,23 244,183 -238,-20 -185,37 -244,-183zm-548 0l122 0 0 122 -122 0 0 -122zm244 0c283,24 107,-65 244,122 -283,-24 -107,65 -244,-122zm-427 0l61 0 -51 71 -10 -71zm731 0l-61 0 51 -71 10 71zm-731 0l-61 0 51 -71 10 71zm488 -366l-61 0 135 107c-193,58 -355,108 -501,-46l0 183c-189,-16 -115,1 -244,-61l-61 0c-223,-60 -128,-64 -305,-183 53,198 106,252 305,305l-183 183 427 61c-254,0 -540,86 -751,164 -868,319 -1239,507 -2235,507 123,232 231,451 366,670 270,438 617,802 1034,1099 1596,1135 3213,-722 3779,-854 160,107 304,203 476,317 208,137 252,198 424,369 919,914 1250,2404 685,3581 -228,-167 -837,-1036 -1523,-1036 0,389 318,880 308,1585 -4,308 -64,298 -64,609 -284,66 -549,332 -747,532l-709 1181c-307,840 -149,1109 -53,1639 371,464 585,959 1929,773 1094,-151 1449,-549 1957,-758 194,-337 528,-510 768,-831 299,-400 253,-540 1061,-588 211,-13 484,73 697,106 738,114 -120,-655 -256,-789 -115,-115 -105,-96 -234,-192 -165,-123 -62,-102 -269,-157 280,-1204 565,-1407 299,-3102 -283,-1800 -1427,-3320 -3170,-3899 -249,-83 -434,-118 -677,-176 -331,-79 -347,-158 -510,-404 -140,-211 -466,-797 -767,-823 -290,-25 -108,7 -171,55 244,20 258,36 366,183 -288,6 -239,-62 -305,183 312,-26 83,-46 366,-122 219,147 335,442 488,670l-1009 -397c-255,-114 18,-58 -332,-29l-243 -298c-5,-5 -18,-16 -24,-20l-160 -47c162,-337 153,-647 244,-1036l-122 0c-24,293 -177,566 -244,853 -230,-160 -29,-57 -183,-61z"/>
  <path class="fil0 str0" d="M19331 20141l13 226 405 0 24 -1028c488,725 82,862 972,862 63,-212 257,-646 424,-809l11 964 437 3 10 -2089 -467 -13 -667 1394c-357,-413 -456,-1399 -920,-1399l-243 0 0 1888z"/>
  <path class="fil0 str0" d="M7704 19470c417,-48 689,-104 705,305 -80,264 -506,202 -705,183l0 -488zm3 -812l357 63c1,305 -53,330 -360,309l3 -372zm-457 1483l16 226c496,0 1058,92 1374,-189 431,-383 159,-809 -153,-1073 93,-953 -521,-852 -1236,-852l-1 1888z"/>
  <path class="fil0 str0" d="M24935 18646c1065,21 972,1154 8,1161l-8 -1161zm-455 1720c579,0 341,23 459,-82l606 -142c190,251 86,224 598,224l-255 -491c506,-855 83,-1623 -952,-1623l-456 0 0 2114z"/>
  <path class="fil0 str0" d="M15577 19470c-251,868 -1632,504 -1360,-353 91,-287 473,-558 898,-434 289,84 569,418 462,787zm-976 -1168c-1464,386 -840,2414 641,2021 1316,-350 805,-2402 -641,-2021z"/>
  <path class="fil0 str0" d="M9871 18714c892,-361 1388,856 578,1199 -911,386 -1377,-876 -578,-1199zm-15 -408c-1497,412 -762,2440 637,2016 499,-151 938,-678 729,-1335 -151,-474 -724,-858 -1366,-681z"/>
  <path class="fil0 str0" d="M5848 18846l156 241c42,95 76,175 109,254 73,178 148,309 171,495 -301,213 -580,169 -833,-14l397 -975zm-1068 1519c375,0 333,48 534,-127 419,149 665,200 1097,12 287,111 126,145 578,101l-877 -2097c-613,-6 -416,-72 -884,1005 -131,301 -378,806 -448,1105z"/>
  <path class="fil0 str0" d="M23108 18888c150,175 376,762 438,973 -334,136 -527,150 -871,-19l433 -954zm-1086 1478c358,0 321,67 522,-139 357,195 780,192 1135,4l529 135 -863 -2110c-593,-6 -415,-78 -879,1000 -120,278 -407,860 -445,1110z"/>
  <path class="fil0 str0" d="M16617 19256c350,-75 418,39 638,190 62,402 -7,422 -224,642l-415 -27 0 -805zm-301 1090c1898,304 1477,-1848 -2,-1345l2 1345z"/>
  <polygon class="fil0 str0" points="18800,20073 18093,20082 18093,19939 18519,19939 18540,19654 18093,19654 18103,19240 18781,19240 18781,18954 17817,18960 17817,20342 18800,20342 "/>
  <path class="fil0 str0" d="M17197 2529l61 0c0,-306 16,-118 -61,-183 123,-256 183,-591 183,-975 -215,157 -72,28 -147,341 -47,197 -79,173 -97,390 -461,-123 22,-540 122,-914 -168,113 -344,288 -366,548l-122 0c-107,-461 205,-446 244,-914 -112,129 -240,270 -305,548 -187,-216 -53,-180 61,-670 -123,90 -183,140 -183,366l-61 0c0,-308 -122,-365 -122,-366 7,302 38,458 183,731 -165,-14 -166,-29 -305,-61 255,381 228,-4 488,488 -276,-6 -242,-61 -548,-61 331,494 612,-20 731,427l-609 0c169,230 447,249 731,183l122 122z"/>
  <path class="fil0 str0" d="M8721 13437l114 269 5 -269c-176,-1074 -396,-2377 -1637,-2377l0 61c556,0 922,376 1118,771 171,344 417,1064 400,1544z"/>
  <path class="fil0 str0" d="M18800 20073l1 269 -983 0 0 -1382c-27,51 -43,40 -59,145l-3 548c0,237 -8,473 13,709l1071 36c7,-88 24,-119 12,-195 -16,-100 -32,-95 -51,-129z"/>
  <path class="fil0 str0" d="M18294 2712c-187,137 -98,-39 -122,244 187,-137 98,39 122,-244z"/>
  <path class="fil0 str0" d="M16405 701c-39,-149 27,-82 -122,-122l122 122z"/>
  <polygon class="fil0 str0" points="17258,1189 17319,1189 17268,1118 "/>
  <polygon class="fil0 str0" points="16588,2712 16527,2712 "/>
  <polygon class="fil0 str0" points="18416,2651 18294,2712 "/>
 </g>
</svg>
