<?xml version="1.0" encoding="UTF-8"?>
<!DOCTYPE svg PUBLIC "-//W3C//DTD SVG 1.1//EN" "http://www.w3.org/Graphics/SVG/1.1/DTD/svg11.dtd">
<!-- Creator: CorelDRAW X6 -->
<svg xmlns="http://www.w3.org/2000/svg" xml:space="preserve" width="70mm" height="70mm" version="1.1" style="shape-rendering:geometricPrecision; text-rendering:geometricPrecision; image-rendering:optimizeQuality; fill-rule:evenodd; clip-rule:evenodd"
viewBox="0 0 7000 7000"
 xmlns:xlink="http://www.w3.org/1999/xlink">
 <defs>
  <style type="text/css">
   <![CDATA[
    .fil1 {fill:#533628}
    .fil0 {fill:#7B8C30}
    .fil2 {fill:#A8B958}
   ]]>
  </style>
 </defs>
 <g id="Capa_x0020_1">
  <metadata id="CorelCorpID_0Corel-Layer"/>
  <path class="fil0" d="M1968 5923l-191 -1 -8 -1516c1047,-72 1162,48 2078,672 191,130 495,254 240,509 -219,120 -913,-528 -1164,-602l-113 170c137,67 265,160 402,252 266,180 623,461 878,397 213,-54 230,-198 327,-355 139,-102 662,-298 846,-379 243,-106 706,-411 890,-161 -619,438 -1229,898 -1859,1339 -641,448 -428,393 -1663,-161 -302,-135 -277,-165 -663,-165zm2365 -991c-80,-259 144,-195 158,-187 103,131 52,263 -158,187zm667 -531c62,-11 39,-26 104,-13 62,13 49,20 78,40 117,261 -296,269 -183,-28zm-1276 70c-301,-256 -41,-548 197,-456 207,80 258,498 -197,456zm-1756 1664c388,-10 936,310 1280,463 650,290 736,148 1199,-197l1990 -1418c-124,-507 -570,-383 -798,-330 -41,-237 -140,-163 -280,-304 -275,-276 -305,-538 -665,-430 -192,58 -157,134 -271,257l-215 -38c-54,-492 -645,-493 -748,-80 -353,-44 -317,24 -417,253 -340,-222 -2075,-113 -2594,-103l0 2198 1311 5 9 -273 199 -4z"/>
  <path class="fil1" d="M5142 1784c-107,837 -228,529 -670,994 -134,141 -251,311 -288,564 -45,316 -42,555 283,546 223,-90 14,-434 95,-710 144,-489 806,-551 642,-1369 -26,-153 -46,-254 -141,-340 6,128 13,214 78,315z"/>
  <path class="fil2" d="M4034 2559l-210 -90c-183,-66 -483,-135 -672,-95 -6,12 -17,-3 2,15 72,94 275,216 364,267 73,42 256,111 339,131 20,5 28,3 49,9l26 5c-19,4 -7,0 -21,3 -192,29 -270,70 -454,179l-12 32c167,63 411,52 639,-52 -54,88 -134,125 -191,347 102,-46 228,-133 296,-215 132,-160 124,-211 165,-269 53,22 230,-17 299,-38 115,-34 220,-106 318,-185 -39,-17 -139,-12 -194,-7 -84,8 -125,30 -203,45 155,-150 256,-301 292,-503 6,-32 18,-50 2,-77 -84,41 -165,103 -225,168 -60,65 -96,129 -149,190 -3,-28 39,-190 21,-426 -7,-97 -50,-357 -106,-456 -39,58 -75,156 -97,219 -28,79 -47,151 -63,229 -45,232 -24,279 -17,478 -104,-186 -102,-263 -286,-483 -81,-96 -278,-291 -370,-317 51,265 126,457 288,685 47,66 138,154 171,211z"/>
  <path class="fil2" d="M5353 2285l61 -179c43,-155 81,-408 36,-562 -10,-4 1,-14 -13,3 -73,65 -161,241 -198,318 -30,63 -76,219 -86,288 -3,16 0,24 -5,41l-3 22c-5,-15 -1,-6 -4,-17 -36,-157 -75,-219 -177,-364l-27 -8c-41,142 -17,344 84,525 -77,-39 -112,-103 -300,-136 44,81 124,180 197,231 141,99 183,89 233,119 -15,46 29,189 50,245 36,93 102,175 173,251 11,-33 1,-116 -6,-161 -12,-69 -33,-101 -51,-165 134,118 265,192 435,209 27,3 42,12 64,-3 -40,-67 -96,-130 -154,-176 -58,-46 -113,-71 -167,-111 23,-4 160,20 354,-10 79,-12 292,-64 371,-117 -50,-28 -134,-52 -187,-66 -67,-18 -128,-30 -193,-37 -195,-22 -233,-2 -397,17 147,-98 211,-101 381,-268 74,-73 223,-249 238,-327 -216,59 -370,133 -548,282 -51,43 -119,124 -163,155z"/>
  <path class="fil2" d="M4752 1022l-165 -125c-146,-98 -395,-224 -570,-230 -8,9 -14,-6 -1,14 43,98 194,250 261,314 55,53 201,154 269,189 16,8 24,9 41,19l21 10c-17,0 -6,-1 -19,-2 -175,-16 -252,3 -438,58l-17 25c133,92 350,135 573,94 -66,66 -145,81 -244,264 99,-18 229,-67 307,-125 151,-112 155,-159 204,-201 42,31 206,35 271,32 108,-5 216,-45 320,-93 -30,-23 -119,-41 -169,-49 -76,-12 -116,0 -188,-4 169,-98 290,-209 366,-379 12,-27 27,-40 19,-67 -83,18 -168,55 -235,99 -67,44 -113,92 -172,135 4,-25 76,-159 111,-370 15,-87 34,-325 6,-424 -46,42 -100,121 -133,171 -42,63 -75,122 -105,187 -90,194 -82,240 -119,417 -51,-186 -32,-253 -147,-487 -50,-102 -181,-317 -257,-359 -13,244 11,429 104,665 27,68 88,166 104,223z"/>
 </g>
</svg>
