<?xml version="1.0" encoding="UTF-8"?>
<!DOCTYPE svg PUBLIC "-//W3C//DTD SVG 1.1//EN" "http://www.w3.org/Graphics/SVG/1.1/DTD/svg11.dtd">
<!-- Creator: CorelDRAW X6 -->
<svg xmlns="http://www.w3.org/2000/svg" xml:space="preserve" width="201.035mm" height="201.035mm" version="1.1" style="shape-rendering:geometricPrecision; text-rendering:geometricPrecision; image-rendering:optimizeQuality; fill-rule:evenodd; clip-rule:evenodd"
viewBox="0 0 20333 20333"
 xmlns:xlink="http://www.w3.org/1999/xlink">
 <defs>
  <style type="text/css">
   <![CDATA[
    .str1 {stroke:#75632D;stroke-width:20.2282}
    .str2 {stroke:#DCE7BD;stroke-width:20.2282}
    .str3 {stroke:#DCE7BD;stroke-width:25.2853}
    .str0 {stroke:#75632D;stroke-width:252.853}
    .fil0 {fill:none}
    .fil1 {fill:#75632D}
    .fil2 {fill:#DCE7BD;fill-rule:nonzero}
   ]]>
  </style>
 </defs>
 <g id="Capa_x0020_1">
  <metadata id="CorelCorpID_0Corel-Layer"/>
  <circle class="fil0 str0" cx="10166" cy="10166" r="10040"/>
  <path class="fil1 str1" d="M8451 17144c129,46 255,88 381,127 568,178 2397,-9613 1604,345 4482,478 6307,-3826 5818,-9233 -157,-1732 -938,-3625 -1087,-5947 -2972,-25 -6814,1588 -9273,8058l2558 6651zm2430 -3933c-36,-4730 835,-7346 2846,-9177 -1547,2445 -2323,5197 -2846,9177z"/>
  <path class="fil1 str1" d="M8336 17951c-117,8 -694,-318 -810,-326 -3512,-241 -6793,-7792 -1888,-10584 2352,2121 3798,3869 4700,5819 -511,5234 -2561,898 -2556,2434 -1142,-1651 -1944,-3626 -2705,-6310 457,3292 1257,5296 2601,6623 -27,555 1033,1443 657,2344z"/>
  <path class="fil1 str2" d="M8668 19631c1172,-1396 2704,-1506 3013,-2998 502,-1342 393,-2644 -384,-3901 -3084,-330 -5272,4945 -2686,5947l-181 926 238 26zm395 -1845c1212,-1696 1562,-2861 1301,-4030 -62,1274 -480,2463 -1301,4030z"/>
  <path class="fil2 str3" d="M15251 9681c343,-69 758,44 935,256 164,197 482,904 34,950l-1144 117c-29,188 -6,460 320,433 104,-9 167,-17 252,-167 191,-335 1058,-232 443,491 -104,122 -355,220 -506,251 -36,7 -63,11 -83,12 -191,24 -374,-5 -550,-87 -175,-82 -323,-207 -442,-373 -119,-167 -193,-361 -223,-581 -6,-43 -9,-76 -9,-100 -14,-191 19,-371 99,-541 80,-169 196,-312 349,-428 152,-116 327,-194 524,-234zm84 604c-259,10 -292,277 -288,454l687 -81c-75,-269 -141,-384 -399,-374z"/>
  <path class="fil2 str3" d="M8224 10986c241,-23 265,35 433,135 221,131 149,549 -231,541 -128,-3 -345,-174 -525,94 -61,92 -119,238 -81,429l172 862c67,337 -619,475 -684,69l-270 -1684c-76,-362 472,-439 501,-37l190 -191c66,-60 143,-109 230,-147 88,-38 176,-62 266,-70z"/>
  <path class="fil2 str3" d="M5064 10772c-201,0 -389,-55 -563,-166 -174,-111 -312,-259 -414,-444 -102,-185 -153,-384 -153,-597 0,-213 49,-407 147,-584 98,-177 230,-317 397,-420 167,-103 351,-155 553,-155 179,0 355,43 528,129 172,86 388,170 420,349 62,342 -380,567 -669,338 -72,-57 -131,-79 -217,-75 -110,5 -209,42 -296,127 -87,85 -130,182 -130,291 0,72 21,142 62,211 41,69 96,125 164,168 68,43 137,65 209,65 72,0 140,-22 205,-65 65,-43 106,-129 155,-172 262,-229 550,-211 671,77 59,140 -52,308 -155,450 -103,142 -238,256 -404,343 -166,86 -335,129 -509,129z"/>
  <path class="fil2 str3" d="M5799 13777c-201,0 -389,-55 -563,-166 -174,-111 -312,-259 -414,-444 -102,-185 -153,-384 -153,-597 0,-213 49,-407 147,-584 98,-177 230,-317 397,-420 167,-103 351,-155 553,-155 179,0 355,43 528,129 172,86 388,170 420,349 62,342 -380,567 -669,338 -72,-57 -131,-79 -217,-75 -110,5 -209,42 -296,127 -87,85 -130,182 -130,291 0,72 21,142 62,211 41,69 96,125 164,168 68,43 137,65 209,65 72,0 140,-22 205,-65 65,-43 106,-129 155,-172 262,-229 550,-211 671,77 59,140 -52,308 -155,450 -103,142 -238,256 -404,343 -166,86 -335,129 -509,129z"/>
  <path class="fil2 str3" d="M12866 12466c-201,0 -389,-55 -563,-166 -174,-111 -312,-259 -414,-444 -102,-185 -153,-384 -153,-597 0,-213 49,-407 147,-584 98,-177 230,-317 397,-420 167,-103 351,-155 553,-155 179,0 355,43 528,129 172,86 388,170 420,349 62,342 -380,567 -669,338 -72,-57 -131,-79 -217,-75 -110,5 -209,42 -296,127 -87,85 -130,182 -130,291 0,72 21,142 62,211 41,69 96,125 164,168 68,43 137,65 209,65 72,0 140,-22 205,-65 65,-43 106,-129 155,-172 262,-229 550,-211 671,77 59,140 -52,308 -155,450 -103,142 -238,256 -404,343 -166,86 -335,129 -509,129z"/>
  <path class="fil2 str3" d="M12130 9557c-201,0 -389,-55 -563,-166 -174,-111 -312,-259 -414,-444 -102,-185 -153,-384 -153,-597 0,-213 49,-407 147,-584 98,-177 230,-317 397,-420 167,-103 351,-155 553,-155 179,0 355,43 528,129 172,86 388,170 420,349 62,342 -380,567 -669,338 -72,-57 -131,-79 -217,-75 -110,5 -209,42 -296,127 -87,85 -130,182 -130,291 0,72 21,142 62,211 41,69 96,125 164,168 68,43 137,65 209,65 72,0 140,-22 205,-65 65,-43 106,-129 155,-172 262,-229 550,-211 671,77 59,140 -52,308 -155,450 -103,142 -238,256 -404,343 -166,86 -335,129 -509,129z"/>
  <path class="fil2 str3" d="M14516 6772c343,-69 758,44 935,256 164,197 482,904 34,950l-1144 117c-29,188 -6,460 320,433 104,-9 167,-17 252,-167 191,-335 1058,-232 443,491 -104,122 -355,220 -506,251 -36,7 -63,11 -83,12 -191,24 -374,-5 -550,-87 -175,-82 -323,-207 -442,-373 -119,-167 -193,-361 -223,-581 -6,-43 -9,-76 -9,-100 -14,-191 19,-371 99,-541 80,-169 196,-312 349,-428 152,-116 327,-194 524,-234zm84 604c-259,10 -292,277 -288,454l687 -81c-75,-269 -141,-384 -399,-374z"/>
  <path class="fil2 str3" d="M9272 7699c343,-69 758,44 935,256 164,197 482,904 34,950l-1144 117c-29,188 -6,460 320,433 104,-9 167,-17 252,-167 191,-335 1058,-232 443,491 -104,122 -355,220 -506,251 -36,7 -63,11 -83,12 -191,24 -374,-5 -550,-87 -175,-82 -323,-207 -442,-373 -119,-167 -193,-361 -223,-581 -6,-43 -9,-76 -9,-100 -14,-191 19,-371 99,-541 80,-169 196,-312 349,-428 152,-116 327,-194 524,-234zm84 604c-258,10 -292,277 -288,454l687 -81c-75,-269 -141,-384 -399,-374z"/>
  <path class="fil2 str3" d="M10063 10609c343,-69 758,44 935,256 164,197 482,904 34,950l-1144 117c-29,188 -6,460 320,433 104,-9 167,-17 252,-167 191,-335 1058,-232 443,491 -104,122 -355,220 -506,251 -36,7 -63,11 -83,12 -191,24 -374,-5 -550,-87 -175,-82 -323,-206 -442,-373 -119,-167 -193,-361 -223,-581 -6,-43 -9,-76 -9,-100 -14,-191 19,-371 99,-541 80,-169 196,-312 349,-428 152,-116 327,-194 524,-234zm84 604c-259,10 -292,277 -288,454l687 -81c-75,-269 -141,-384 -399,-374z"/>
  <path class="fil2 str3" d="M7489 7997c241,-23 265,35 433,135 221,131 149,549 -231,541 -128,-3 -345,-174 -525,94 -61,92 -119,238 -81,429l172 862c67,337 -619,475 -684,69l-270 -1684c-76,-362 472,-439 501,-37l190 -191c66,-60 143,-109 230,-147 88,-38 176,-62 266,-70z"/>
 </g>
</svg>
