<?xml version="1.0" encoding="UTF-8"?>
<!DOCTYPE svg PUBLIC "-//W3C//DTD SVG 1.1//EN" "http://www.w3.org/Graphics/SVG/1.1/DTD/svg11.dtd">
<!-- Creator: CorelDRAW X6 -->
<svg xmlns="http://www.w3.org/2000/svg" xml:space="preserve" width="297mm" height="210mm" version="1.1" style="shape-rendering:geometricPrecision; text-rendering:geometricPrecision; image-rendering:optimizeQuality; fill-rule:evenodd; clip-rule:evenodd"
viewBox="0 0 29700 21000"
 xmlns:xlink="http://www.w3.org/1999/xlink">
 <defs>
  <style type="text/css">
   <![CDATA[
    .str0 {stroke:#7B8C30;stroke-width:7.62}
    .str1 {stroke:#DBE0A6;stroke-width:7.62}
    .fil2 {fill:#FEFEFE}
    .fil1 {fill:#020202}
    .fil0 {fill:#7B8C30}
    .fil6 {fill:#8F8F8F}
    .fil5 {fill:#969696}
    .fil3 {fill:#DBE0A6}
    .fil4 {fill:white}
   ]]>
  </style>
 </defs>
 <g id="Capa_x0020_1">
  <metadata id="CorelCorpID_0Corel-Layer"/>
  <path class="fil0 str0" d="M12059 12265l203 161c45,-70 28,-4 54,-107 23,-90 -20,-437 112,-715 178,1345 100,913 292,1063 27,8 53,21 76,37l28 20c38,15 72,40 98,71 3,2 7,5 10,7 4,3 8,6 12,9 10,7 20,15 29,23 80,-40 79,-9 158,16 117,37 76,29 203,44l-61 -380c16,-4 32,-8 48,-12l-105 -648c-6,-3 -11,-6 -17,-8 -43,-235 -45,-399 -36,-626 3,-86 3,-185 10,-285l62 -218c-41,-199 11,-454 55,-599 18,-159 19,-275 108,-370 36,-337 311,-960 520,-1125 -85,-80 91,-88 -126,-57l-472 117c29,-200 58,-231 8,-437l-18 6c-133,821 -23,360 -865,943 -569,393 -1491,1335 -1587,2005 158,69 322,204 455,345 25,10 48,23 68,40 29,18 54,43 74,72l33 -9c154,231 404,379 572,618z"/>
  <path class="fil0 str0" d="M12508 9139l2117 -1821 533 -87c299,-51 573,-465 -992,-489 -1967,97 -1670,1709 -1658,2397z"/>
  <path class="fil0 str0" d="M17685 12242l-203 161c-45,-70 -28,-4 -54,-107 -23,-90 20,-437 -112,-715 -178,1345 -100,913 -292,1063 -27,8 -53,21 -76,37l-28 20c-38,15 -72,40 -98,71 -3,2 -7,5 -10,7 -4,3 -8,6 -12,9 -10,7 -20,15 -29,23 -80,-40 -79,-9 -158,16 -117,37 -76,29 -203,44l61 -380c-16,-4 -32,-8 -48,-12l105 -648c6,-3 11,-6 17,-8 43,-235 45,-399 36,-626 -3,-86 -3,-185 -10,-285l-62 -218c41,-199 -11,-454 -55,-599 -18,-159 -19,-275 -108,-370 -36,-337 -311,-960 -520,-1125 85,-80 -91,-88 126,-57l472 117c-29,-200 -58,-231 -8,-437l18 6c133,821 23,360 865,943 569,393 1491,1335 1587,2005 -158,69 -322,204 -455,345 -25,10 -48,23 -68,40 -29,18 -54,43 -74,72l-33 -9c-154,231 -404,379 -572,618z"/>
  <path class="fil0 str0" d="M17088 9139l-2117 -1821 158 -212c-2381,141 -2210,-512 301,-364 1967,97 1670,1709 1658,2397z"/>
  <path class="fil1" d="M13089 10365c-34,19 -22,16 -59,34 18,-31 27,-32 33,-69 61,35 12,-15 27,35z"/>
  <path class="fil1" d="M13089 10365l68 55c96,103 71,42 102,120l-170 -175z"/>
  <path class="fil1" d="M12873 10539c20,-22 44,-41 65,-49 -13,35 -17,28 -42,58 -8,10 -14,17 -18,22 -1,-10 -2,-21 -4,-31z"/>
  <path class="fil2" d="M13771 7845l-62 22 -66 40c-31,19 -19,13 -47,21 -33,39 -86,67 -129,92 -13,20 8,11 -21,10 -23,39 -39,43 -73,66 -14,28 0,27 -38,33 -17,35 -10,33 -44,47l-5 12c-22,41 -45,57 -76,89 -22,44 -68,89 -101,134 -39,52 -72,94 -104,139 -9,19 -13,28 -23,45 -21,37 -2,18 -38,42l-76 198c22,-21 43,-51 63,-79 22,-30 38,-48 60,-76 40,-51 90,-106 139,-142 40,-43 94,-80 138,-115 317,-255 804,-432 1211,-463 286,-56 625,-2 906,39l1 5c435,73 798,279 1109,559 50,45 66,74 117,124 51,53 70,95 114,148 0,-67 -48,-109 -55,-169l-366 -484c-20,-26 -29,-32 -55,-56 -172,-158 -326,-249 -597,-351 -494,-148 -1030,-170 -1541,-47 -114,27 -235,68 -341,119z"/>
  <path class="fil2" d="M13796 7702l37 -12 10 4c25,-22 -25,2 31,-21 13,-5 21,-4 30,-6l0 -13 32 -8 15 0c34,-19 17,-19 61,-14l0 -12 35 -9 10 -1c218,-80 596,-113 857,-102 200,8 670,72 795,163l25 14 28 -1c61,43 169,80 234,121 475,295 683,589 919,1081 9,24 16,41 25,62l28 53c16,-277 -287,-788 -463,-971 -141,-146 -161,-189 -351,-321 -279,-204 -633,-339 -996,-371 -193,-24 -659,-34 -836,21l-9 2 -38 2 -53 11 -42 8 -100 24 -45 14 -6 4c-214,73 -343,128 -517,237 -266,167 -579,507 -707,785 -75,163 -180,367 -170,557l66 -153 18 -50c50,-135 147,-280 218,-385 48,-71 237,-291 288,-318l29 -29c17,-40 131,-120 170,-147 65,-45 128,-90 206,-131l91 -49 79 -31 -6 -9z"/>
  <path class="fil3 str1" d="M14256 11970c62,-136 341,-277 546,-277 86,0 261,53 326,89 90,49 176,104 216,188 -56,51 -434,119 -542,121 -83,1 -211,-25 -289,-42 -81,-18 -202,-35 -258,-79zm-848 -1971c0,1 1,2 1,2 0,-1 -1,-2 -1,-2zm206 -159c6,-3 14,-5 22,-7 -22,-22 -31,-29 -58,-46 -4,-24 7,-9 -26,-37 -59,-50 -225,-185 -245,-245l3 2 56 -103c62,22 138,71 198,102 302,153 282,82 413,24 72,-32 125,-75 190,-95l62 125c-50,97 -180,253 -256,351 -54,70 -59,87 -98,89 -39,-19 -72,-52 -111,-77 -50,-33 -80,-70 -126,-90 -9,2 -17,4 -24,7zm752 1696c35,-60 2,-86 78,-122l-5 -13c64,-28 76,-87 202,-111 231,-44 560,1 594,279 -326,-68 -516,-96 -846,-4 -47,7 -15,11 -24,-29zm61 -255l-99 84c-39,45 -40,35 -63,100 -33,27 -16,7 -38,65 -14,37 -11,32 -34,58 -8,-5 -46,-31 -51,-55 -1,-5 -5,-5 -7,-8l-212 113c27,38 103,92 155,106l119 49c-179,61 -407,84 -555,-42 -76,-64 -105,-101 -160,-176 -55,-76 -34,-112 8,-262 26,-92 43,-184 69,-260 100,-297 127,-438 320,-692l-95 552c-27,43 -10,46 -18,94 -6,31 -14,67 -19,92 -18,66 -27,133 -9,195l116 382 293 -154c70,-37 -141,-396 -139,-398 7,-6 8,-9 19,-18l23 -27 7 31c-4,62 -6,18 15,29 14,-28 4,-4 28,-17l85 -47 -5 -16c32,-3 16,3 47,-13 29,-16 16,-14 52,-26l-8 -15 29 -5c66,-46 214,-131 311,-102 180,54 155,67 339,13 224,-66 377,124 593,227l18 -61c79,84 150,202 10,281 -26,-45 1,1 -24,-24 -24,84 -42,139 -92,208 -4,6 -22,26 -23,27 -18,16 -7,9 -32,16 -54,-91 -56,-142 -133,-225 -187,-202 -730,-148 -839,-78zm-188 -339c-48,29 -72,48 -132,72l3 -101 83 -457c65,4 210,2 260,12 64,12 139,61 224,76l-43 230c171,22 138,42 323,-2 10,-66 -26,-161 -34,-232 90,-17 143,-54 217,-71 36,-8 234,-14 263,-8l20 67c21,115 80,398 66,480 -31,-1 -347,-172 -401,-199 -72,3 -162,32 -234,45 -86,15 -146,-10 -228,-26 -228,-44 -239,101 -387,113zm1124 -2050l-16 52 63 -15c64,-58 251,-51 340,-32 54,11 114,31 164,49 55,19 106,46 160,62 -11,-26 -13,-32 -25,-50l-68 -81c-28,-29 -4,-15 -36,-39 -60,-44 -113,-76 -189,-97 -89,-24 -163,-26 -251,7 -37,14 -62,31 -86,51 -27,22 -48,42 -57,93zm-1807 39l-7 26 -23 43c43,-2 124,-43 172,-60 367,-132 464,-1 551,3 -3,-34 -10,-78 -29,-105 -68,-94 -196,-126 -312,-112 -242,30 -286,179 -351,203zm2758 589c-32,41 -86,90 -124,126 -43,41 -98,106 -143,140 -56,42 -235,199 -305,228l1 -1 -29 6c-63,-94 -298,-351 -344,-460l67 -121c95,32 263,154 350,169 78,-26 155,-60 226,-92 62,-29 153,-88 209,-108l94 114zm-194 2054c-103,142 -215,271 -411,267 -80,-2 -234,-12 -299,-44 113,-67 195,-71 306,-204 44,-53 152,-260 160,-355 8,-99 -154,-720 -153,-868 146,88 347,755 388,950 25,116 68,172 8,254zm-1822 -1575c-1,-23 261,-717 336,-844l142 -206c27,-30 6,-9 27,-22 116,102 236,364 286,507 209,598 295,565 103,580 -11,-40 -16,-69 -41,-101 -369,180 -354,116 -544,65 -70,-19 -108,-53 -167,-68l-38 106 -103 -18zm762 207c104,-32 165,-104 250,0l-35 8c-37,11 -52,28 -82,62 104,48 202,-65 257,-101 -11,-79 -104,-215 -139,-303 50,34 231,221 257,297 -24,50 -74,113 -134,158 -57,43 -121,72 -209,82 -48,-29 -59,-45 -113,-64 -58,43 -102,57 -186,70 -35,5 -203,26 -213,-3 -82,13 -172,-27 -230,-67 -41,15 -62,38 -102,63 -90,23 -291,-111 -348,-238 45,-110 238,-280 257,-303 -12,71 -107,210 -139,291 1,46 152,155 263,122l-54 -66 -71 -1c95,-119 196,-14 346,16 156,31 281,11 427,-22zm-47 -1204c-68,-129 -68,-120 -30,-283 21,-90 58,-198 105,-268l105 189 803 -123 102 94c101,100 221,194 248,343 -67,-22 -120,-60 -204,-58 17,56 56,106 64,167 -15,123 -342,208 -403,249 49,27 113,17 167,13 55,-4 104,-11 158,-17 -24,30 -60,48 -106,69 -38,18 -71,26 -112,37 -128,35 -139,56 -240,-2 -74,-42 -337,-211 -395,-228l-27 325 -237 -506zm-1633 -259c6,-20 -6,-6 19,-38l147 -140c24,-22 34,-20 60,-52l802 125 105 -192c52,82 108,241 118,351l8 42c12,77 -100,263 -141,343 -31,60 -134,286 -149,334l-26 -338 -75 46 -85 39c-52,50 -178,108 -232,144 -114,93 -299,-31 -461,-100 93,9 263,52 333,4 -93,-47 -234,-81 -312,-131 -100,-64 -131,-159 -38,-254 -14,-33 41,-48 -66,-25l-139 60c22,-98 74,-170 132,-218zm2043 -466c40,-7 239,54 272,80l-434 164c-2,-3 -5,-6 -7,-8l-41 -61c-19,-34 -28,-39 -41,-72l250 -103zm-1520 78c31,-19 229,-90 271,-80 76,18 172,72 254,93 -10,43 -58,111 -85,154l-439 -167zm-672 310c-8,23 13,-3 -17,28l-208 240c-24,35 -42,59 -63,98 -39,71 -5,203 -13,291 -9,94 -18,192 -29,288 -27,254 -67,284 111,498 53,64 140,163 202,209 28,21 16,13 40,35 15,13 66,49 97,66l17 596c-15,-64 -63,-371 -82,-406 -14,-26 -256,-203 -272,-205l10 91 129 1092 860 642c21,17 9,10 34,28 53,38 96,71 150,111 184,133 88,108 325,108 18,-28 171,-16 212,-17l429 12 111 2c21,-37 510,-389 587,-448l588 -444 140 -1175c-52,12 -107,69 -149,98 -202,144 -110,84 -210,506l20 -587c213,-176 100,-67 306,-276 30,-30 99,-126 125,-172 58,-100 44,-96 30,-227 -16,-148 -52,-397 -45,-535 7,-120 23,-144 -41,-233 -28,-39 -107,-143 -114,-168 -24,-7 -14,13 -22,-17 -47,-34 -87,-76 -118,-109l-117 -107c-305,-252 -595,-309 -932,-400l-71 -9c-226,-31 -411,-25 -637,-26 -270,10 -562,70 -793,164 -120,49 -209,93 -314,159l-278 200z"/>
  <path class="fil0 str0" d="M14112 7726c511,-123 1047,-101 1541,47 305,123 1007,715 1073,1060 -43,-53 -62,-95 -114,-148 -51,-50 -67,-79 -117,-124 -477,-476 -1315,-750 -2016,-602 -407,31 -910,209 -1227,463 -103,83 -178,151 -261,258 -22,29 -39,46 -60,76 -20,29 -41,58 -63,79 67,-166 148,-275 254,-416 213,-285 652,-612 990,-693zm1885 78c-301,-206 -751,-297 -1083,-297 -766,-44 -1537,246 -1975,908 -99,147 -174,267 -236,435l-66 153c-10,-190 95,-394 170,-557 128,-278 441,-618 707,-785 487,-304 1069,-387 1645,-323 306,38 492,101 698,205 91,46 186,101 297,165 190,132 210,175 351,321 176,182 479,694 463,971l-28 -53c-8,-22 -15,-39 -25,-62 -232,-484 -414,-767 -919,-1081zm-2350 4350c92,69 181,138 226,173 42,33 79,61 120,91l241 182c56,42 71,73 164,61l159 17c142,8 252,11 395,5 93,-4 325,1 365,-52l30 -24c39,-21 74,-50 111,-79 42,-33 77,-55 107,-79 41,-33 400,-309 568,-430 118,-99 454,-353 490,-439l190 -1297c3,-20 72,-142 68,-182 -4,-41 -10,-140 -13,-193 -10,-215 47,-571 222,-714 40,-388 -140,-730 -334,-1052 -1140,-1410 -2649,-830 -2674,-863 -987,204 -1423,1044 -1589,1839 3,5 7,9 10,14 88,113 270,117 260,260l-42 596c7,104 113,99 127,267l119 1423 622 426c21,15 40,32 55,51zm874 318c-237,0 -142,25 -325,-108 -54,-39 -97,-72 -150,-111 -25,-18 -13,-11 -34,-28l-860 -642 -129 -1092 -10 -91c17,1 258,178 272,205 19,35 67,342 82,406l-17 -596c-31,-17 -83,-53 -97,-66 -24,-22 -12,-15 -40,-35 -62,-45 -149,-145 -202,-209 -178,-214 -138,-243 -111,-498 10,-96 20,-194 29,-288 8,-89 -26,-221 13,-291 21,-39 39,-62 63,-98l208 -240c86,-85 192,-153 295,-227 105,-66 194,-110 314,-159 231,-94 523,-154 793,-164 227,1 411,-5 637,26l71 9c338,91 627,148 932,400l117 107c102,111 159,165 253,295 64,88 48,112 41,233 -8,138 29,387 45,535 14,131 27,127 -30,227 -27,46 -96,142 -125,172 -206,209 -93,100 -306,276l-20 587c100,-422 8,-362 210,-506 42,-30 97,-86 149,-98l-140 1175 -588 444c-77,58 -566,411 -587,448l-111 -2 -429 -12c-41,1 -194,-11 -212,17zm-1547 -2000c-12,6 -24,12 -36,18l36 -18zm1395 640c90,-35 169,-108 283,-105 80,2 338,-10 390,14 223,102 336,191 503,278l-1 33c24,24 -3,-21 24,24 140,-79 69,-196 -10,-281l-18 61c-217,-104 -370,-293 -593,-227 -184,54 -159,41 -339,-13 -98,-29 -245,56 -311,102l-29 5 8 15c-37,12 -24,10 -52,26 -30,16 -15,11 -47,13l5 16 -85 47c-24,13 -14,-10 -28,17 -20,-12 -19,33 -15,-29l-7 -31 -23 27c-11,9 -12,12 -19,18 -5,4 -11,13 -12,10 -1,-2 -4,3 -6,4l-41 103c4,68 30,71 64,112l34 1c6,-60 7,-28 17,-41 7,-21 -12,-2 13,-20 4,-3 21,-9 26,-11 42,-36 77,-46 112,-79 23,-11 48,-24 60,-36l98 -52zm69 288l5 13c-76,35 -43,61 -78,122 9,40 -22,37 24,29 329,-93 519,-64 846,4 -34,-278 -363,-323 -594,-279 -126,24 -138,83 -202,111zm272 -989c10,29 179,9 213,3 85,-13 129,-27 186,-70 54,19 65,35 113,64 89,-10 153,-39 209,-82 60,-45 110,-108 134,-158 -27,-76 -207,-263 -257,-297 35,89 128,224 139,303 -55,36 -153,149 -257,101 30,-34 46,-51 82,-62l35 -8c-84,-104 -146,-32 -250,0 -146,34 -271,53 -427,22 -150,-30 -251,-135 -346,-16l71 1 54 66c-111,32 -262,-76 -263,-122 32,-82 127,-220 139,-291 -19,24 -212,193 -257,303 58,127 258,262 348,238 41,-25 62,-48 102,-63 58,40 148,80 230,67zm-465 -1187l75 -46 26 338c15,-48 118,-274 149,-334 41,-79 153,-265 141,-343l-8 -42c-10,-111 -66,-269 -118,-351l-105 192 -802 -125c-26,32 -35,30 -60,52l-147 140c-62,76 -128,155 -151,256l139 -60c107,-22 52,-7 66,25 -93,95 -63,190 38,254 78,50 219,84 312,131 -71,48 -241,5 -333,-4 133,73 316,198 461,100 54,-37 181,-95 232,-144l85 -39zm-340 -497c116,-14 244,18 312,112 19,26 26,71 29,105 -88,-5 -184,-135 -551,-3 -47,17 -129,58 -172,60 70,-125 212,-242 382,-273zm1456 164c9,-51 30,-71 57,-93 25,-20 50,-37 86,-51 88,-33 163,-30 251,-7 77,20 130,52 189,97 32,24 8,10 36,39l68 81c12,18 14,24 25,50 -53,-16 -105,-43 -160,-62 -51,-18 -110,-37 -164,-49 -89,-18 -276,-25 -340,32l-63 15 16 -52zm-114 616l27 -325c57,17 321,186 395,228 101,58 111,37 240,2 41,-11 75,-19 112,-37 45,-21 82,-39 106,-69 -55,6 -104,13 -158,17 -54,4 -118,14 -167,-13 61,-41 387,-126 403,-249 -8,-61 -47,-111 -64,-167 84,-2 137,37 204,58 -27,-148 -148,-243 -248,-343l-102 -94 -803 123 -105 -189c-47,70 -84,178 -105,268 -38,162 -38,153 30,283l237 506z"/>
  <path class="fil2" d="M15173 8378c13,33 22,38 41,72l41 61c1,2 4,5 7,8l434 -164c-33,-25 -232,-87 -272,-80l-250 103zm-1063 2532l-3 101c61,-24 84,-42 132,-72 148,-12 159,-157 387,-113 82,16 141,41 228,26 72,-13 162,-42 234,-45 53,27 370,198 401,199 14,-82 -45,-365 -66,-480l-20 -67c-30,-5 -228,0 -263,8 -74,17 -127,54 -217,71 8,71 44,165 34,232 -185,44 -153,24 -323,2l43 -230c-85,-15 -160,-64 -224,-76 -50,-9 -195,-8 -260,-12l-83 457zm260 201l-98 52c-12,12 -37,26 -60,36 -36,32 -71,43 -112,79 -5,2 -22,8 -26,11 -25,17 -6,-1 -13,20 5,13 10,26 10,40 0,3 -1,6 -1,9l-4 32c4,32 20,28 36,82 17,30 20,26 34,52 2,3 6,3 7,8 5,24 44,50 51,55 23,-26 20,-21 34,-58 22,-58 5,-38 38,-65 23,-65 24,-55 63,-100l99 -84c109,-70 652,-124 839,78 77,83 78,134 133,225 26,-8 14,0 32,-16 1,-1 18,-21 23,-27 50,-69 68,-124 92,-208l1 -33c-167,-87 -281,-175 -503,-278 -52,-24 -310,-11 -390,-14 -114,-3 -193,70 -283,105zm1041 684c64,32 219,43 299,44 195,4 307,-125 411,-267 60,-82 17,-138 -8,-254 -41,-194 -242,-862 -388,-950 -1,148 161,769 153,868 -8,95 -116,302 -160,355 -111,133 -194,137 -306,204zm-1154 174c56,44 176,60 258,79 78,18 206,43 289,42 107,-1 486,-70 542,-121 -40,-84 -125,-139 -216,-188 -65,-35 -240,-89 -326,-89 -205,0 -484,140 -546,277zm-178 -226c-52,-14 -127,-78 -154,-115 -26,-17 -45,-35 -59,-68 -50,-42 -54,-74 -76,-127 -27,-62 -37,-67 -53,-141 -18,-62 -8,-129 9,-195 5,-24 14,-61 19,-92 9,-48 -9,-50 18,-94l95 -552c-193,254 -220,395 -320,692 -26,76 -43,168 -69,260 -42,150 -64,186 -8,262 55,76 85,112 160,176 148,126 376,103 555,42l-119 -49zm220 -1746l103 18 38 -106c59,15 97,49 167,68 189,51 175,115 544,-65 25,31 30,61 41,101 192,-15 106,18 -103,-580 -50,-144 -170,-405 -286,-507 -20,13 1,-8 -27,22l-142 206c-74,127 -337,821 -336,844zm-987 -492c11,55 178,191 236,240 32,27 21,12 25,36 33,20 41,27 65,50 41,18 68,53 113,84 43,29 78,69 125,83 40,-2 44,-19 98,-89 76,-98 206,-254 256,-351l-62 -125c-65,20 -118,63 -190,95 -130,58 -111,129 -413,-24 -60,-31 -135,-80 -198,-102l-56 103zm2432 504c57,-12 249,-181 306,-224 44,-33 97,-95 139,-135 39,-37 98,-91 127,-132l-94 -115c-55,20 -146,79 -209,108 -70,33 -147,66 -226,92 -87,-14 -255,-136 -350,-169l-67 121c46,109 281,365 344,460l29 -6zm-1840 -1657l439 167c27,-42 75,-111 85,-154 -82,-21 -178,-75 -254,-93 -41,-10 -240,61 -271,80z"/>
  <path class="fil4" d="M14687 7116l-150 -228c-139,-186 -393,-452 -607,-536 -13,8 -15,-14 -8,17 10,140 132,396 187,505 45,89 182,279 252,352 17,17 26,21 42,41l22 22c-21,-8 -7,-4 -22,-11 -210,-97 -315,-107 -570,-120l-32 24c125,172 376,322 671,367 -111,53 -216,37 -419,221 131,21 314,17 436,-20 236,-73 262,-129 341,-160 39,57 240,134 323,159 137,41 288,39 438,24 -28,-42 -131,-103 -188,-134 -89,-48 -144,-52 -232,-88 253,-48 452,-132 621,-310 27,-28 51,-38 52,-75 -111,-14 -232,-6 -335,20 -103,25 -181,65 -273,92 16,-30 164,-164 300,-411 56,-101 184,-389 194,-525 -76,32 -177,107 -240,155 -80,60 -146,119 -212,187 -197,201 -208,262 -330,466 18,-253 71,-329 31,-669 -17,-149 -86,-473 -161,-559 -123,297 -175,538 -162,872 4,96 36,244 32,322z"/>
  <path class="fil5" d="M13802 7183l32 -24 -38 4c-13,39 -3,4 6,19z"/>
  <path class="fil6" d="M13923 6369c-7,-31 -6,-9 8,-17l-23 -18c8,46 6,24 15,34z"/>
  <path class="fil0 str0" d="M15237 7278c93,-27 171,-67 273,-92 103,-25 224,-34 335,-20 -1,37 -25,46 -52,75 -169,178 -368,262 -621,310 87,36 143,40 232,88 58,31 161,92 188,134 -150,14 -301,17 -438,-24 -83,-25 -284,-102 -323,-159 -79,31 -105,87 -341,160 -123,38 -305,42 -436,20 203,-184 307,-168 419,-221 -295,-46 -546,-195 -671,-367 -9,-15 -19,20 -6,-19l38 -4c255,12 359,23 570,120l0 -11c-16,-20 -26,-24 -42,-41 -69,-73 -207,-263 -252,-352 -55,-109 -177,-364 -187,-505 -10,-10 -8,12 -15,-34l23 18c214,84 468,350 607,536l150 228c4,-78 -29,-226 -32,-322 -12,-334 39,-575 162,-872 75,86 144,410 161,559 40,340 -13,416 -31,669 123,-203 133,-264 330,-466 66,-68 133,-127 212,-187 63,-48 164,-122 240,-154 -9,135 -138,423 -194,525 -137,247 -285,382 -300,411zm-343 474c124,64 238,113 396,122 192,10 317,-5 489,-42 -30,-60 -162,-167 -216,-211 -18,-14 -21,-16 -39,-26l-44 -35c119,-35 248,-109 323,-177 70,-63 176,-163 217,-276 -107,-80 -350,-28 -480,-22l-30 12 19 -21c27,-67 109,-179 191,-390 52,-133 104,-328 110,-490 -139,31 -323,153 -419,224 -111,82 -241,210 -324,317 -32,-309 14,-430 -144,-783 -51,-113 -64,-112 -122,-195l-3 0c-10,15 -4,7 -15,21 -53,67 -64,94 -102,168 -75,145 -112,329 -132,491 -12,99 -6,202 -17,296 -18,-18 -17,-21 -30,-38 -166,-210 -456,-420 -707,-503 -24,160 118,543 198,698 21,40 30,61 53,99 21,34 45,68 59,102 -84,-18 -157,-32 -250,-32 -47,0 -86,2 -130,9 -48,7 -84,11 -123,36 46,148 238,307 370,380 59,33 112,50 170,80 -63,43 -110,74 -161,119 -26,23 -45,45 -70,70 -13,13 -19,19 -32,32 -23,23 -20,17 -36,45 637,135 787,-55 911,-88 30,-8 93,-4 118,9z"/>
 </g>
</svg>
