<?xml version="1.0" encoding="UTF-8"?>
<!DOCTYPE svg PUBLIC "-//W3C//DTD SVG 1.1//EN" "http://www.w3.org/Graphics/SVG/1.1/DTD/svg11.dtd">
<!-- Creator: CorelDRAW X6 -->
<svg xmlns="http://www.w3.org/2000/svg" xml:space="preserve" width="297mm" height="210mm" version="1.1" style="shape-rendering:geometricPrecision; text-rendering:geometricPrecision; image-rendering:optimizeQuality; fill-rule:evenodd; clip-rule:evenodd"
viewBox="0 0 29700 21000"
 xmlns:xlink="http://www.w3.org/1999/xlink">
 <defs>
  <style type="text/css">
   <![CDATA[
    .str0 {stroke:#7B8C30;stroke-width:7.62}
    .str1 {stroke:#A8B958;stroke-width:7.62}
    .fil0 {fill:#7B8C30}
    .fil1 {fill:#A8B958}
   ]]>
  </style>
 </defs>
 <g id="Capa_x0020_1">
  <metadata id="CorelCorpID_0Corel-Layer"/>
  <path class="fil0 str0" d="M13865 9131c543,169 3089,-4 3909,57 113,447 81,2347 123,3023 22,357 137,418 355,601l-1 287c-572,294 -352,80 -624,-22 -284,-5 -761,124 -1073,170 -717,105 -1560,102 -2276,-9 -1509,-234 -675,-221 -1349,44l-296 -188 0 -281c245,-209 336,-248 355,-663 15,-335 11,-669 23,-1003 15,-428 15,-1633 97,-1959 239,-18 270,26 469,-80 -125,-337 -176,-129 -574,-189 -301,-45 -105,-26 -186,-86 -143,-151 -76,-780 -31,-959 359,-75 4953,-75 5312,0 61,243 162,947 -160,1034l-3183 12c-680,0 -868,-95 -888,210zm1395 -2862c8,22 17,44 28,66 -202,4 -444,90 -586,168 -185,101 -272,255 -434,364 -201,-4 -320,-81 -569,-37 -333,58 -908,396 -946,793 -94,37 -174,107 -226,235 -101,251 -231,1150 290,1289 0,364 -55,469 -65,747l-60 2438c-25,82 -597,494 -228,977 270,353 646,202 915,22 695,334 3427,334 4122,0 623,417 995,39 1038,-331 34,-295 -229,-487 -351,-668l-60 -2376c-4,-315 -65,-427 -65,-810 547,-146 481,-1365 28,-1551 -6,-13 -13,-29 -23,-50 -25,-56 -79,-159 -112,-202 -42,-56 -277,-288 -336,-329 -84,-57 -328,-151 -443,-178 -258,-60 -397,24 -605,29 -121,-35 -234,-350 -752,-489 -80,-21 -221,-20 -302,-70 -84,41 -187,28 -259,-39zm-2283 1314c352,-762 1176,-501 1390,-494 557,-765 1551,-765 2108,0 217,-7 1041,-267 1392,498l-134 0c-35,13 -73,20 -112,20l-184 0c-45,0 -88,-9 -126,-25l4 6 -3665 0c-27,12 -54,20 -82,29 -100,39 -229,28 -319,-30 -87,0 -181,-7 -272,-4z"/>
  <path class="fil1 str1" d="M16366 7310c-100,108 -3,78 -141,64 -5,-10 -137,-18 30,-178 156,65 66,11 111,114zm-1008 -355c58,238 192,142 160,-8 -84,-45 -85,-36 -160,8zm39 419c101,10 77,29 95,-3l9 -2c8,-15 15,-28 19,-38 5,-6 11,-13 18,-20 -3,-6 -5,-12 -7,-17 1,-11 -2,-21 -8,-32 -2,-24 9,-22 -19,-34l-11 -19 -22 6 -45 -18c-166,160 -35,168 -30,178zm-1553 -165c44,76 54,72 8,160 -149,32 -246,-103 -8,-160zm2027 -253c75,-43 76,-52 160,-8 32,150 -103,246 -160,8zm-2909 709l4957 0c-328,-860 -1200,-584 -1424,-576 -557,-765 -1551,-765 -2108,0 -221,-7 -1095,-286 -1424,576z"/>
  <path class="fil1" d="M15271 11364l-187 -285c-173,-233 -491,-564 -759,-670 -17,10 -18,-17 -10,21 13,176 165,495 234,631 57,112 228,349 315,440 21,22 33,27 53,52l28 28c-26,-10 -9,-6 -28,-14 -263,-121 -393,-134 -712,-150l-41 30c156,215 469,402 838,459 -139,66 -270,46 -523,276 164,26 392,21 545,-26 295,-91 327,-161 426,-200 49,71 300,168 403,199 171,51 360,48 547,30 -34,-53 -163,-129 -235,-168 -111,-60 -180,-64 -290,-110 316,-60 565,-165 776,-388 34,-36 64,-47 65,-94 -139,-18 -290,-7 -418,25 -128,32 -226,81 -342,115 20,-37 205,-205 375,-514 70,-126 230,-486 242,-655 -95,40 -221,133 -300,193 -99,75 -183,149 -265,234 -246,252 -260,328 -413,582 23,-316 89,-411 39,-836 -22,-186 -108,-591 -201,-698 -154,371 -218,672 -203,1090 4,120 45,305 40,403z"/>
 </g>
</svg>
