<?xml version="1.0" encoding="UTF-8"?>
<!DOCTYPE svg PUBLIC "-//W3C//DTD SVG 1.1//EN" "http://www.w3.org/Graphics/SVG/1.1/DTD/svg11.dtd">
<!-- Creator: CorelDRAW X6 -->
<svg xmlns="http://www.w3.org/2000/svg" xml:space="preserve" width="80mm" height="80mm" version="1.1" style="shape-rendering:geometricPrecision; text-rendering:geometricPrecision; image-rendering:optimizeQuality; fill-rule:evenodd; clip-rule:evenodd"
viewBox="0 0 8000 8000"
 xmlns:xlink="http://www.w3.org/1999/xlink">
 <defs>
  <style type="text/css">
   <![CDATA[
    .str1 {stroke:#FEFEFE;stroke-width:7.62}
    .str0 {stroke:#8C9C46;stroke-width:10}
    .fil2 {fill:none}
    .fil1 {fill:#FEFEFE}
    .fil0 {fill:#8C9C46}
   ]]>
  </style>
 </defs>
 <g id="Capa_x0020_1">
  <metadata id="CorelCorpID_0Corel-Layer"/>
  <rect class="fil0 str0" x="627" y="670" width="6845" height="6845" rx="1571" ry="1571"/>
  <path class="fil1" d="M2890 1567l2319 0c751,0 1365,614 1365,1365l0 2319c0,751 -614,1365 -1365,1365l-2319 0c-751,0 -1365,-614 -1365,-1365l0 -2319c0,-751 614,-1365 1365,-1365zm189 411l1941 0c629,0 1143,514 1143,1143l0 1941c0,629 -514,1143 -1143,1143l-1941 0c-629,0 -1143,-514 -1143,-1143l0 -1941c0,-629 514,-1143 1143,-1143z"/>
  <path class="fil1" d="M4040 2783c718,0 1300,582 1300,1300 0,718 -582,1300 -1300,1300 -718,0 -1300,-582 -1300,-1300 0,-718 582,-1300 1300,-1300zm0 449c470,0 851,381 851,851 0,470 -381,851 -851,851 -470,0 -851,-381 -851,-851 0,-470 381,-851 851,-851z"/>
  <circle class="fil2 str1" cx="5387" cy="2773" r="309"/>
 </g>
</svg>
