<?xml version="1.0" encoding="UTF-8"?>
<!DOCTYPE svg PUBLIC "-//W3C//DTD SVG 1.1//EN" "http://www.w3.org/Graphics/SVG/1.1/DTD/svg11.dtd">
<!-- Creator: CorelDRAW X6 -->
<svg xmlns="http://www.w3.org/2000/svg" xml:space="preserve" width="297mm" height="210mm" version="1.1" style="shape-rendering:geometricPrecision; text-rendering:geometricPrecision; image-rendering:optimizeQuality; fill-rule:evenodd; clip-rule:evenodd"
viewBox="0 0 29700 21000"
 xmlns:xlink="http://www.w3.org/1999/xlink">
 <defs>
  <style type="text/css">
   <![CDATA[
    .str1 {stroke:#4D6631;stroke-width:7.62}
    .str0 {stroke:#4D6631;stroke-width:20}
    .fil0 {fill:#4D6631}
   ]]>
  </style>
 </defs>
 <g id="Capa_x0020_1">
  <metadata id="CorelCorpID_0Corel-Layer"/>
  <path class="fil0 str0" d="M15129 7961l989 409 989 409 409 989 409 989 -409 989 -409 989 -989 409 -989 409 -989 -409 -989 -409 -409 -989 -409 -989 409 -989 409 -989 989 -409 989 -409zm0 284l888 368 888 368 368 888 368 888 -368 888 -368 888 -888 368 -888 368 -888 -368 -888 -368 -368 -888 -368 -888 368 -888 368 -888 888 -368 888 -368z"/>
  <path class="fil0 str0" d="M15129 8473l808 335 808 335 335 808 335 808 -335 808 -335 808 -808 335 -808 335 -808 -335 -808 -335 -335 -808 -335 -808 335 -808 335 -808 808 -335 808 -335zm0 227l727 301 727 301 301 727 301 727 -301 727 -301 727 -727 301 -727 301 -727 -301 -727 -301 -301 -727 -301 -727 301 -727 301 -727 727 -301 727 -301z"/>
  <path class="fil0 str0" d="M15129 8965l633 262 633 262 262 633 262 633 -262 633 -262 633 -633 262 -633 262 -633 -262 -633 -262 -262 -633 -262 -633 262 -633 262 -633 633 -262 633 -262zm0 180l570 236 570 236 236 570 236 570 -236 570 -236 570 -570 236 -570 236 -570 -236 -570 -236 -236 -570 -236 -570 236 -570 236 -570 570 -236 570 -236z"/>
  <path class="fil0 str1" d="M15130 9300c61,0 110,49 110,110 0,61 -49,110 -110,110 -61,0 -110,-49 -110,-110 0,-61 49,-110 110,-110zm0 50c33,0 60,27 60,60 0,33 -27,60 -60,60 -33,0 -60,-27 -60,-60 0,-33 27,-60 60,-60z"/>
  <path class="fil0 str0" d="M14364 11054l1534 0c65,0 118,53 118,118l0 379c0,65 -53,118 -118,118l-1534 0c-65,0 -118,-53 -118,-118l0 -379c0,-65 53,-118 118,-118zm91 110l1351 0c42,0 76,34 76,76l0 246c0,42 -34,76 -76,76l-1351 0c-42,0 -76,-34 -76,-76l0 -246c0,-42 34,-76 76,-76z"/>
  <rect class="fil0 str0" x="15025" y="9692" width="213" height="2154"/>
  <path class="fil0 str0" d="M14364 9835l185 0c11,771 1235,666 1184,4l160 0c6,1000 -1591,853 -1528,-4z"/>
  <path class="fil0 str1" d="M15130 11972c61,0 110,49 110,110 0,61 -49,110 -110,110 -61,0 -110,-49 -110,-110 0,-61 49,-110 110,-110zm0 50c33,0 60,27 60,60 0,33 -27,60 -60,60 -33,0 -60,-27 -60,-60 0,-33 27,-60 60,-60z"/>
  <path class="fil0 str1" d="M16097 11603c61,0 110,49 110,110 0,61 -49,110 -110,110 -61,0 -110,-49 -110,-110 0,-61 49,-110 110,-110zm0 50c33,0 60,27 60,60 0,33 -27,60 -60,60 -33,0 -60,-27 -60,-60 0,-33 27,-60 60,-60z"/>
  <path class="fil0 str1" d="M14177 11603c61,0 110,49 110,110 0,61 -49,110 -110,110 -61,0 -110,-49 -110,-110 0,-61 49,-110 110,-110zm0 50c33,0 60,27 60,60 0,33 -27,60 -60,60 -33,0 -60,-27 -60,-60 0,-33 27,-60 60,-60z"/>
  <path class="fil0 str1" d="M14177 9712c61,0 110,49 110,110 0,61 -49,110 -110,110 -61,0 -110,-49 -110,-110 0,-61 49,-110 110,-110zm0 50c33,0 60,27 60,60 0,33 -27,60 -60,60 -33,0 -60,-27 -60,-60 0,-33 27,-60 60,-60z"/>
  <path class="fil0 str1" d="M16068 9712c61,0 110,49 110,110 0,61 -49,110 -110,110 -61,0 -110,-49 -110,-110 0,-61 49,-110 110,-110zm0 50c33,0 60,27 60,60 0,33 -27,60 -60,60 -33,0 -60,-27 -60,-60 0,-33 27,-60 60,-60z"/>
  <path class="fil0 str1" d="M16438 10650c61,0 110,49 110,110 0,61 -49,110 -110,110 -61,0 -110,-49 -110,-110 0,-61 49,-110 110,-110zm0 50c33,0 60,27 60,60 0,33 -27,60 -60,60 -33,0 -60,-27 -60,-60 0,-33 27,-60 60,-60z"/>
  <path class="fil0 str1" d="M13779 10650c61,0 110,49 110,110 0,61 -49,110 -110,110 -61,0 -110,-49 -110,-110 0,-61 49,-110 110,-110zm0 50c33,0 60,27 60,60 0,33 -27,60 -60,60 -33,0 -60,-27 -60,-60 0,-33 27,-60 60,-60z"/>
  <path class="fil0 str1" d="M8830 10320l320 -7 -156 825c-10,78 14,124 124,94 83,-23 136,-65 210,-149 -85,181 -215,342 -419,347 -200,5 -248,-116 -235,-263l156 -846z"/>
  <path class="fil0 str1" d="M9434 10327l320 -7 -156 825c-10,78 14,124 124,94 83,-23 136,-65 210,-149 -85,181 -215,342 -419,347 -200,5 -248,-116 -235,-263l156 -846z"/>
  <path class="fil0 str1" d="M10863 9901l338 -28 -252 1258c-10,78 14,124 124,94 83,-23 136,-65 210,-149 -85,181 -215,342 -419,347 -200,5 -248,-116 -235,-263l235 -1258z"/>
  <path class="fil0 str1" d="M19394 10320l320 -7 -156 825c-10,78 14,124 124,94 83,-23 136,-65 210,-149 -85,181 -215,342 -419,347 -200,5 -248,-116 -235,-263l156 -846z"/>
  <ellipse class="fil0 str1" cx="19618" cy="10027" rx="174" ry="179"/>
  <path class="fil0 str1" d="M21406 10466c-73,-69 -214,-1 -261,103 -85,189 -135,387 -55,594 32,83 165,110 227,14 84,-129 94,-230 114,-384 -58,1 -80,-56 -75,-108 11,-109 103,-153 156,-156 57,-3 88,13 84,57 39,33 79,-14 137,-105 5,111 -26,209 -135,277 -72,279 -91,683 -512,690 -216,4 -354,-103 -341,-526 48,-316 189,-501 398,-590 153,-60 305,-57 398,50 70,81 -36,179 -135,85z"/>
  <path class="fil0 str1" d="M11809 10452c-73,-69 -214,-1 -261,103 -85,189 -135,387 -55,594 32,83 165,110 227,14 84,-129 94,-230 114,-384 -58,1 -80,-56 -75,-108 11,-109 103,-153 156,-156 57,-3 88,13 84,57 39,33 79,-14 137,-105 5,111 -26,209 -135,277 -72,279 -91,683 -512,690 -216,4 -354,-103 -341,-526 48,-316 189,-501 398,-590 153,-60 305,-57 398,50 70,81 -36,179 -135,85z"/>
  <path class="fil0 str1" d="M8015 10862c25,40 12,49 -32,34 -142,-32 -219,45 -212,216 7,182 95,223 242,230 123,6 232,-91 214,-363 -9,-136 -58,-268 -179,-359 -171,-127 -320,-257 -313,-434 10,-242 168,-348 331,-389 206,-52 434,-78 537,91 115,190 12,375 -142,372 -152,-3 -167,-59 -69,-84 69,-18 106,-113 79,-186 -48,-129 -177,-168 -309,-66 -96,75 -85,275 -31,324l313 288c122,127 143,260 134,432 -8,159 -58,326 -185,399 -178,102 -382,90 -578,52 -206,-40 -358,-194 -301,-406 75,-280 362,-305 503,-151z"/>
  <path class="fil0 str1" d="M10130 10981c315,-36 571,-254 469,-546 -71,-204 -332,-232 -566,-8 -167,160 -223,384 -235,641 -7,150 40,256 149,306 137,62 282,80 434,-7 190,-110 335,-265 377,-503 -99,170 -221,343 -443,402 -241,64 -271,-275 -185,-284zm-7 -110c32,-168 84,-283 190,-407 83,-97 222,-54 151,171 -59,187 -197,269 -341,236z"/>
  <path class="fil0 str1" d="M18479 11435l320 0 631 -1661 -203 0 -441 1331 -2 -1331c-473,-38 -831,122 -864,615 -11,170 312,316 188,50 -40,-268 373,-640 373,-537l-3 1533z"/>
  <path class="fil0 str1" d="M19991 10320l320 -7 -156 825c17,291 457,-182 423,-618 0,-5 -87,-18 -108,-45 -85,-106 16,-236 131,-195 294,105 -18,820 -2,803 -85,181 -325,342 -530,347 -200,5 -248,-116 -235,-263l156 -846z"/>
 </g>
</svg>
