<?xml version="1.0" encoding="UTF-8"?>
<!DOCTYPE svg PUBLIC "-//W3C//DTD SVG 1.1//EN" "http://www.w3.org/Graphics/SVG/1.1/DTD/svg11.dtd">
<!-- Creator: CorelDRAW X6 -->
<svg xmlns="http://www.w3.org/2000/svg" xml:space="preserve" width="80mm" height="80mm" version="1.1" style="shape-rendering:geometricPrecision; text-rendering:geometricPrecision; image-rendering:optimizeQuality; fill-rule:evenodd; clip-rule:evenodd"
viewBox="0 0 8000 8000"
 xmlns:xlink="http://www.w3.org/1999/xlink">
 <defs>
  <style type="text/css">
   <![CDATA[
    .str1 {stroke:#FEFEFE;stroke-width:7.62}
    .str0 {stroke:#8C9C46;stroke-width:10}
    .fil1 {fill:#FEFEFE}
    .fil0 {fill:#8C9C46}
   ]]>
  </style>
 </defs>
 <g id="Capa_x0020_1">
  <metadata id="CorelCorpID_0Corel-Layer"/>
  <rect class="fil0 str0" x="527" y="517" width="6934" height="6934" rx="1591" ry="1591"/>
  <path class="fil1 str1" d="M4069 1436c1355,0 2453,1098 2453,2453 0,1355 -1098,2453 -2453,2453 -407,0 -791,-99 -1128,-274l-1353 350 377 -1267c-222,-369 -349,-800 -349,-1262 0,-1355 1098,-2453 2453,-2453zm-2 391c1218,57 2030,755 2068,2068 38,1313 -1278,2144 -2068,2068 -790,-76 -823,-193 -1108,-340l-767 201 200 -760c-187,-311 -327,-393 -384,-1168 -57,-775 841,-2125 2058,-2068z"/>
  <path class="fil1 str1" d="M3592 3526c187,-114 -103,-1116 -564,-649 -201,157 -251,402 -123,748 337,744 876,1261 1705,1449 272,41 501,-28 673,-246 119,-210 115,-359 -38,-436l-350 -161c-122,-73 -238,-73 -341,133 -156,425 -1392,-493 -961,-838z"/>
 </g>
</svg>
