<?xml version="1.0" encoding="UTF-8"?>
<!DOCTYPE svg PUBLIC "-//W3C//DTD SVG 1.1//EN" "http://www.w3.org/Graphics/SVG/1.1/DTD/svg11.dtd">
<!-- Creator: CorelDRAW X6 -->
<svg xmlns="http://www.w3.org/2000/svg" xml:space="preserve" width="297mm" height="210mm" version="1.1" style="shape-rendering:geometricPrecision; text-rendering:geometricPrecision; image-rendering:optimizeQuality; fill-rule:evenodd; clip-rule:evenodd"
viewBox="0 0 29700 21000"
 xmlns:xlink="http://www.w3.org/1999/xlink">
 <defs>
  <style type="text/css">
   <![CDATA[
    .str0 {stroke:#75632D;stroke-width:7.62}
    .fil0 {fill:#75632D}
   ]]>
  </style>
 </defs>
 <g id="Capa_x0020_1">
  <metadata id="CorelCorpID_0Corel-Layer"/>
  <path class="fil0 str0" d="M4715 15727l786 1673 64 113c95,24 73,45 76,-50 98,-290 686,-1389 873,-1651l2 1579 -182 40c-6,-11 -22,14 -33,21 116,77 423,76 586,58 261,-29 69,-2 153,-58l-215 -55 7 -2156 201 -58c-27,-18 71,-54 -149,-59 -270,-6 -96,16 -167,64 -265,472 -719,1536 -1023,1886l-887 -1890c-40,-24 -41,-41 -138,-60 -132,-26 -237,1 -336,60l78 44c10,5 30,16 39,21l83 2118 -205 87 285 66c91,-1 168,-11 257,-22 -49,-104 0,-36 -95,-98l-101 -51c0,-229 -38,-1543 40,-1621zm14911 1678l-128 86c-564,59 -1076,-403 -1193,-1021 -117,-621 210,-1191 791,-1331 6,-1 133,-30 140,-30 53,-2 71,0 84,5 9,-3 19,-5 31,-9 7,-2 137,-12 143,-13 596,-37 1077,412 1147,1040 70,625 -285,1218 -841,1326l-147 -45c951,-148 808,-2138 -374,-2238 -1039,481 -590,2364 348,2228zm-15682 -2023c60,65 -105,56 84,55l5 -242c-76,-77 62,-39 -153,-70l-1059 -1c-55,0 -162,-5 -213,1 -193,22 -90,16 -152,57l223 58 5 2160c-184,11 -115,-15 -223,52 177,112 1551,49 1646,14 50,-143 66,-124 -18,-272 -190,87 -84,322 -138,175 -3,-8 -12,25 -20,39l-955 -8 -5 -1077 696 7c59,128 23,135 139,252l-17 -566c-53,61 -30,25 -78,115 -7,13 -8,138 -31,77 -3,-7 -8,25 -13,34l-694 12 5 -1017 848 -3c10,10 25,24 30,30 5,6 22,23 28,30l44 57c3,-7 12,18 18,28zm9842 2012l-194 59c119,84 362,117 523,-25l-192 -24 -15 -1429c-5,-422 -29,-358 77,-429 48,184 567,826 700,1022 169,249 532,798 738,974l-2 -2304 222 -54c-134,-92 -386,-88 -526,0 51,33 11,21 112,50 14,4 80,4 107,5l-22 1681 -1250 -1683c-109,-130 -263,-158 -456,-53l191 106 -13 2106zm-2246 -3l-253 16 0 0c-411,-27 -405,-147 -508,-463 -127,-385 -129,-361 -359,-603 645,-298 520,-1049 -161,-1172l-312 -51c-378,-1 -578,-51 -744,90l208 81 14 2117 0 2c-206,-7 -93,-39 -205,46 97,71 356,96 552,69l14 0 0 -2c81,-13 151,-35 192,-67 -120,-84 -149,-34 -167,-85 -7,-18 -27,-13 -41,-20l-9 -795c23,-142 -84,-163 103,-163 495,30 403,235 602,696 56,130 184,320 310,384 109,55 440,110 512,-21 98,37 183,64 351,64 4,0 153,-8 154,-8 110,-19 53,-17 105,-53 -120,-76 -9,-55 -222,-48 31,-33 44,-70 40,-79 34,-211 119,-460 238,-634l791 20c-1,-9 -2,-17 -2,-26 1,9 1,18 2,26l134 541 -39 134c-9,6 -27,16 -36,22 -106,76 -12,-24 -84,93 216,10 591,62 747,-66l-215 -67c-32,-274 -281,-879 -381,-1148 -124,-336 -252,-905 -438,-1093l-141 474 21 104 -21 -104 -750 1788zm118 7c-3,5 -5,9 -8,15 -5,5 -23,33 -30,32 2,-3 9,-17 37,-47zm1081 -776c0,-3 0,-6 -1,-9 0,3 1,6 1,9zm-1 -14c0,-3 -1,-6 -1,-9 0,3 1,6 1,9zm-1 -9c0,-3 -1,-6 -1,-9 0,3 1,6 1,9zm-105 -106l0 0c-33,147 58,78 -99,123l-560 -24 337 -886c137,99 249,600 322,786zm-2769 -150c-117,-81 -111,121 -96,-105l8 -971c1,-9 2,-17 3,-26l324 1c270,65 447,299 388,681 -56,363 -257,382 -626,420zm-2362 -1161l0 0 8 1205 -8 -1205zm288 -9l7 0c-33,144 -51,615 -52,1096 1,-462 16,-915 45,-1096zm-45 1282c3,448 19,868 50,1002l-6 0c-27,-165 -41,-572 -44,-1002zm508 936l-433 11 -18 -850c13,-433 -14,-181 139,-282 370,31 631,90 719,410 103,376 -64,669 -407,712zm-312 -1145c-191,-111 -94,171 -142,-216 -1,-8 10,-233 10,-268 2,-179 0,-346 10,-526l295 -1c292,52 442,255 368,633 -55,281 -261,336 -541,378zm395 -1073c-192,-85 -876,-123 -1073,31l202 84 -2 2006c-88,222 39,0 -198,158 127,87 830,84 1040,41l80 -38c356,-37 604,-178 623,-582 22,-469 -197,-529 -566,-661 499,-218 552,-943 -107,-1038zm8040 2237l-315 45 315 -46 0 1zm-265 -1094c-1,-499 -19,-997 -55,-1137l10 0c30,194 45,668 45,1137zm237 -1140l6 0c-21,167 -28,337 -28,508 0,-171 4,-341 22,-508zm702 2204l-675 30 16 -2176 384 -1c1046,8 1275,1999 276,2147zm-10 -2205c-164,-76 -1068,-99 -1214,7 81,50 -8,-3 92,46 26,13 71,52 78,38 7,-12 28,14 44,22l0 2059 -165 85c-7,-12 -27,14 -41,21 155,82 1101,114 1310,-1 1107,-81 1363,-2129 -105,-2276zm-16268 2225c407,156 1037,216 1332,-138 128,-154 181,-439 85,-655 -168,-381 -743,-487 -977,-713 -167,-161 -179,-434 -19,-596 496,-501 923,442 923,443l-13 -427c-411,-332 -1003,-228 -1218,147 -332,580 246,802 555,994 619,384 562,793 236,959 -491,250 -722,-207 -850,-554 -44,-117 -28,-76 -95,-139l41 679z"/>
  <path class="fil0 str0" d="M9758 9361c10,350 401,990 570,1272 633,1055 1855,1932 3148,2287 3254,894 5265,-1494 5399,-1537l-10 -109c-1162,337 -2153,1511 -3676,914l-62 -145c305,38 633,130 905,35 -258,-5 -249,38 -510,-41 219,-85 151,-31 286,-179 217,26 171,-118 535,-111 89,17 137,25 220,50 213,65 82,9 189,90 261,-76 664,-332 725,-529 -407,-19 -673,-9 -915,-229 -25,-172 -34,-69 67,-114 416,-20 399,12 733,-137 302,-136 418,-148 801,-126 380,118 495,198 752,397l135 23c127,-249 416,-582 612,-948 1052,-1971 765,-4444 -682,-6078 -369,-416 -1097,-1126 -1835,-1377 -81,49 -136,-76 -19,112 20,92 419,653 521,906 257,643 55,830 123,1284l-143 269c-35,80 -73,155 -105,210 -77,132 -191,277 -288,398 -120,150 -179,236 -313,372 -127,129 -219,192 -286,324 -131,69 -82,-1 -159,162l131 68c706,405 517,1543 236,2247l-18 -169c180,-1046 -72,-1848 -1220,-1710 -973,117 -1710,356 -2797,100 -529,-186 -744,-303 -1141,-683l-166 -128c-37,-139 -172,-277 -274,-441 -83,-133 -163,-285 -238,-447 -115,-248 -312,-733 -334,-1036 -7,-7 -67,-67 -85,-84 -7,-7 -29,-9 -35,-30 -6,-21 -25,-20 -37,-30 -171,313 -333,506 -520,881 -139,279 -285,694 -362,1014 -236,980 -151,1506 -47,2491l129 50c260,-92 445,-205 744,-285 366,-98 600,-46 935,-101l229 101c701,212 912,720 1466,688 113,104 389,75 618,86 -35,121 -53,135 -104,228 -194,31 -322,152 -577,182 -266,31 -525,-1 -784,8l-220 -39c-71,86 -140,-131 -29,139 103,229 313,402 461,524 61,-130 -49,-34 136,-80 33,-8 95,-10 132,-11 76,-2 178,-25 205,45 345,201 234,409 626,536 164,-4 280,-50 369,49l159 51c273,71 283,147 504,231 233,89 284,95 526,209 98,65 15,8 71,96l379 -14 177 51c-4,239 23,55 -92,126 -1092,504 -2630,-159 -3381,-636 -480,-306 -800,-632 -1214,-949 -349,-267 -960,-753 -1251,-844l-27 69zm7474 -5299l-86 -63c1,5 11,28 13,34 2,6 20,21 28,33l-98 928c-27,73 1,38 -52,131 -44,79 -35,43 -83,90 -63,247 -363,621 -567,740 -80,-54 -42,17 -133,-139 -23,-39 -58,-121 -83,-181 -244,-596 -173,-905 33,-1419 383,-469 691,-734 588,-1585 -881,-495 -2613,-430 -3605,-99 -1158,387 -1983,1042 -2542,1774l51 229c400,397 869,895 1789,700 431,-36 798,20 1118,169 152,71 247,138 381,253 124,106 200,239 350,307 90,260 266,364 320,667 -371,76 -581,132 -1012,121 -413,-11 -671,-148 -973,-178l-684 -411c99,237 387,423 654,531 178,279 1182,336 1606,280 662,-87 999,-277 1720,-304l63 -108 11 18c98,-4 80,25 80,-59l54 -93c252,-143 655,-610 840,-914 341,-562 254,-794 221,-1453zm-2597 6336l170 -180 -143 -6 -314 -45c-123,167 -160,292 -432,313 144,-166 130,-52 329,-372l-307 -68c7,-12 16,-29 22,-41l-51 -148 147 -112 81 110 185 181c8,6 24,18 35,28l221 22c-91,-198 -158,-222 -319,-342l173 2c29,-89 35,-13 -41,-131l149 20c47,209 105,322 205,439l108 -113 195 95c111,-7 51,11 137,-22 76,-29 73,-45 114,-75 -101,-27 -355,-63 -415,-135 -5,-6 -16,-23 -22,-30 -112,-123 -68,-56 -214,-134 138,-19 229,-49 310,-80 188,115 205,198 343,317 350,-12 811,-496 964,-737 99,-157 209,-407 243,-594 65,-362 -45,-445 -46,-723 -152,-97 -62,-28 -164,-170 -45,-62 -67,-87 -111,-132l20 -71c146,64 203,144 306,278 259,281 294,629 177,1107 -236,688 -656,932 -1254,1294 -61,189 -109,280 -242,355 -68,-93 76,-31 -133,-98 90,-39 135,-43 188,-101 38,-42 24,10 50,-92 26,-100 47,-28 -28,-71l-354 128c-139,227 -338,536 -594,597l245 -282c-57,-18 -74,-10 -132,-29 -96,-32 -55,-20 -102,-41l298 -112zm366 206l196 -105c-64,144 -200,254 -402,279l206 -174zm864 -4155c-237,91 -314,156 -555,-4l-152 -95c-1,-326 -43,-703 432,-664 402,33 431,419 275,764z"/>
  <path class="fil0 str0" d="M26178 17453c534,-46 926,-567 923,-1162 -3,-597 -409,-1067 -973,-1093 -124,-117 -463,-67 -663,-69 -775,-8 -530,-24 -593,105l227 9 -2 2151 -222 59c65,39 -4,38 165,58l478 -4c231,-1 485,31 660,-55zm1101 -98l-162 99c81,58 81,63 176,64m19 0c15,0 32,0 52,0 300,3 276,-64 277,-65l-227 -57 268 -700 810 21 210 688c-205,1 -99,-30 -234,49 136,78 146,54 376,56 354,2 273,20 371,-80l-178 -41 -827 -2246c-120,137 -290,547 -297,781 -75,63 -51,-11 -128,163 -123,277 -334,1046 -507,1267m-3715 -2109c192,-17 92,18 203,-62 -127,-85 -379,-94 -519,0l223 56c-103,333 -317,718 -330,1059l-102 154c-78,191 -91,376 -234,527l-589 -1653 -12 -88c54,-2 81,-3 133,-16 8,-2 28,-3 34,-18 6,-14 20,-15 30,-22 -120,-74 -72,-53 -368,-57 -480,-6 -308,20 -376,82l169 40 892 2252c126,-159 417,-976 420,-1202 122,-115 164,-319 233,-514 72,-203 134,-347 190,-539zm2312 2c1143,174 1087,2103 168,2148l-647 0 -1 -2159 481 11zm2485 1171l37 196 -682 -1 231 -691 135 -252 280 748zm-3902 986l-13 2c-3,-6 -6,-10 -6,-7l-26 -1052 0 -4 26 1028c1,-6 13,22 19,33zm-318 57l-5 1c29,-158 45,-628 46,-1105 -1,462 -15,917 -41,1104zm40 -1334c-4,-426 -20,-818 -51,-953l5 0c28,156 43,539 46,953zm247 -953l2 0c-18,161 -23,339 -23,520 0,-180 4,-358 21,-520zm-15 1028c0,37 1,73 1,109 0,-36 0,-72 -1,-109zm46 1201l16 -2116c10,-7 24,-14 30,-18l98 -50c91,-61 16,19 66,-79 -218,-30 -609,-78 -771,61l216 86 -4 2059 -206 106c165,88 598,125 758,-26l-204 -22z"/>
  <path class="fil0 str0" d="M24760 19205l1 -626 407 53c149,379 14,552 -408,573zm-16986 3l-8 -276c13,-5 31,-11 40,-14 9,-3 30,-10 41,-13 110,-38 101,16 126,-45 7,-17 27,-12 40,-19l-170 -80c-66,-26 -63,-17 -98,-41l-3 -144 386 -40c-121,-88 -233,-54 -457,-59l-9 771c149,78 345,88 487,0 -140,-86 -181,-58 -375,-40zm15918 -720c-57,78 -43,-60 -78,177 -19,125 -19,471 80,620l-2 -797zm-7197 312c-88,-185 -61,-186 -267,-313 -1,229 -63,636 52,795 65,-123 38,-354 29,-526 66,42 88,15 135,64l77 174c239,-80 173,-123 316,-259 15,220 -36,413 89,556l-9 -783c-115,108 -219,244 -321,357l-101 -64zm-6879 351c-280,30 -595,122 -584,-270 11,-400 382,-294 418,-293l129 -26c-323,-200 -450,-34 -625,157 -62,640 504,718 661,432zm16811 -450c73,297 126,202 -119,232 22,-77 -2,-43 38,-127 40,-86 42,-59 82,-105zm-329 586c139,-112 84,-110 175,-276l253 -15c91,252 84,198 199,271l-305 -763c-119,112 -317,610 -322,784zm-22331 -724c-295,-206 -666,-11 -638,370 28,375 420,457 685,254 -140,-65 -878,152 -484,-603l437 -21zm8577 158l70 213 -186 -26 116 -187zm-136 280l243 21 173 268c-3,-185 -195,-641 -302,-768 -115,144 -340,631 -251,762l137 -283zm2784 -333c150,-113 -188,-27 180,-101 76,-15 163,11 193,-77l-457 -14 12 807c194,18 325,37 464,-35 -142,-74 -199,-47 -393,-41l0 -275c55,-41 29,-31 124,-73 6,-2 113,-30 122,-33 -12,-8 -29,-16 -38,-21 -355,-168 -111,35 -207,-138zm7203 -53c-115,-185 -10,-37 -129,-133 36,260 206,608 339,778 148,-176 281,-502 340,-768 -102,76 -67,-5 -194,271 -55,120 -76,181 -145,279l-209 -427zm-15865 53c92,-164 248,-104 418,-78 -193,-243 -448,-90 -495,25 -34,348 170,273 420,355 57,313 -222,236 -442,203 0,0 14,176 329,118 151,-28 133,-56 205,-148 27,-516 -338,-109 -435,-475zm13277 -47c199,-121 182,40 397,-132 -260,-30 -359,-46 -507,125 -28,330 140,267 439,356l-44 192c-186,67 -197,36 -415,17 117,131 -114,32 141,109 155,47 395,-27 413,-200 -100,-443 -516,-120 -425,-469zm-9079 663c32,-39 52,14 63,-188 3,-62 -9,-166 -12,-231l460 20c-7,208 -46,271 65,405 50,-249 61,-573 -35,-819l-32 300 -441 11 -57 -302c-68,153 -84,614 -10,804zm3059 -726l271 50c53,241 -3,278 -280,293l9 -343zm290 426c0,0 393,-596 -358,-493 -51,201 -74,647 44,791l21 -295c372,45 155,194 483,306 -66,-135 -100,-221 -189,-309zm-9203 -253c281,-143 359,-300 634,-10l-13 328 -135 140c-390,48 -433,-130 -486,-458zm0 0c-6,5 -85,-97 -72,195 2,46 57,192 70,213 222,342 858,104 726,-366 -214,-412 -723,-355 -725,-42zm13269 200c-51,-438 585,-491 628,-108 52,464 -584,486 -628,108zm-69 -228c-45,354 43,612 410,594 349,-17 397,-257 361,-586 -264,-308 -505,-323 -771,-8zm6814 577c366,49 661,-20 646,-402 -14,-360 -281,-406 -650,-399l4 801z"/>
 </g>
</svg>
