<?xml version="1.0" encoding="UTF-8"?>
<!DOCTYPE svg PUBLIC "-//W3C//DTD SVG 1.1//EN" "http://www.w3.org/Graphics/SVG/1.1/DTD/svg11.dtd">
<!-- Creator: CorelDRAW X6 -->
<svg xmlns="http://www.w3.org/2000/svg" xml:space="preserve" width="297mm" height="210mm" version="1.1" style="shape-rendering:geometricPrecision; text-rendering:geometricPrecision; image-rendering:optimizeQuality; fill-rule:evenodd; clip-rule:evenodd"
viewBox="0 0 29700 21000"
 xmlns:xlink="http://www.w3.org/1999/xlink">
 <defs>
  <style type="text/css">
   <![CDATA[
    .str0 {stroke:#7B8C30;stroke-width:7.62}
    .fil1 {fill:#533628}
    .fil0 {fill:#7B8C30}
    .fil2 {fill:#A8B958}
    .fil3 {fill:#A2A2A2}
   ]]>
  </style>
 </defs>
 <g id="Capa_x0020_1">
  <metadata id="CorelCorpID_0Corel-Layer"/>
  <path class="fil0" d="M15756 13680c-90,-433 534,-522 613,-154 93,437 -536,524 -613,154zm-1238 -369l11 88c17,62 22,103 55,156 67,107 37,45 94,85 33,207 328,413 508,509 733,395 1630,97 2021,-661 250,159 412,383 901,293 449,-82 572,-395 685,-505 584,234 869,-101 809,-729l-1040 -17 -14 -3489c-88,112 -215,192 -355,219l-1 3278 -2603 7 -346 -3 -2302 1 -16 -4112c181,-133 447,-268 643,-376l1323 -744c210,-117 465,-297 683,-363l2169 1221c12,-9 26,-16 41,-25 71,-38 139,-61 231,-72 202,-23 405,68 529,223l0 -64c-34,-87 -2888,-1687 -2970,-1691 -153,-7 -2183,1205 -2657,1455 -107,56 -298,141 -342,235 -108,227 73,3879 -42,4310l-1021 7c-9,469 49,960 764,759 242,229 347,499 875,488 286,-6 524,-143 694,-341 117,-136 -4,-85 180,-154 65,63 -92,26 118,58 25,4 92,0 118,-3 110,-12 122,-35 257,-50zm-1058 -132l70 75c25,237 -74,261 -271,196 -60,-193 -25,-288 201,-272zm4529 -19c400,-96 406,301 59,265l-69 -78 10 -187zm-1487 -172c319,-91 411,178 145,285 -111,-32 -74,-18 -146,-74l1 -211z"/>
  <path class="fil1" d="M15424 12576l388 3c-54,-298 -102,-559 -29,-876 61,-263 264,-523 280,-619l-19 -38 -158 131c-277,326 -222,414 -364,594 -6,-556 187,-859 -165,-1308 324,1207 -307,768 67,2112z"/>
  <path class="fil2" d="M14888 10005l-275 -118c-240,-87 -633,-177 -880,-125 -8,15 -22,-4 3,20 94,123 360,283 476,350 95,55 336,146 444,171 26,6 37,4 64,12l34 7c-24,5 -9,0 -27,3 -251,38 -353,92 -595,234l-15 41c219,82 539,68 837,-68 -70,116 -176,164 -251,455 133,-60 298,-174 388,-282 173,-209 162,-277 216,-353 70,29 301,-22 392,-49 150,-45 288,-139 416,-242 -51,-22 -182,-16 -254,-9 -110,10 -164,40 -266,59 203,-197 335,-394 382,-659 7,-42 24,-65 3,-100 -111,54 -216,135 -295,220 -79,85 -126,169 -195,249 -3,-37 51,-250 27,-558 -10,-127 -66,-468 -139,-598 -50,76 -98,205 -127,287 -37,103 -62,198 -82,300 -59,303 -32,366 -22,626 -136,-243 -134,-345 -375,-632 -106,-126 -364,-382 -485,-415 66,347 165,599 378,898 61,86 181,202 224,276z"/>
  <path class="fil2" d="M16313 10712l58 -169c41,-147 76,-386 34,-530 -9,-4 1,-13 -12,3 -69,62 -152,228 -187,300 -28,59 -71,207 -81,272 -2,16 0,22 -4,39l-3 20c-4,-14 -1,-5 -3,-16 -34,-148 -71,-206 -167,-344l-25 -7c-39,134 -16,324 79,496 -72,-36 -106,-97 -283,-128 42,77 117,170 186,218 133,93 172,84 220,112 -14,43 27,179 47,231 34,87 96,165 164,237 11,-31 1,-109 -6,-152 -11,-65 -31,-96 -48,-156 127,112 250,182 411,197 26,3 40,11 60,-3 -37,-63 -91,-123 -145,-166 -55,-43 -106,-67 -158,-105 22,-4 151,19 334,-10 75,-12 276,-61 350,-111 -47,-27 -127,-49 -177,-63 -63,-17 -121,-28 -182,-35 -184,-21 -220,-2 -374,16 139,-92 199,-96 360,-253 70,-69 211,-235 225,-308 -204,55 -349,126 -518,267 -48,40 -112,117 -154,146z"/>
  <path class="fil2" d="M17667 9265l-23 -17c-9,-7 -14,-9 -22,-16 -9,-6 -20,-16 -24,-24 -9,-4 -8,-3 -15,-10 -6,-6 -6,-7 -12,-11 -9,-8 -14,-14 -23,-25l-39 -46c-5,-4 1,1 -5,-5 -1,-1 -3,-2 -3,-3 -6,-6 -2,-1 -5,-7 -9,-16 -19,-27 -29,-43 -9,-14 -17,-29 -25,-45 -106,-202 -114,-427 -21,-636 18,-40 52,-101 78,-131l10 -12 8 -11c8,-9 9,-12 18,-21 8,-8 10,-14 19,-20l13 -15c2,-7 2,-7 10,-13l34 -28 11 -8 16 -11c3,-6 15,-14 23,-18 9,-8 10,-9 21,-14 8,-10 68,-43 85,-50 118,-50 200,-73 338,-69 131,4 311,63 400,143 3,2 5,3 7,5 3,3 3,2 5,5 10,5 43,30 46,40 19,9 40,35 52,52 8,1 6,2 11,9 4,5 7,8 10,14 9,9 24,27 28,39 12,6 50,78 59,97 127,262 79,591 -122,800 -7,7 -10,13 -18,20l-41 38c-238,206 -580,228 -853,59 -8,-5 -15,-11 -22,-15zm561 -1582c-30,-1 -69,-5 -100,-8 -107,-12 -250,22 -283,22 -10,-33 -81,-181 -96,-199 -19,-23 -63,-46 -108,-34 -18,5 -189,83 -204,94 -81,57 -38,138 -4,207 16,33 33,68 46,101l-140 128c-22,21 -104,128 -115,153 -52,-12 -176,-73 -217,-73 -99,-1 -113,94 -136,155 -25,67 -76,154 1,213 36,27 208,73 209,85 0,1 1,2 1,3l-1 18c-11,95 -13,168 0,264 4,28 14,68 15,94 -27,21 -161,68 -200,98 -23,18 -46,64 -34,108 8,28 33,75 46,103 29,65 54,156 147,147 45,-4 158,-72 212,-89 31,51 148,164 198,201l79 56c-3,34 -73,175 -73,219 0,97 96,110 158,133 74,28 156,72 211,-3 15,-21 72,-176 82,-209 82,4 87,15 196,9 68,-3 120,-15 184,-23 15,16 73,172 98,198 68,73 134,25 211,-10 27,-12 78,-33 101,-48 31,-20 50,-61 46,-100 -4,-44 -71,-153 -89,-211l53 -42c30,-23 93,-87 118,-118 11,-14 19,-22 30,-37 20,-26 35,-52 56,-79 29,1 175,72 219,72 95,1 110,-94 133,-157 28,-76 73,-155 -3,-212 -24,-18 -70,-31 -103,-43 -33,-13 -73,-29 -106,-39 2,-31 7,-64 9,-96 3,-43 3,-80 0,-119l-7 -73c-4,-30 -13,-65 -15,-94 17,-4 185,-81 201,-97 23,-23 46,-61 32,-108l-46 -103c-29,-60 -50,-157 -150,-145 -39,5 -174,80 -208,89l-59 -71c-36,-46 -173,-165 -219,-183 3,-21 29,-83 38,-107 25,-68 69,-149 -15,-205 -14,-9 -194,-76 -212,-79 -45,-8 -89,17 -105,39 -21,30 -47,112 -63,155 -6,17 -15,36 -19,54z"/>
  <path class="fil0 str0" d="M18384 7315c-64,3 -123,40 -155,73 -14,15 -36,48 -45,74 -6,16 -24,60 -29,82 -2,3 -3,6 -3,7 -11,8 -90,3 -118,4 -41,1 -77,7 -117,11 -36,-44 -42,-151 -152,-202 -114,-53 -185,-3 -276,38 -99,43 -156,64 -198,155 -21,44 -24,102 -10,152 11,38 47,98 53,124 -7,8 -12,10 -19,19l-62 61c-13,12 -66,77 -73,91 -62,-11 -150,-88 -279,-23 -18,9 -39,23 -51,36 -14,14 -29,29 -40,48 -18,30 -38,90 -51,127 -35,98 -75,173 -16,277 44,77 93,86 148,110 17,7 48,17 64,25 4,32 -2,81 0,120 2,35 10,81 10,112 -83,38 -164,64 -202,151 -49,112 -5,184 38,276 41,87 60,157 157,199 131,57 230,-39 278,-45 13,23 94,96 122,120 15,13 29,24 45,36 -32,92 -78,171 -25,276 45,88 106,106 210,143 99,35 170,76 277,18 99,-53 104,-146 137,-215 133,4 110,0 232,-9l57 118c25,36 51,64 94,84 109,52 186,3 275,-37 34,-16 91,-38 119,-58 76,-53 118,-155 88,-250 -11,-35 -49,-97 -53,-126 16,-10 27,-24 42,-39 15,-15 28,-27 41,-41l75 -88c54,19 116,51 181,49 72,-3 127,-38 159,-74 38,-43 52,-93 76,-157 17,-47 56,-132 47,-182 2,-54 -35,-118 -70,-151 -18,-17 -39,-32 -66,-44 -16,-7 -71,-28 -85,-28l-21 -11c-1,-36 3,-80 2,-119 -1,-40 -7,-75 -11,-113l118 -57c37,-25 66,-52 84,-94 51,-116 5,-182 -37,-275 -44,-98 -63,-156 -154,-199 -44,-21 -103,-23 -153,-10 -39,11 -85,40 -124,54l-82 -81c-13,-15 -28,-24 -44,-38 -10,-9 -13,-10 -22,-19 -6,-6 -18,-12 -23,-19 16,-59 50,-106 48,-178 -2,-68 -37,-131 -71,-160 -49,-42 -90,-53 -152,-75 -53,-19 -122,-53 -183,-50 -2,0 -4,0 -5,1zm757 1377c0,-6 -1,-1 3,-1 11,1 0,-6 1,1 2,6 -5,4 -5,0zm-914 -1010c4,-18 13,-37 19,-54 16,-43 42,-126 63,-155 16,-22 60,-47 105,-39 18,3 199,70 212,79 84,57 40,137 15,205 -9,24 -35,85 -38,107 46,19 183,137 219,183l59 71c33,-9 168,-84 208,-89 100,-12 121,85 150,145l46 103c14,47 -9,86 -32,108 -16,16 -185,93 -201,97 2,30 11,64 15,94l7 73c4,39 3,76 0,119 -2,32 -7,65 -9,96 33,10 73,26 106,39 32,12 79,25 103,43 76,57 31,136 3,212 -23,63 -39,158 -133,157 -43,0 -190,-71 -219,-72 -21,27 -36,53 -56,79 -11,15 -19,23 -30,37 -25,32 -88,95 -118,118l-53 42c18,59 85,168 89,211 4,40 -16,80 -46,100 -23,15 -74,36 -101,48 -78,35 -144,83 -211,10 -25,-27 -82,-182 -98,-198 -64,8 -116,19 -184,23 -109,5 -114,-5 -196,-9 -10,33 -67,188 -82,209 -55,74 -137,31 -211,3 -62,-24 -157,-37 -158,-133 0,-43 69,-185 73,-219l-79 -56c-50,-37 -167,-150 -198,-201 -54,17 -167,85 -212,89 -93,9 -118,-81 -147,-147 -13,-29 -38,-75 -46,-103 -12,-44 11,-89 34,-108 39,-31 173,-78 200,-98 -1,-26 -11,-66 -15,-94 -13,-96 -11,-169 0,-264l1 -18c0,-1 -1,-1 -1,-3 -1,-12 -173,-57 -209,-85 -77,-59 -26,-146 -1,-213 23,-61 37,-156 136,-155 41,0 165,61 217,73 11,-25 93,-132 115,-153l140 -128c-13,-33 -30,-68 -46,-101 -34,-69 -76,-149 4,-207 15,-10 185,-89 204,-94 45,-12 89,11 108,34 15,18 86,166 96,199 33,0 176,-34 283,-22 30,4 69,7 100,8z"/>
  <path class="fil0 str0" d="M17510 9115l39 46c9,11 14,17 23,25 5,5 6,5 12,11 7,7 6,6 15,10 4,7 15,18 24,24 7,7 12,9 22,16l23 17c7,4 14,10 22,15 273,169 615,147 853,-59l41 -38c8,-8 11,-13 18,-20 201,-209 249,-538 122,-800 -9,-19 -47,-91 -59,-97 -5,-13 -20,-31 -28,-39 -3,-6 -6,-9 -10,-14 -5,-7 -4,-8 -11,-9 -12,-18 -33,-43 -52,-52 -3,-10 -36,-36 -46,-40 -2,-3 -2,-2 -5,-5 -2,-2 -4,-3 -7,-5 -88,-80 -269,-139 -400,-143 -138,-5 -219,19 -338,69 -16,7 -77,40 -85,50 -11,5 -12,6 -21,14 -8,4 -20,12 -23,18l-16 11 -11 8 -34 28c-8,6 -8,6 -10,13l-13 15c-9,6 -11,12 -19,20 -8,9 -10,12 -18,21l-8 11 -10 12c-25,31 -60,92 -78,131 -94,209 -86,434 21,636 8,16 16,31 25,45 10,16 20,27 29,43 4,6 0,1 5,7 1,1 2,3 3,3 6,6 0,0 5,5zm505 -1039c237,-27 474,102 585,308 36,67 63,142 72,229 34,347 -227,629 -536,658 -351,33 -627,-226 -659,-536 -20,-198 65,-385 179,-492 41,-38 42,-37 84,-68 13,-10 28,-18 45,-27 71,-38 139,-61 231,-72z"/>
  <path class="fil3" d="M19141 8692c0,4 7,6 5,0 -2,-7 9,0 -1,-1 -4,0 -3,-5 -3,1z"/>
  <path class="fil2" d="M19228 10501l-13 -10c-5,-4 -9,-6 -13,-10 -5,-3 -12,-10 -14,-14 -5,-2 -5,-2 -9,-6 -3,-4 -4,-4 -7,-7 -6,-5 -8,-8 -14,-15l-23 -27c-3,-2 1,1 -3,-3 0,0 -2,-1 -2,-2 -3,-4 -1,-1 -3,-4 -5,-9 -11,-16 -17,-25 -5,-8 -10,-17 -15,-26 -63,-119 -67,-252 -12,-375 10,-23 31,-59 46,-77l6 -7 5 -7c5,-6 6,-7 10,-13 4,-5 6,-8 11,-12l8 -9c1,-4 1,-4 6,-8l20 -16 6 -5 9 -7c2,-3 9,-8 13,-10 5,-5 6,-6 12,-8 5,-6 40,-25 50,-29 70,-29 118,-43 199,-40 77,3 184,37 236,84 2,1 3,2 4,3 2,2 1,1 3,3 6,3 25,18 27,24 11,6 24,21 31,31 5,1 3,1 7,5 2,3 4,5 6,9 5,5 14,16 17,23 7,4 29,46 35,57 75,154 47,348 -72,472 -4,4 -6,7 -10,12l-24 22c-140,122 -342,135 -503,35 -5,-3 -9,-7 -13,-9zm330 -933c-18,-1 -41,-3 -59,-5 -63,-7 -147,13 -167,13 -6,-20 -48,-107 -56,-117 -11,-14 -37,-27 -64,-20 -11,3 -111,49 -120,55 -47,34 -22,81 -2,122 10,20 20,40 27,60l-82 75c-13,13 -61,75 -68,90 -31,-7 -104,-43 -128,-43 -58,-1 -67,55 -80,91 -15,40 -45,91 0,125 21,16 123,43 123,50 0,1 0,1 0,1l0 10c-7,56 -8,99 0,156 2,16 8,40 9,55 -16,12 -95,40 -118,58 -14,11 -27,38 -20,64 4,16 19,44 27,61 17,38 32,92 87,86 27,-3 93,-42 125,-52 18,30 87,97 117,119l46 33c-2,20 -43,103 -43,129 0,57 56,65 93,79 44,17 92,42 125,-2 9,-12 42,-104 48,-123 48,3 51,9 115,6 40,-2 71,-9 108,-13 9,9 43,101 58,117 40,43 79,15 125,-6 16,-7 46,-19 59,-28 18,-12 29,-36 27,-59 -2,-26 -42,-90 -53,-125l31 -25c17,-14 55,-51 69,-70 7,-8 11,-13 18,-22 12,-15 20,-30 33,-46 17,1 103,42 129,43 56,1 65,-55 79,-93 16,-45 43,-91 -2,-125 -14,-10 -41,-18 -60,-25 -20,-7 -43,-17 -63,-23 1,-18 4,-38 5,-57 2,-25 2,-47 0,-70l-4 -43c-2,-18 -8,-38 -9,-56 10,-2 109,-48 119,-57 13,-13 27,-36 19,-64l-27 -61c-17,-35 -30,-92 -89,-85 -23,3 -103,47 -122,52l-35 -42c-21,-27 -102,-97 -129,-108 2,-12 17,-49 22,-63 15,-40 41,-88 -9,-121 -8,-5 -115,-45 -125,-47 -27,-5 -53,10 -62,23 -13,17 -28,66 -37,92 -4,10 -9,21 -11,32z"/>
  <path class="fil0 str0" d="M19651 9352c-38,2 -73,24 -91,43 -8,9 -21,29 -27,44 -4,10 -14,35 -17,48 -1,2 -2,3 -2,4 -7,5 -53,2 -70,2 -24,1 -45,4 -69,6 -21,-26 -25,-89 -90,-119 -67,-31 -109,-2 -163,22 -59,26 -92,38 -117,91 -12,26 -14,60 -6,90 6,23 27,58 31,73 -4,4 -7,6 -11,11l-36 36c-7,7 -39,45 -43,53 -36,-6 -89,-52 -165,-14 -11,5 -23,14 -30,21 -8,8 -17,17 -24,28 -11,18 -22,53 -30,75 -21,58 -44,102 -9,163 26,45 55,51 87,65 10,4 28,10 38,15 2,19 -1,47 0,70 1,21 6,48 6,66 -49,22 -97,38 -119,89 -29,66 -3,108 22,162 24,51 36,93 92,117 77,34 135,-23 164,-26 8,14 56,56 72,71 9,8 17,14 27,21 -19,54 -46,101 -15,163 26,52 62,62 124,84 58,21 100,45 163,11 58,-31 61,-86 81,-127 78,2 65,0 137,-5l33 70c15,21 30,37 55,49 64,30 110,2 162,-22 20,-9 54,-23 70,-34 45,-32 70,-91 52,-148 -6,-21 -29,-57 -31,-74 10,-6 16,-14 25,-23 9,-9 16,-16 24,-24l44 -52c32,11 68,30 107,29 43,-2 75,-22 94,-44 22,-26 31,-55 45,-93 10,-28 33,-78 28,-107 1,-32 -21,-70 -41,-89 -10,-10 -23,-19 -39,-26 -9,-4 -42,-17 -50,-17l-12 -6c-1,-21 2,-47 1,-70 -1,-24 -4,-44 -6,-67l70 -33c22,-15 39,-31 50,-55 30,-69 3,-108 -22,-162 -26,-58 -37,-92 -91,-117 -26,-12 -61,-14 -90,-6 -23,6 -50,23 -73,32l-48 -48c-8,-9 -16,-14 -26,-22 -6,-5 -8,-6 -13,-11 -4,-3 -11,-7 -14,-11 9,-35 30,-62 29,-105 -1,-40 -22,-77 -42,-94 -29,-25 -53,-31 -90,-44 -31,-11 -72,-31 -108,-29 -1,0 -2,0 -3,1zm446 811c0,-4 0,-1 2,-1 6,1 0,-3 1,1 1,4 -3,2 -3,0zm-538 -595c2,-10 8,-22 11,-32 9,-25 25,-74 37,-92 10,-13 35,-28 62,-23 10,2 117,41 125,47 50,33 24,81 9,121 -5,14 -21,50 -22,63 27,11 108,81 129,108l35 42c20,-5 99,-49 122,-52 59,-7 71,50 89,85l27 61c8,27 -6,50 -19,64 -10,10 -109,55 -119,57 1,18 6,38 9,56l4 43c2,23 2,45 0,70 -1,19 -4,38 -5,57 19,6 43,16 63,23 19,7 47,15 60,25 45,34 18,80 2,125 -14,37 -23,93 -79,93 -26,0 -112,-42 -129,-43 -12,16 -21,31 -33,46 -7,9 -11,13 -18,22 -15,19 -52,56 -69,70l-31 25c11,35 50,99 53,125 2,23 -9,47 -27,59 -14,9 -44,21 -59,28 -46,21 -85,49 -125,6 -15,-16 -49,-107 -58,-117 -38,4 -68,11 -108,13 -64,3 -67,-3 -115,-6 -6,19 -39,111 -48,123 -32,44 -81,18 -125,2 -37,-14 -93,-22 -93,-79 0,-26 41,-109 43,-129l-46 -33c-29,-22 -98,-89 -117,-119 -32,10 -98,50 -125,52 -55,5 -70,-48 -87,-86 -8,-17 -22,-44 -27,-61 -7,-26 6,-53 20,-64 23,-18 102,-46 118,-58 -1,-15 -6,-39 -9,-55 -8,-56 -7,-100 0,-156l0 -10c0,0 0,-1 0,-1 0,-7 -102,-34 -123,-50 -45,-35 -15,-86 0,-125 13,-36 22,-92 80,-91 24,0 97,36 128,43 6,-15 55,-78 68,-90l82 -75c-8,-19 -18,-40 -27,-60 -20,-40 -45,-88 2,-122 9,-6 109,-52 120,-55 27,-7 52,6 64,20 9,10 51,98 56,117 20,0 104,-20 167,-13 18,2 41,4 59,5z"/>
  <path class="fil0 str0" d="M19136 10413l23 27c5,6 8,10 14,15 3,3 4,3 7,7 4,4 3,4 9,6 2,4 9,10 14,14 4,4 7,6 13,10l13 10c4,2 8,6 13,9 161,100 363,87 503,-35l24 -22c5,-4 6,-8 10,-12 118,-123 147,-317 72,-472 -5,-11 -28,-53 -35,-57 -3,-8 -12,-18 -17,-23 -2,-4 -4,-5 -6,-9 -3,-4 -2,-5 -7,-5 -7,-10 -20,-25 -31,-31 -2,-6 -21,-21 -27,-24 -1,-2 -1,-1 -3,-3 -1,-1 -3,-2 -4,-3 -52,-47 -158,-82 -236,-84 -81,-3 -129,11 -199,40 -10,4 -45,24 -50,29 -7,3 -7,4 -12,8 -5,2 -12,7 -13,10l-9 7 -6 5 -20 16c-5,4 -5,4 -6,8l-8 9c-5,3 -7,7 -11,12 -5,5 -6,7 -10,13l-5 7 -6 7c-15,18 -35,54 -46,77 -55,123 -51,256 12,375 5,9 10,18 15,26 6,9 12,16 17,25 2,3 0,0 3,4 0,0 1,1 2,2 4,3 0,0 3,3zm298 -612c139,-16 279,60 345,182 21,39 37,84 42,135 20,205 -134,371 -316,388 -207,19 -370,-133 -388,-316 -12,-117 38,-227 105,-290 24,-23 25,-22 49,-40 8,-6 17,-11 27,-16 42,-22 82,-36 136,-42z"/>
  <path class="fil3" d="M20097 10163c0,2 4,4 3,0 -1,-4 5,0 -1,-1 -2,0 -2,-3 -2,1z"/>
 </g>
</svg>
