<?xml version="1.0" encoding="UTF-8"?>
<!DOCTYPE svg PUBLIC "-//W3C//DTD SVG 1.1//EN" "http://www.w3.org/Graphics/SVG/1.1/DTD/svg11.dtd">
<!-- Creator: CorelDRAW X6 -->
<svg xmlns="http://www.w3.org/2000/svg" xml:space="preserve" width="80mm" height="80mm" version="1.1" style="shape-rendering:geometricPrecision; text-rendering:geometricPrecision; image-rendering:optimizeQuality; fill-rule:evenodd; clip-rule:evenodd"
viewBox="0 0 8000 8000"
 xmlns:xlink="http://www.w3.org/1999/xlink">
 <defs>
  <style type="text/css">
   <![CDATA[
    .str1 {stroke:#FEFEFE;stroke-width:7.62}
    .str0 {stroke:#8C9C46;stroke-width:10}
    .fil1 {fill:#FEFEFE}
    .fil0 {fill:#8C9C46}
   ]]>
  </style>
 </defs>
 <g id="Capa_x0020_1">
  <metadata id="CorelCorpID_0Corel-Layer"/>
  <path class="fil0 str0" d="M2066 408l3927 0c916,0 1666,750 1666,1666l0 3927c0,916 -750,1666 -1666,1666l-534 0 19 -2797 873 0 179 -1111 -1051 0c-158,-1309 138,-1303 1071,-1230l0 -972c-1410,-195 -2453,120 -2222,2202l-932 0 0 1111 932 0 0 2797 -2261 0c-916,0 -1666,-750 -1666,-1666l0 -3927c0,-916 750,-1666 1666,-1666z"/>
  <path class="fil1 str1" d="M6484 1563c-1410,-195 -2453,120 -2222,2202l-932 0 0 1111 932 0 0 2642c13,74 21,150 24,227l1112 0 7 -72 -11 0 19 -2797 873 0 179 -1111 -1051 0c-158,-1309 138,-1303 1071,-1230l0 -972z"/>
 </g>
</svg>
