<?xml version="1.0" encoding="UTF-8"?>
<!DOCTYPE svg PUBLIC "-//W3C//DTD SVG 1.1//EN" "http://www.w3.org/Graphics/SVG/1.1/DTD/svg11.dtd">
<!-- Creator: CorelDRAW X6 -->
<svg xmlns="http://www.w3.org/2000/svg" xml:space="preserve" width="297mm" height="210mm" version="1.1" style="shape-rendering:geometricPrecision; text-rendering:geometricPrecision; image-rendering:optimizeQuality; fill-rule:evenodd; clip-rule:evenodd"
viewBox="0 0 29700 21000"
 xmlns:xlink="http://www.w3.org/1999/xlink">
 <defs>
  <style type="text/css">
   <![CDATA[
    .fil0 {fill:#75632D}
   ]]>
  </style>
 </defs>
 <g id="Capa_x0020_1">
  <metadata id="CorelCorpID_0Corel-Layer"/>
  <path class="fil0" d="M3985 7068c1821,0 3297,1492 3297,3332 0,1840 -1476,3332 -3297,3332 -1821,0 -3297,-1492 -3297,-3332 0,-1840 1476,-3332 3297,-3332zm-2348 3346l0 0c-51,144 25,303 169,354l1101 390c144,51 303,-25 354,-169l0 0c51,-144 -25,-303 -169,-354l-1101 -390c-144,-51 -303,25 -354,169zm2300 -2172l0 0c154,0 279,126 279,279l0 1919c0,154 -126,279 -279,279l0 0c-154,0 -279,-126 -279,-279l0 -1919c0,-154 126,-279 279,-279zm2376 2186l0 0c51,144 -25,303 -169,354l-1101 390c-144,51 -303,-25 -354,-169l0 0c-51,-144 25,-303 169,-354l1101 -390c144,-51 303,25 354,169zm-1875 1212l0 0c95,-101 255,-107 356,-12l566 529c101,95 107,255 12,356l0 0c-95,101 -255,107 -356,12l-566 -529c-101,-95 -107,-255 -12,-356zm-1004 0l0 0c-95,-101 -255,-107 -356,-12l-566 529c-101,95 -107,255 -12,356l0 0c95,101 255,107 356,12l566 -529c101,-95 107,-255 12,-356z"/>
  <path class="fil0" d="M22718 8834c959,0 1737,778 1737,1737 0,959 -778,1737 -1737,1737 -959,0 -1737,-778 -1737,-1737 0,-959 778,-1737 1737,-1737zm0 570c645,0 1168,523 1168,1168 0,645 -523,1168 -1168,1168 -645,0 -1168,-523 -1168,-1168 0,-645 523,-1168 1168,-1168z"/>
  <rect class="fil0" x="18361" y="8720" width="605" height="3873" rx="302" ry="500"/>
  <path class="fil0" d="M15390 8968c440,0 842,164 1148,433l0 -379c0,-166 136,-302 302,-302l0 0c166,0 302,136 302,302l0 3269c0,166 -136,302 -302,302l0 0c-166,0 -302,-136 -302,-302l0 -281c-306,270 -708,433 -1148,433 -959,0 -1737,-778 -1737,-1737 0,-959 778,-1737 1737,-1737zm1148 1952l0 -429c-101,-542 -576,-953 -1148,-953 -645,0 -1168,523 -1168,1168 0,645 523,1168 1168,1168 572,0 1047,-411 1148,-953z"/>
  <path class="fil0" d="M11070 8834c651,0 1217,358 1514,887l-1933 1299c-120,81 -284,45 -364,-75l0 0c-79,-121 -45,-284 75,-364l1421 -934c-197,-153 -445,-244 -714,-244 -645,0 -1168,523 -1168,1168 0,645 648,1168 1168,1168 519,0 862,-57 1226,-807 162,-333 519,-25 485,150 -150,769 -878,1227 -1711,1227 -959,0 -1737,-778 -1737,-1737 0,-959 778,-1737 1737,-1737z"/>
  <path class="fil0" d="M28907 8985l0 0c-157,-55 -330,28 -385,185l-717 2045 -244 -775c-39,-125 -173,-196 -299,-157l0 0c-125,39 -197,173 -157,299l441 1409c134,427 484,413 587,117l960 -2737c55,-157 -28,-330 -185,-385z"/>
  <path class="fil0" d="M25183 8985l0 0c157,-55 330,28 385,185l717 2045 529 -1706c39,-125 173,-196 299,-157l0 0c125,39 196,173 157,299 -242,780 -522,1550 -725,2341 -115,446 -491,392 -587,117l-960 -2737c-55,-157 28,-330 185,-385z"/>
  <path class="fil0" d="M16996 13366c-271,608 -916,1031 -1588,1031 -671,0 -1284,-295 -1493,-848 -149,-395 358,-474 504,-268 224,317 557,546 989,546 432,0 837,-252 1033,-622 201,-419 746,-268 555,161z"/>
  <path class="fil0" d="M20397 8782c366,67 224,569 46,489 -430,-194 -666,36 -923,322 -177,197 -458,-223 -322,-381 379,-440 644,-543 1199,-429z"/>
 </g>
</svg>
