<?xml version="1.0" encoding="UTF-8"?>
<!DOCTYPE svg PUBLIC "-//W3C//DTD SVG 1.1//EN" "http://www.w3.org/Graphics/SVG/1.1/DTD/svg11.dtd">
<!-- Creator: CorelDRAW X6 -->
<svg xmlns="http://www.w3.org/2000/svg" xml:space="preserve" width="50.8mm" height="21.1666mm" version="1.1" style="shape-rendering:geometricPrecision; text-rendering:geometricPrecision; image-rendering:optimizeQuality; fill-rule:evenodd; clip-rule:evenodd"
viewBox="0 0 5080 2117"
 xmlns:xlink="http://www.w3.org/1999/xlink">
 <defs>
  <style type="text/css">
   <![CDATA[
    .str0 {stroke:#4D6631;stroke-width:7.62}
    .fil0 {fill:#4D6631}
   ]]>
  </style>
 </defs>
 <g id="Capa_x0020_1">
  <metadata id="CorelCorpID_0Corel-Layer"/>
  <path class="fil0 str0" d="M1609 1452l71 151 6 10c9,2 7,4 7,-5 9,-26 62,-125 79,-149l0 142 -16 4c-1,-1 -2,1 -3,2 10,7 38,7 53,5 23,-3 6,0 14,-5l-19 -5 1 -194 18 -5c-2,-2 6,-5 -13,-5 -24,-1 -9,1 -15,6 -24,42 -65,138 -92,170l-80 -170c-4,-2 -4,-4 -12,-5 -12,-2 -21,0 -30,5l7 4c1,0 3,1 4,2l8 191 -18 8 26 6c8,0 15,-1 23,-2 -4,-9 0,-3 -9,-9l-9 -5c0,-21 -3,-139 4,-146zm1343 151l-12 8c-51,5 -97,-36 -107,-92 -11,-56 19,-107 71,-120 1,0 12,-3 13,-3 5,0 6,0 8,0 1,0 2,0 3,-1 1,0 12,-1 13,-1 54,-3 97,37 103,94 6,56 -26,110 -76,119l-13 -4c86,-13 73,-193 -34,-202 -94,43 -53,213 31,201zm-1413 -182c5,6 -9,5 8,5l0 -22c-7,-7 6,-3 -14,-6l-95 0c-5,0 -15,0 -19,0 -17,2 -8,1 -14,5l20 5 0 195c-17,1 -10,-1 -20,5 16,10 140,4 148,1 4,-13 6,-11 -2,-24 -17,8 -8,29 -12,16 0,-1 -1,2 -2,3l-86 -1 0 -97 63 1c5,12 2,12 13,23l-2 -51c-5,5 -3,2 -7,10 -1,1 -1,12 -3,7 0,-1 -1,2 -1,3l-63 1 0 -92 76 0c1,1 2,2 3,3 0,1 2,2 3,3l4 5c0,-1 1,2 2,3zm887 181l-17 5c11,8 33,11 47,-2l-17 -2 -1 -129c0,-38 -3,-32 7,-39 4,17 51,74 63,92 15,22 48,72 66,88l0 -208 20 -5c-12,-8 -35,-8 -47,0 5,3 1,2 10,5 1,0 7,0 10,0l-2 151 -113 -152c-10,-12 -24,-14 -41,-5l17 10 -1 190zm-202 0l-23 1 0 0c-37,-2 -36,-13 -46,-42 -11,-35 -12,-33 -32,-54 58,-27 47,-94 -14,-106l-28 -5c-34,0 -52,-5 -67,8l19 7 1 191 0 0c-19,-1 -8,-4 -18,4 9,6 32,9 50,6l1 0 0 0c7,-1 14,-3 17,-6 -11,-8 -13,-3 -15,-8 -1,-2 -2,-1 -4,-2l-1 -72c2,-13 -8,-15 9,-15 45,3 36,21 54,63 5,12 17,29 28,35 10,5 40,10 46,-2 9,3 16,6 32,6 0,0 14,-1 14,-1 10,-2 5,-2 9,-5 -11,-7 -1,-5 -20,-4 3,-3 4,-6 4,-7 3,-19 11,-41 21,-57l71 2c0,-1 0,-2 0,-2 0,1 0,2 0,2l12 49 -4 12c-1,1 -2,1 -3,2 -10,7 -1,-2 -8,8 19,1 53,6 67,-6l-19 -6c-3,-25 -25,-79 -34,-103 -11,-30 -23,-82 -39,-98l-13 43 2 9 -2 -9 -68 161zm11 1c0,0 0,1 -1,1 0,0 -2,3 -3,3 0,0 1,-2 3,-4zm97 -70c0,0 0,-1 0,-1 0,0 0,1 0,1zm0 -1c0,0 0,-1 0,-1 0,0 0,1 0,1zm0 -1c0,0 0,-1 0,-1 0,0 0,1 0,1zm-9 -10l0 0c-3,13 5,7 -9,11l-50 -2 30 -80c12,9 22,54 29,71zm-249 -14c-11,-7 -10,11 -9,-9l1 -88c0,-1 0,-2 0,-2l29 0c24,6 40,27 35,61 -5,33 -23,34 -56,38zm-213 -105l0 0 1 109 -1 -109zm26 -1l1 0c-3,13 -5,55 -5,99 0,-42 1,-82 4,-99zm-4 115c0,40 2,78 4,90l-1 0c-2,-15 -4,-52 -4,-90zm46 84l-39 1 -2 -77c1,-39 -1,-16 13,-25 33,3 57,8 65,37 9,34 -6,60 -37,64zm-28 -103c-17,-10 -8,15 -13,-19 0,-1 1,-21 1,-24 0,-16 0,-31 1,-47l27 0c26,5 40,23 33,57 -5,25 -24,30 -49,34zm36 -97c-17,-8 -79,-11 -97,3l18 8 0 181c-8,20 4,0 -18,14 11,8 75,8 94,4l7 -3c32,-3 54,-16 56,-52 2,-42 -18,-48 -51,-60 45,-20 50,-85 -10,-93zm724 202l-28 4 28 -4 0 0zm-24 -99c0,-45 -2,-90 -5,-102l1 0c3,18 4,60 4,102zm21 -103l1 0c-2,15 -3,30 -3,46 0,-15 0,-31 2,-46zm63 199l-61 3 1 -196 35 0c94,1 115,180 25,193zm-1 -199c-15,-7 -96,-9 -109,1 7,5 -1,0 8,4 2,1 6,5 7,3 1,-1 2,1 4,2l0 185 -15 8c-1,-1 -2,1 -4,2 14,7 99,10 118,0 100,-7 123,-192 -9,-205zm-1465 200c37,14 93,19 120,-12 12,-14 16,-40 8,-59 -15,-34 -67,-44 -88,-64 -15,-15 -16,-39 -2,-54 45,-45 83,40 83,40l-1 -38c-37,-30 -90,-21 -110,13 -30,52 22,72 50,90 56,35 51,71 21,86 -44,23 -65,-19 -77,-50 -4,-11 -3,-7 -9,-13l4 61z"/>
  <path class="fil0 str0" d="M2063 879c1,32 36,89 51,115 57,95 167,174 284,206 293,81 474,-135 486,-138l-1 -10c-105,30 -194,136 -331,82l-6 -13c27,3 57,12 82,3 -23,0 -22,3 -46,-4 20,-8 14,-3 26,-16 20,2 15,-11 48,-10 8,2 12,2 20,5 19,6 7,1 17,8 24,-7 60,-30 65,-48 -37,-2 -61,-1 -82,-21 -2,-15 -3,-6 6,-10 38,-2 36,1 66,-12 27,-12 38,-13 72,-11 34,11 45,18 68,36l12 2c11,-22 38,-52 55,-85 95,-178 69,-400 -61,-547 -33,-38 -99,-101 -165,-124 -7,4 -12,-7 -2,10 2,8 38,59 47,82 23,58 5,75 11,116l-13 24c-3,7 -7,14 -9,19 -7,12 -17,25 -26,36 -11,13 -16,21 -28,34 -11,12 -20,17 -26,29 -12,6 -7,0 -14,15l12 6c64,36 47,139 21,202l-2 -15c16,-94 -7,-166 -110,-154 -88,11 -154,32 -252,9 -48,-17 -67,-27 -103,-62l-15 -12c-3,-13 -15,-25 -25,-40 -7,-12 -15,-26 -21,-40 -10,-22 -28,-66 -30,-93 -1,-1 -6,-6 -8,-8 -1,-1 -3,-1 -3,-3 -1,-2 -2,-2 -3,-3 -15,28 -30,46 -47,79 -13,25 -26,63 -33,91 -21,88 -14,136 -4,224l12 5c23,-8 40,-19 67,-26 33,-9 54,-4 84,-9l21 9c63,19 82,65 132,62 10,9 35,7 56,8 -3,11 -5,12 -9,21 -17,3 -29,14 -52,16 -24,3 -47,0 -71,1l-20 -3c-6,8 -13,-12 -3,13 9,21 28,36 42,47 5,-12 -4,-3 12,-7 3,-1 9,-1 12,-1 7,0 16,-2 18,4 31,18 21,37 56,48 15,0 25,-4 33,4l14 5c25,6 25,13 45,21 21,8 26,9 47,19 9,6 1,1 6,9l34 -1 16 5c0,22 2,5 -8,11 -98,45 -237,-14 -305,-57 -43,-28 -72,-57 -109,-85 -31,-24 -86,-68 -113,-76l-2 6zm673 -477l-8 -6c0,0 1,3 1,3 0,1 2,2 3,3l-9 84c-2,7 0,3 -5,12 -4,7 -3,4 -7,8 -6,22 -33,56 -51,67 -7,-5 -4,2 -12,-13 -2,-3 -5,-11 -7,-16 -22,-54 -16,-81 3,-128 35,-42 62,-66 53,-143 -79,-45 -235,-39 -325,-9 -104,35 -179,94 -229,160l5 21c36,36 78,81 161,63 39,-3 72,2 101,15 14,6 22,12 34,23 11,10 18,22 32,28 8,23 24,33 29,60 -33,7 -52,12 -91,11 -37,-1 -60,-13 -88,-16l-62 -37c9,21 35,38 59,48 16,25 106,30 145,25 60,-8 90,-25 155,-27l6 -10 1 2c9,0 7,2 7,-5l5 -8c23,-13 59,-55 76,-82 31,-51 23,-72 20,-131zm-234 571l15 -16 -13 -1 -28 -4c-11,15 -14,26 -39,28 13,-15 12,-5 30,-33l-28 -6c1,-1 1,-3 2,-4l-5 -13 13 -10 7 10 17 16c1,1 2,2 3,2l20 2c-8,-18 -14,-20 -29,-31l16 0c3,-8 3,-1 -4,-12l13 2c4,19 9,29 19,40l10 -10 18 9c10,-1 5,1 12,-2 7,-3 7,-4 10,-7 -9,-2 -32,-6 -37,-12 0,-1 -1,-2 -2,-3 -10,-11 -6,-5 -19,-12 12,-2 21,-4 28,-7 17,10 18,18 31,29 32,-1 73,-45 87,-66 9,-14 19,-37 22,-54 6,-33 -4,-40 -4,-65 -14,-9 -6,-3 -15,-15 -4,-6 -6,-8 -10,-12l2 -6c13,6 18,13 28,25 23,25 26,57 16,100 -21,62 -59,84 -113,117 -5,17 -10,25 -22,32 -6,-8 7,-3 -12,-9 8,-4 12,-4 17,-9 3,-4 2,1 5,-8 2,-9 4,-2 -3,-6l-32 12c-13,20 -30,48 -54,54l22 -25c-5,-2 -7,-1 -12,-3 -9,-3 -5,-2 -9,-4l27 -10zm33 19l18 -9c-6,13 -18,23 -36,25l19 -16zm78 -374c-21,8 -28,14 -50,0l-14 -9c0,-29 -4,-63 39,-60 36,3 39,38 25,69z"/>
  <path class="fil0 str0" d="M3542 1608c48,-4 83,-51 83,-105 0,-54 -37,-96 -88,-98 -11,-11 -42,-6 -60,-6 -70,-1 -48,-2 -53,9l20 1 0 194 -20 5c6,4 0,3 15,5l43 0c21,0 44,3 59,-5zm99 -9l-15 9c7,5 7,6 16,6m2 0c1,0 3,0 5,0 27,0 25,-6 25,-6l-20 -5 24 -63 73 2 19 62c-18,0 -9,-3 -21,4 12,7 13,5 34,5 32,0 25,2 33,-7l-16 -4 -74 -202c-11,12 -26,49 -27,70 -7,6 -5,-1 -12,15 -11,25 -30,94 -46,114m-335 -190c17,-2 8,2 18,-6 -11,-8 -34,-8 -47,0l20 5c-9,30 -29,65 -30,95l-9 14c-7,17 -8,34 -21,47l-53 -149 -1 -8c5,0 7,0 12,-1 1,0 3,0 3,-2 1,-1 2,-1 3,-2 -11,-7 -6,-5 -33,-5 -43,-1 -28,2 -34,7l15 4 80 203c11,-14 38,-88 38,-108 11,-10 15,-29 21,-46 6,-18 12,-31 17,-49zm208 0c103,16 98,189 15,193l-58 0 0 -194 43 1zm224 106l3 18 -61 0 21 -62 12 -23 25 67zm-351 89l-1 0c0,-1 -1,-1 -1,-1l-2 -95 0 0 2 93c0,-1 1,2 2,3zm-29 5l0 0c3,-14 4,-57 4,-100 0,42 -1,83 -4,99zm4 -120c0,-38 -2,-74 -5,-86l0 0c2,14 4,49 4,86zm22 -86l0 0c-2,14 -2,31 -2,47 0,-16 0,-32 2,-47zm-1 93c0,3 0,7 0,10 0,-3 0,-6 0,-10zm4 108l1 -191c1,-1 2,-1 3,-2l9 -4c8,-6 1,2 6,-7 -20,-3 -55,-7 -69,5l19 8 0 185 -19 10c15,8 54,11 68,-2l-18 -2z"/>
  <path class="fil0 str0" d="M3414 1766l0 -56 37 5c13,34 1,50 -37,52zm-1530 0l-1 -25c1,0 3,-1 4,-1 1,0 3,-1 4,-1 10,-3 9,1 11,-4 1,-2 2,-1 4,-2l-15 -7c-6,-2 -6,-2 -9,-4l0 -13 35 -4c-11,-8 -21,-5 -41,-5l-1 69c13,7 31,8 44,0 -13,-8 -16,-5 -34,-4zm1434 -65c-5,7 -4,-5 -7,16 -2,11 -2,42 7,56l0 -72zm-648 28c-8,-17 -6,-17 -24,-28 0,21 -6,57 5,72 6,-11 3,-32 3,-47 6,4 8,1 12,6l7 16c22,-7 16,-11 28,-23 1,20 -3,37 8,50l-1 -71c-10,10 -20,22 -29,32l-9 -6zm-620 32c-25,3 -54,11 -53,-24 1,-36 34,-26 38,-26l12 -2c-29,-18 -41,-3 -56,14 -6,58 45,65 60,39zm1514 -41c7,27 11,18 -11,21 2,-7 0,-4 3,-11 4,-8 4,-5 7,-9zm-30 53c13,-10 8,-10 16,-25l23 -1c8,23 8,18 18,24l-27 -69c-11,10 -29,55 -29,71zm-2012 -65c-27,-19 -60,-1 -57,33 3,34 38,41 62,23 -13,-6 -79,14 -44,-54l39 -2zm773 14l6 19 -17 -2 10 -17zm-12 25l22 2 16 24c0,-17 -18,-58 -27,-69 -10,13 -31,57 -23,69l12 -26zm251 -30c13,-10 -17,-2 16,-9 7,-1 15,1 17,-7l-41 -1 1 73c17,2 29,3 42,-3 -13,-7 -18,-4 -35,-4l0 -25c5,-4 3,-3 11,-7 1,0 10,-3 11,-3 -1,-1 -3,-1 -3,-2 -32,-15 -10,3 -19,-12zm649 -5c-10,-17 -1,-3 -12,-12 3,23 19,55 30,70 13,-16 25,-45 31,-69 -9,7 -6,0 -17,24 -5,11 -7,16 -13,25l-19 -38zm-1429 5c8,-15 22,-9 38,-7 -17,-22 -40,-8 -45,2 -3,31 15,25 38,32 5,28 -20,21 -40,18 0,0 1,16 30,11 14,-3 12,-5 19,-13 2,-46 -30,-10 -39,-43zm1196 -4c18,-11 16,4 36,-12 -23,-3 -32,-4 -46,11 -2,30 13,24 40,32l-4 17c-17,6 -18,3 -37,2 11,12 -10,3 13,10 14,4 36,-2 37,-18 -9,-40 -47,-11 -38,-42zm-818 60c3,-3 5,1 6,-17 0,-6 -1,-15 -1,-21l41 2c-1,19 -4,24 6,37 5,-22 5,-52 -3,-74l-3 27 -40 1 -5 -27c-6,14 -8,55 -1,72zm276 -65l24 4c5,22 0,25 -25,26l1 -31zm26 38c0,0 35,-54 -32,-44 -5,18 -7,58 4,71l2 -27c34,4 14,17 43,28 -6,-12 -9,-20 -17,-28zm-829 -23c25,-13 32,-27 57,-1l-1 30 -12 13c-35,4 -39,-12 -44,-41zm0 0c-1,1 -8,-9 -6,18 0,4 5,17 6,19 20,31 77,9 65,-33 -19,-37 -65,-32 -65,-4zm1195 18c-5,-39 53,-44 57,-10 5,42 -53,44 -57,10zm-6 -21c-4,32 4,55 37,53 31,-2 36,-23 33,-53 -24,-28 -45,-29 -69,-1zm614 52c33,4 60,-2 58,-36 -1,-32 -25,-37 -59,-36l0 72z"/>
 </g>
</svg>
