<?xml version="1.0" encoding="UTF-8"?>
<!DOCTYPE svg PUBLIC "-//W3C//DTD SVG 1.1//EN" "http://www.w3.org/Graphics/SVG/1.1/DTD/svg11.dtd">
<!-- Creator: CorelDRAW X6 -->
<svg xmlns="http://www.w3.org/2000/svg" xml:space="preserve" width="297mm" height="210mm" version="1.1" style="shape-rendering:geometricPrecision; text-rendering:geometricPrecision; image-rendering:optimizeQuality; fill-rule:evenodd; clip-rule:evenodd"
viewBox="0 0 29700 21000"
 xmlns:xlink="http://www.w3.org/1999/xlink">
 <defs>
  <style type="text/css">
   <![CDATA[
    .str0 {stroke:#75632D;stroke-width:7.62}
    .fil0 {fill:#75632D}
   ]]>
  </style>
 </defs>
 <g id="Capa_x0020_1">
  <metadata id="CorelCorpID_0Corel-Layer"/>
  <path class="fil0 str0" d="M1619 10274c78,178 632,2941 798,3528 79,281 326,266 446,38l83 -135 43 -248c52,-146 32,-79 79,-124 -6,-209 201,-675 269,-916l91 -238c106,136 587,1580 586,1725l55 37c142,85 119,77 316,43 32,-62 72,-130 99,-243 13,-53 18,-110 33,-163 4,-13 13,-50 18,-62 57,-137 5,-20 53,-85 -20,-179 45,-385 96,-578l511 -2345c78,-244 73,-296 30,-511 -407,-105 -402,57 -479,405l-485 2214c-24,66 -22,44 -49,79l-38 157 -353 -1099c-79,-149 -103,-502 -300,-587l-168 9c-70,30 -27,3 -86,55 -24,21 -38,55 -43,47 -4,-8 -15,17 -23,26 -2,148 -309,1043 -369,1151l-96 344c-8,22 -3,69 -31,100l-52 -73c-28,-465 -359,-1309 -328,-1701 -102,-118 -156,-558 -189,-720 -60,-298 -31,-465 -408,-428 -84,78 -115,131 -108,299z"/>
  <path class="fil0 str0" d="M16156 13398c-17,21 1,46 -85,87 -94,45 -52,18 -128,18 -79,86 -270,46 -385,44l-235 5 -271 1 -189 -6 -8 -3114c296,-5 690,-19 978,-3 251,14 517,224 494,471 30,37 32,-49 45,116 2,429 -3,860 -3,1290 0,361 68,987 -212,1092zm-1485 616l295 -2 315 2 124 0 204 0 143 -3c632,-19 1034,-376 1078,-1000 36,-524 41,-1606 -5,-2122 -35,-183 -36,-245 -118,-398 -89,-165 -178,-206 -249,-324 -83,-36 -224,-95 -304,-155 -393,-93 -870,-47 -1297,-49l-338 2c-223,142 -130,681 -130,974l-8 2267c-2,381 -122,798 290,809z"/>
  <path class="fil0 str0" d="M1244 9323l1533 5 25 6 112 0 263 1 615 -4 364 3 366 0 672 0 208 3 401 1c-23,264 -275,1487 -368,1649 4,133 -18,176 -45,297 -5,25 -23,117 -28,130 -43,138 -27,68 -58,108 16,181 -126,799 -191,980 -36,238 -250,1393 -360,1507l-23 212 -7 127 -19 -10c-91,104 33,26 -90,69l-820 8 -16 0 -324 0 -527 2 -801 -3 -92 -468c-82,-241 -521,-2247 -499,-2410 -104,-163 -274,-1086 -266,-1207 -92,-101 -212,-817 -239,-998l214 -10zm-457 144l1149 5170 -18 17c330,45 2742,39 2953,-23 113,-166 69,-425 190,-549 -25,-291 240,-1138 296,-1501l762 -3448 -97 -29 -152 -5c-353,-64 -1200,-11 -1607,-12 -273,-1 -547,-1 -821,-1 -168,0 -652,70 -738,-40l-487 22 -107 7 -105 1 -635 2 -131 -4 -149 3 -123 -8 -170 12c-77,132 -32,218 -10,386z"/>
  <path class="fil0 str0" d="M24827 11954c40,-172 85,-311 274,-296 96,-97 700,-45 849,-35l-11 1919c-137,18 -724,43 -850,-30 -123,-23 -137,-22 -191,-149 -20,-6 -24,87 -68,-84 -13,-50 -12,-135 -12,-188 -1,-130 3,-262 3,-392 -1,-234 -14,-520 6,-743zm-359 1681l32 -1 42 119c105,32 68,23 126,107l66 67 416 91 584 -1 213 10c-3,301 23,349 -73,591 -43,33 -25,6 -73,13 -52,93 74,19 -94,87 -41,17 -118,17 -172,23l-567 0 -186 -4c-257,48 -305,295 -117,439 185,70 820,42 1052,16l72 19c49,-49 -71,-37 131,-57 90,-70 197,-136 290,-179l0 -47c64,-86 -4,-11 60,-42 160,-390 140,-374 143,-860l-5 -1954c-1,-309 58,-706 -73,-896l-1319 -11c-480,105 -661,463 -664,946 -3,516 -46,1094 116,1524z"/>
  <path class="fil0 str0" d="M12125 11827c31,-141 65,-141 215,-192l-27 -5c22,-12 43,-32 113,-47 7,-1 109,-7 121,-7 171,-4 520,-12 645,47 40,221 18,745 16,996 -1,173 73,859 -59,926 -160,16 -758,84 -824,-45 -168,22 -23,10 -96,-22 -178,-77 94,99 -41,-46 -30,-17 -59,-15 -102,-118 -39,-93 -96,-1364 39,-1487zm1120 -1787c-116,331 -1,765 -51,1115 -182,71 -714,34 -943,32 -369,12 -642,361 -656,768 -16,448 -14,960 5,1407 49,148 108,252 160,368 244,146 235,265 691,286l109 0c257,-3 854,55 1030,-71 96,-256 41,-1612 42,-1990 1,-407 74,-1667 -39,-1950 -76,-21 -369,-82 -348,35z"/>
  <path class="fil0 str0" d="M9264 12358c0,-245 -4,-395 133,-544 244,-263 974,-396 996,539l-1129 5zm-130 -977l-111 117 -147 232 -44 163c-46,328 -28,688 -29,1038 0,437 -4,588 243,834 154,183 327,236 615,249l21 -1 506 -2 180 0 286 -2c364,-101 163,-414 99,-448 -210,-22 -422,-13 -630,-8 -105,3 -208,-3 -313,-2 -364,3 -224,-5 -273,-47l-89 -16c-238,-178 -178,-294 -189,-635l1567 -46 26 -110c10,-442 33,-630 -102,-1006 -126,-136 -116,-179 -276,-321 -95,-84 -280,-115 -374,-215l-56 11 -430 3c-227,42 -334,167 -483,213z"/>
  <path class="fil0 str0" d="M6667 11804c18,-53 -69,-42 24,-57l47 -2c149,-184 502,-152 645,35 225,105 225,350 217,577l-230 -2 -504 1 -200 2 -177 -9c-42,-107 -31,-201 -1,-315 40,-153 59,-168 178,-229zm-648 1547c71,347 242,377 314,523 54,19 96,26 142,51 100,53 54,36 93,76l341 14 434 -2c227,9 514,7 672,-41 45,-145 44,-134 31,-306l-72 -102c-205,-21 -415,-16 -624,-16l-472 3c-171,-12 -90,4 -141,-51 -80,-10 -67,28 -164,-64 -62,-60 -75,-100 -68,-200 -76,-49 -41,-208 -43,-406l1597 -12c-16,-439 45,-710 -97,-1117 -42,-52 -66,-91 -117,-165l-112 -122c-70,-44 -61,-50 -131,-100 -42,-30 -30,-17 -76,-45 -55,-33 -49,-29 -77,-50l-170 -33 -46 -19 -452 20c-370,88 -642,363 -732,711 -71,275 -56,1148 -29,1454z"/>
  <path class="fil0 str0" d="M18039 12358c-27,-984 1139,-1000 1134,-3l-1134 3zm-157 -915l-186 227c-3,-6 -13,13 -19,20 -24,142 7,40 -59,78 13,158 -43,353 -42,538 0,208 2,417 2,625 -1,603 83,627 326,948 159,41 223,98 463,133l292 -1 413 5 257 0 164 -12 -17 8c190,-117 224,-255 66,-453l2 -1c-227,-10 -438,-9 -664,-8 -166,1 -474,44 -580,-52 -149,5 -219,-101 -233,-255 -34,-43 -22,1 -38,-79l-2 -350 1591 -3c33,-450 19,-824 -119,-1185 -201,-88 -177,-391 -734,-458 -454,-54 -612,70 -881,275z"/>
  <path class="fil0 str0" d="M3272 4737l23 3035c-77,-56 -156,-144 -216,-224 -80,-108 -140,-128 -162,-258 -123,-58 -162,-115 -223,-221 -90,-87 -202,-215 -282,-342 -102,-68 -306,-415 -417,-424 -305,88 -83,229 19,369 73,85 77,77 127,189 60,29 255,249 297,308 118,155 213,241 319,419 6,4 23,-9 55,37 44,62 13,2 44,91l116 97c74,73 69,77 116,156l-232 -35 -125 -27 -267 -57 -293 -52 -196 14 1 191 253 96c164,-18 315,24 471,69 65,9 104,5 165,23 141,40 71,27 121,64l-286 109c-84,95 -221,63 -241,192 -21,140 73,175 204,123 111,-44 96,-53 231,-88 51,-90 273,-176 397,-227 147,-61 344,22 463,119l352 151 61 24 56 23 186 -9 0 -197c-173,-67 -383,-163 -546,-236 128,-75 367,-110 539,-98 0,-66 353,-57 468,-156 39,-144 43,-75 -23,-170 -103,-46 -300,2 -429,46l-237 35 -227 43 -222 29 166 -213c47,-63 89,-95 148,-161 100,-112 59,-105 191,-186l131 -192c72,-106 170,-208 231,-280 97,-116 146,-181 225,-281l162 -165c4,-15 17,-13 26,-20l-18 -62 15 -32c-53,-41 -52,-33 -121,-73l-110 30 -37 33 -360 387c-11,99 -147,215 -237,312 -126,135 -106,213 -294,305 -24,94 -33,110 -106,191l-192 178 21 -865c-67,-121 -46,-1057 -44,-1213 2,-208 2,-417 3,-625 0,-230 24,-483 -257,-300z"/>
  <path class="fil0 str0" d="M27169 13865l-4 81c129,51 191,61 351,47l78 -45 17 -2192c14,-154 -5,-55 31,-89 47,-93 88,-56 382,-50 79,1 158,0 237,1 168,2 137,-4 188,38 387,-53 293,636 289,964 -5,396 -20,838 -2,1230l79 118c188,62 261,64 370,-65 62,-454 8,-1222 12,-1713 3,-306 -10,-507 -156,-707 -98,-134 -279,-273 -510,-316 -1578,-73 -1380,-41 -1378,671l15 2028z"/>
  <path class="fil0 str0" d="M20522 11408c-23,45 -43,97 -68,132 -41,56 -18,20 -70,57 5,307 -62,392 87,691 45,48 65,73 96,122 286,182 622,331 960,494 164,79 364,123 417,285 77,235 -145,387 -360,316 -47,50 17,34 -125,44l-375 -61c-8,-4 -19,-14 -28,-20l-113 7 -3 -26c-126,-32 -52,4 -121,-30 -87,-43 -50,-20 -80,-76l-23 14 -232 1c-45,77 69,37 -106,76l9 292c168,47 47,-4 96,76l60 16c63,27 68,32 130,57 36,15 49,13 84,33 70,39 25,11 70,57l181 10 210 24 443 -2 168 10c101,-96 242,-87 413,-253 141,-137 181,-263 185,-500 -81,-465 -131,-372 -322,-587 -156,-64 -334,-148 -496,-233 -99,-52 -134,-70 -236,-114 -39,-16 -99,-40 -133,-60 -153,-89 -33,-15 -99,-80 -87,-6 -93,13 -151,-68 -161,-83 -187,-96 -138,-338l77 -37c25,-59 -44,-37 90,-34 40,-68 31,-56 163,-66 38,-3 159,0 201,3 150,9 219,21 319,97 259,8 59,114 466,48 37,-93 47,-199 49,-329 -272,-128 -454,-280 -874,-291 -173,-5 -337,15 -490,69 -148,52 -241,162 -330,177z"/>
  <path class="fil0 str0" d="M23169 13909c128,117 165,120 368,78l77 -117 -9 -2626 -115 -75c-386,-20 -334,113 -330,473 2,248 4,495 4,743 -1,499 -13,1029 5,1524z"/>
 </g>
</svg>
