<?xml version="1.0" encoding="UTF-8"?>
<!DOCTYPE svg PUBLIC "-//W3C//DTD SVG 1.1//EN" "http://www.w3.org/Graphics/SVG/1.1/DTD/svg11.dtd">
<!-- Creator: CorelDRAW X6 -->
<svg xmlns="http://www.w3.org/2000/svg" xml:space="preserve" width="80mm" height="70mm" version="1.1" style="shape-rendering:geometricPrecision; text-rendering:geometricPrecision; image-rendering:optimizeQuality; fill-rule:evenodd; clip-rule:evenodd"
viewBox="0 0 8000 7000"
 xmlns:xlink="http://www.w3.org/1999/xlink">
 <defs>
  <style type="text/css">
   <![CDATA[
    .str0 {stroke:#7B8C30;stroke-width:7.62}
    .fil1 {fill:#533628}
    .fil0 {fill:#7B8C30}
    .fil2 {fill:#A8B958}
    .fil3 {fill:#A2A2A2}
   ]]>
  </style>
 </defs>
 <g id="Capa_x0020_1">
  <metadata id="CorelCorpID_0Corel-Layer"/>
  <path class="fil0" d="M3940 6207c-72,-347 428,-419 491,-123 75,350 -430,420 -491,123zm-992 -295l9 71c14,49 17,83 44,125 54,86 30,36 75,68 27,166 263,331 407,408 588,317 1306,78 1620,-529 200,128 331,307 722,235 359,-66 458,-316 549,-405 468,188 697,-81 648,-584l-834 -13 -11 -2796c-71,90 -172,154 -284,176l-1 2628 -2086 6 -278 -2 -1845 1 -12 -3296c145,-107 358,-215 516,-301l1060 -596c168,-93 373,-238 548,-291l1739 978c10,-7 21,-13 33,-20 57,-31 111,-49 185,-57 162,-19 324,54 424,179l0 -51c-27,-69 -2315,-1352 -2381,-1355 -123,-6 -1750,966 -2130,1167 -86,45 -239,113 -274,189 -86,182 58,3109 -34,3455l-818 6c-7,376 40,770 613,609 194,184 278,400 702,391 229,-5 420,-114 556,-273 94,-109 -3,-68 144,-124 52,51 -73,21 95,47 20,3 73,0 95,-2 88,-9 98,-28 206,-40zm-848 -106l56 60c20,190 -59,209 -217,157 -48,-155 -20,-231 161,-218zm3631 -15c321,-77 325,241 47,212l-55 -62 8 -150zm-1192 -138c255,-73 330,143 117,229 -89,-26 -59,-14 -117,-59l1 -170z"/>
  <path class="fil1" d="M3674 5322l311 3c-43,-239 -82,-448 -23,-702 49,-211 212,-419 224,-496l-15 -30 -127 105c-222,261 -178,332 -292,476 -5,-446 150,-688 -132,-1048 260,967 -246,616 54,1693z"/>
  <path class="fil2" d="M3244 3261l-220 -95c-192,-70 -507,-142 -705,-100 -6,12 -17,-3 2,16 75,98 288,227 382,281 76,44 269,117 356,137 21,5 30,3 51,10l27 6c-20,4 -7,0 -22,3 -201,31 -283,73 -477,188l-12 33c175,66 432,55 671,-55 -56,93 -141,132 -201,365 107,-48 239,-139 311,-226 139,-168 130,-222 173,-283 56,23 241,-18 314,-39 120,-36 231,-111 334,-194 -41,-18 -146,-13 -203,-8 -89,8 -131,32 -213,48 162,-158 269,-316 306,-529 6,-34 19,-52 2,-80 -89,44 -173,108 -237,177 -63,68 -101,135 -156,200 -3,-30 41,-200 22,-448 -8,-101 -53,-375 -112,-479 -40,61 -79,164 -102,230 -29,83 -50,158 -66,240 -47,243 -26,293 -17,502 -109,-195 -107,-276 -301,-507 -85,-101 -292,-306 -389,-333 53,278 132,480 303,720 49,69 145,162 180,221z"/>
  <path class="fil2" d="M4387 3828l46 -136c33,-118 61,-309 27,-425 -8,-3 1,-10 -10,2 -55,49 -122,182 -150,241 -23,48 -57,166 -65,218 -2,12 0,18 -4,31l-2 16c-3,-11 0,-4 -3,-13 -28,-119 -57,-166 -134,-275l-20 -6c-31,108 -13,260 63,397 -58,-29 -85,-78 -227,-103 34,61 94,136 149,175 106,75 138,67 176,90 -11,35 22,143 38,185 27,70 77,132 131,190 9,-25 1,-88 -5,-122 -9,-52 -25,-77 -38,-125 102,90 201,145 329,158 21,2 32,9 48,-2 -30,-51 -73,-98 -116,-133 -44,-35 -85,-54 -126,-84 17,-3 121,15 268,-8 60,-9 221,-49 280,-89 -38,-21 -102,-39 -142,-50 -51,-14 -97,-22 -146,-28 -147,-17 -176,-2 -300,13 111,-74 160,-77 288,-203 56,-55 169,-188 180,-247 -163,44 -280,101 -415,214 -39,32 -90,94 -124,117z"/>
  <path class="fil2" d="M5471 2668l-18 -13c-7,-6 -12,-8 -17,-13 -7,-5 -16,-13 -19,-19 -7,-3 -6,-3 -12,-8 -5,-5 -5,-5 -9,-9 -7,-7 -11,-11 -19,-20l-31 -37c-4,-3 1,1 -4,-4 -1,0 -2,-2 -3,-2 -5,-5 -2,-1 -4,-6 -7,-13 -15,-22 -23,-35 -7,-11 -14,-23 -20,-36 -85,-162 -92,-342 -17,-510 14,-32 42,-81 62,-105l8 -9 6 -9c6,-7 8,-10 14,-17 6,-6 8,-11 15,-16l11 -12c2,-6 1,-6 8,-11l27 -22 9 -6 13 -9c2,-5 12,-11 18,-14 7,-6 8,-8 17,-11 7,-8 55,-34 68,-40 95,-40 160,-59 271,-55 105,3 250,51 320,115 2,1 4,3 6,4 3,2 2,2 4,4 8,4 34,24 37,32 15,8 32,28 42,42 6,1 5,2 9,7 3,4 6,7 8,12 7,7 19,21 23,32 9,5 40,62 47,78 102,210 63,474 -98,641 -6,6 -8,10 -14,16l-33 30c-191,165 -465,183 -684,48 -6,-4 -12,-9 -17,-12zm449 -1268c-24,-1 -56,-4 -80,-7 -86,-10 -200,18 -227,18 -8,-27 -65,-145 -77,-160 -15,-19 -50,-37 -87,-27 -15,4 -152,67 -163,75 -65,46 -30,111 -3,166 13,27 27,55 37,81l-112 102c-18,17 -84,102 -92,123 -42,-10 -141,-58 -174,-59 -79,-1 -90,75 -109,124 -20,54 -61,123 1,171 29,22 167,59 167,68 0,1 0,2 0,2l0 14c-9,76 -10,135 0,212 3,22 11,54 12,75 -22,16 -129,54 -160,79 -18,15 -37,51 -27,86 6,22 26,60 37,83 23,52 43,125 118,118 36,-4 126,-58 170,-71 25,41 119,131 158,161l63 45c-3,27 -58,140 -58,175 0,78 77,88 126,107 59,23 125,57 169,-2 12,-17 58,-141 66,-168 66,3 70,12 157,8 54,-3 96,-12 147,-18 12,13 58,137 78,159 54,58 107,20 169,-8 22,-10 62,-26 81,-38 25,-16 40,-49 37,-80 -3,-35 -57,-123 -71,-169l43 -34c24,-19 75,-70 94,-95 9,-11 15,-18 24,-29 16,-20 28,-41 45,-63 23,1 140,58 175,58 76,1 88,-75 107,-126 22,-61 59,-124 -2,-170 -19,-14 -56,-25 -82,-34 -27,-10 -59,-23 -85,-31 1,-25 5,-51 7,-77 2,-34 3,-65 0,-96l-6 -58c-3,-24 -10,-52 -12,-76 13,-3 148,-65 161,-78 18,-18 37,-49 26,-87l-37 -82c-24,-48 -40,-126 -121,-116 -31,4 -140,64 -166,71l-47 -57c-29,-37 -138,-132 -175,-147 2,-17 23,-66 30,-85 20,-55 56,-119 -12,-164 -11,-7 -156,-61 -170,-63 -36,-6 -71,14 -84,32 -17,24 -38,90 -51,125 -5,14 -12,29 -16,43z"/>
  <path class="fil0 str0" d="M6046 1105c-51,2 -99,32 -124,58 -11,12 -29,39 -36,60 -5,13 -19,48 -23,65 -2,3 -3,5 -3,6 -9,6 -72,2 -95,3 -33,1 -62,6 -93,8 -29,-35 -33,-121 -122,-162 -92,-42 -148,-2 -221,30 -80,35 -125,51 -159,124 -17,36 -19,82 -8,122 9,31 37,79 43,100 -6,6 -10,8 -15,15l-49 49c-10,9 -53,61 -58,73 -49,-8 -121,-70 -224,-19 -14,7 -31,19 -41,29 -11,11 -23,23 -32,38 -15,24 -30,72 -41,102 -28,79 -60,139 -13,222 35,61 74,69 119,88 13,6 39,13 51,20 3,26 -2,65 0,96 1,28 8,65 8,90 -66,30 -132,52 -162,121 -39,90 -4,147 30,221 33,70 48,126 125,160 105,46 184,-32 223,-36 10,19 75,77 98,96 12,10 23,19 36,29 -26,74 -63,137 -20,221 36,70 85,85 168,114 80,28 136,61 222,15 79,-43 83,-117 110,-172 106,3 88,0 186,-7l45 95c20,29 41,51 75,67 87,41 149,3 220,-30 28,-13 73,-31 96,-47 61,-43 95,-124 71,-201 -9,-28 -39,-78 -42,-101 13,-8 22,-19 34,-31 12,-12 22,-22 33,-33l60 -70c43,15 93,41 145,39 58,-2 102,-30 128,-59 31,-35 42,-74 61,-126 14,-38 45,-106 37,-146 2,-43 -28,-95 -56,-121 -14,-13 -31,-26 -53,-36 -13,-6 -57,-23 -68,-23l-17 -9c-1,-29 2,-64 1,-95 -1,-32 -5,-60 -9,-91l95 -45c29,-20 53,-42 67,-75 41,-93 4,-146 -30,-221 -35,-78 -50,-125 -123,-159 -35,-17 -83,-19 -123,-8 -32,9 -68,32 -99,43l-66 -65c-11,-12 -22,-20 -35,-30 -8,-7 -10,-8 -18,-15 -5,-5 -15,-10 -19,-15 13,-48 40,-85 39,-143 -1,-55 -29,-105 -57,-128 -39,-34 -72,-43 -122,-60 -43,-15 -98,-42 -147,-40 -2,0 -3,0 -4,1zm607 1103c0,-5 0,-1 3,-1 9,1 0,-5 1,1 1,5 -4,3 -4,0zm-732 -809c3,-14 11,-30 16,-43 13,-35 33,-101 51,-125 13,-18 48,-38 84,-32 14,2 159,56 170,63 67,45 32,110 12,164 -7,19 -28,69 -30,85 37,15 147,110 175,147l47 57c27,-7 135,-67 166,-71 80,-10 97,68 121,116l37 82c11,37 -8,69 -26,87 -13,13 -148,75 -161,78 2,24 9,51 12,76l6 58c3,31 2,61 0,96 -2,26 -6,52 -7,77 26,8 59,21 85,31 26,10 63,20 82,34 61,46 25,109 2,170 -19,51 -31,127 -107,126 -35,0 -152,-57 -175,-58 -17,22 -28,43 -45,63 -9,12 -15,18 -24,29 -20,25 -71,76 -94,95l-43 34c15,47 68,134 71,169 3,32 -12,64 -37,80 -19,12 -59,29 -81,38 -62,28 -115,66 -169,8 -20,-21 -66,-146 -78,-159 -51,6 -93,16 -147,18 -87,4 -91,-4 -157,-8 -8,26 -53,151 -66,168 -44,60 -110,25 -169,2 -50,-19 -126,-29 -126,-107 0,-35 55,-148 58,-175l-63 -45c-40,-30 -134,-120 -158,-161 -44,14 -133,68 -170,71 -75,7 -95,-65 -118,-118 -10,-23 -30,-61 -37,-83 -10,-35 8,-72 27,-86 31,-25 138,-62 160,-79 -1,-21 -9,-53 -12,-75 -10,-77 -9,-136 0,-212l0 -14c0,-1 0,-1 0,-2 -1,-9 -139,-46 -167,-68 -62,-47 -21,-117 -1,-171 18,-49 30,-125 109,-124 33,0 132,49 174,59 9,-20 75,-106 92,-123l112 -102c-11,-26 -24,-54 -37,-81 -27,-55 -61,-120 3,-166 12,-8 149,-71 163,-75 36,-10 71,9 87,27 12,14 69,133 77,160 27,0 141,-28 227,-18 24,3 56,6 80,7z"/>
  <path class="fil0 str0" d="M5346 2548l31 37c7,9 11,13 19,20 4,4 5,4 9,9 5,6 5,5 12,8 3,6 12,14 19,19 6,6 10,8 17,13l18 13c6,3 11,8 17,12 219,135 493,118 684,-48l33 -30c6,-6 9,-10 14,-16 161,-167 199,-432 98,-641 -7,-15 -38,-73 -47,-78 -4,-10 -16,-25 -23,-32 -2,-5 -5,-7 -8,-12 -4,-6 -3,-6 -9,-7 -10,-14 -27,-34 -42,-42 -2,-8 -29,-29 -37,-32 -2,-2 -1,-2 -4,-4 -2,-2 -3,-3 -6,-4 -71,-64 -216,-111 -320,-115 -110,-4 -176,15 -271,55 -13,6 -61,32 -68,40 -9,4 -10,5 -17,11 -7,3 -16,10 -18,14l-13 9 -9 6 -27 22c-7,5 -7,5 -8,11l-11 12c-7,5 -9,10 -15,16 -7,7 -8,10 -14,17l-6 9 -8 9c-20,24 -48,74 -62,105 -75,167 -69,348 17,510 7,13 13,24 20,36 8,13 16,22 23,35 3,4 0,1 4,6 0,1 2,2 3,2 5,5 0,0 4,4zm405 -832c190,-22 380,82 469,247 29,53 51,114 58,183 28,278 -182,505 -430,528 -282,26 -503,-181 -528,-429 -16,-159 52,-309 143,-394 33,-31 34,-29 67,-55 11,-8 23,-15 36,-22 57,-30 111,-49 185,-57z"/>
  <path class="fil3" d="M6653 2209c0,3 5,5 4,0 -1,-5 7,0 -1,-1 -3,0 -3,-4 -3,1z"/>
  <path class="fil2" d="M6723 3659l-11 -8c-4,-3 -7,-4 -10,-8 -4,-3 -9,-8 -11,-11 -4,-2 -4,-2 -7,-5 -3,-3 -3,-3 -6,-5 -4,-4 -7,-7 -11,-12l-18 -22c-2,-2 0,1 -2,-2 0,0 -1,-1 -1,-1 -3,-3 -1,-1 -3,-3 -4,-7 -9,-13 -14,-20 -4,-7 -8,-14 -12,-21 -50,-95 -54,-202 -10,-300 8,-19 25,-48 37,-62l5 -6 4 -5c4,-4 4,-6 8,-10 4,-4 5,-7 9,-9l6 -7c1,-3 1,-3 5,-6l16 -13 5 -4 7 -5c1,-3 7,-7 11,-8 4,-4 5,-4 10,-7 4,-5 32,-20 40,-23 56,-24 94,-35 160,-32 62,2 147,30 189,68 1,1 2,1 3,2 2,1 1,1 2,2 5,2 20,14 22,19 9,4 19,16 25,25 4,1 3,1 5,4 2,3 3,4 5,7 4,4 11,13 13,19 6,3 23,37 28,46 60,124 37,279 -58,378 -3,3 -5,6 -8,10l-19 18c-113,98 -274,108 -403,28 -4,-2 -7,-5 -10,-7zm265 -748c-14,-1 -33,-2 -47,-4 -51,-6 -118,10 -134,10 -5,-16 -38,-86 -45,-94 -9,-11 -30,-22 -51,-16 -9,2 -89,39 -96,44 -38,27 -18,65 -2,98 8,16 16,32 22,48l-66 60c-10,10 -49,60 -54,72 -24,-6 -83,-34 -102,-35 -47,0 -53,44 -64,73 -12,32 -36,73 0,101 17,13 98,35 99,40 0,1 0,1 0,1l0 8c-5,45 -6,79 0,125 2,13 7,32 7,44 -13,10 -76,32 -94,46 -11,9 -22,30 -16,51 4,13 16,35 22,49 14,31 26,74 70,69 21,-2 74,-34 100,-42 15,24 70,77 93,95l37 26c-2,16 -34,83 -34,103 0,46 45,52 75,63 35,13 74,34 100,-1 7,-10 34,-83 39,-99 39,2 41,7 92,4 32,-2 57,-7 87,-11 7,8 34,81 46,94 32,34 63,12 100,-5 13,-6 37,-16 48,-23 14,-9 24,-29 22,-47 -2,-21 -34,-72 -42,-100l25 -20c14,-11 44,-41 56,-56 5,-7 9,-10 14,-17 9,-12 16,-24 26,-37 13,1 83,34 103,34 45,0 52,-44 63,-74 13,-36 35,-73 -1,-100 -11,-8 -33,-15 -48,-20 -16,-6 -35,-14 -50,-18 1,-15 3,-30 4,-45 1,-20 2,-38 0,-56l-3 -34c-2,-14 -6,-30 -7,-45 8,-2 87,-38 95,-46 11,-11 22,-29 15,-51l-22 -49c-14,-28 -24,-74 -71,-69 -18,2 -82,38 -98,42l-28 -34c-17,-22 -82,-78 -103,-87 1,-10 14,-39 18,-50 12,-32 33,-70 -7,-97 -6,-4 -92,-36 -100,-37 -21,-4 -42,8 -50,19 -10,14 -22,53 -30,73 -3,8 -7,17 -9,25z"/>
  <path class="fil0 str0" d="M7062 2738c-30,1 -58,19 -73,34 -7,7 -17,23 -21,35 -3,8 -11,28 -14,39 -1,2 -2,3 -2,3 -5,4 -42,1 -56,2 -20,1 -36,3 -55,5 -17,-21 -20,-71 -72,-95 -54,-25 -87,-1 -131,18 -47,21 -74,30 -94,73 -10,21 -11,48 -5,72 5,18 22,46 25,59 -3,4 -6,5 -9,9l-29 29c-6,6 -31,36 -34,43 -29,-5 -71,-41 -132,-11 -8,4 -18,11 -24,17 -7,7 -14,14 -19,23 -9,14 -18,42 -24,60 -17,46 -35,82 -7,131 21,36 44,41 70,52 8,3 23,8 30,12 2,15 -1,38 0,56 1,17 5,38 5,53 -39,18 -78,30 -95,71 -23,53 -3,87 18,130 19,41 29,74 74,94 62,27 109,-19 131,-21 6,11 44,45 58,57 7,6 14,11 21,17 -15,44 -37,81 -12,130 21,41 50,50 99,67 47,17 80,36 131,9 47,-25 49,-69 65,-102 63,2 52,0 109,-4l27 56c12,17 24,30 44,40 52,24 88,2 130,-18 16,-7 43,-18 56,-28 36,-25 56,-73 42,-118 -5,-17 -23,-46 -25,-59 8,-5 13,-11 20,-18 7,-7 13,-13 19,-19l35 -41c25,9 55,24 85,23 34,-1 60,-18 75,-35 18,-20 25,-44 36,-74 8,-22 26,-62 22,-86 1,-26 -17,-56 -33,-71 -8,-8 -18,-15 -31,-21 -8,-3 -34,-13 -40,-13l-10 -5c-1,-17 1,-38 1,-56 -1,-19 -3,-35 -5,-53l56 -27c17,-12 31,-25 40,-44 24,-55 2,-86 -18,-130 -21,-46 -30,-74 -73,-94 -21,-10 -49,-11 -72,-5 -19,5 -40,19 -59,25l-39 -38c-6,-7 -13,-12 -21,-18 -5,-4 -6,-5 -10,-9 -3,-3 -9,-6 -11,-9 8,-28 24,-50 23,-84 -1,-32 -17,-62 -33,-76 -23,-20 -43,-25 -72,-36 -25,-9 -57,-25 -86,-23 -1,0 -2,0 -3,0zm358 650c0,-3 0,-1 2,0 5,0 0,-3 1,0 1,3 -2,2 -2,0zm-432 -477c2,-8 6,-17 9,-25 8,-20 20,-59 30,-73 8,-11 28,-22 50,-19 8,1 94,33 100,37 40,27 19,65 7,97 -4,11 -17,40 -18,50 22,9 86,65 103,87l28 34c16,-4 80,-40 98,-42 47,-6 57,40 71,69l22 49c7,22 -4,40 -15,51 -8,8 -87,44 -95,46 1,14 5,30 7,45l3 34c2,18 1,36 0,56 -1,15 -3,31 -4,45 16,5 35,12 50,18 15,6 37,12 48,20 36,27 15,64 1,100 -11,30 -18,75 -63,74 -20,0 -90,-34 -103,-34 -10,13 -17,25 -26,37 -5,7 -9,11 -14,17 -12,15 -42,45 -56,56l-25 20c9,28 40,79 42,100 2,19 -7,38 -22,47 -11,7 -35,17 -48,23 -37,17 -68,39 -100,5 -12,-13 -39,-86 -46,-94 -30,4 -55,9 -87,11 -51,3 -54,-2 -92,-4 -5,16 -31,89 -39,99 -26,35 -65,15 -100,1 -29,-11 -74,-17 -75,-63 0,-20 33,-87 34,-103l-37 -26c-24,-18 -79,-71 -93,-95 -26,8 -79,40 -100,42 -44,4 -56,-38 -70,-69 -6,-13 -18,-36 -22,-49 -6,-21 5,-42 16,-51 18,-15 82,-37 94,-46 0,-12 -5,-31 -7,-44 -6,-45 -5,-80 0,-125l0 -8c0,0 0,-1 0,-1 0,-5 -82,-27 -99,-40 -36,-28 -12,-69 0,-101 11,-29 18,-74 64,-73 19,0 78,29 102,35 5,-12 44,-62 54,-72l66 -60c-6,-16 -14,-32 -22,-48 -16,-32 -36,-71 2,-98 7,-5 88,-42 96,-44 21,-6 42,5 51,16 7,8 41,78 45,94 16,0 83,-16 134,-10 14,2 33,3 47,4z"/>
  <path class="fil0 str0" d="M6649 3588l18 22c4,5 7,8 11,12 3,2 3,3 6,5 3,3 3,3 7,5 2,3 7,8 11,11 3,3 6,4 10,8l11 8c3,2 6,5 10,7 129,80 291,70 403,-28l19 -18c4,-4 5,-6 8,-10 95,-99 118,-254 58,-378 -4,-9 -22,-43 -28,-46 -2,-6 -9,-15 -13,-19 -1,-3 -3,-4 -5,-7 -3,-3 -2,-4 -5,-4 -6,-8 -16,-20 -25,-25 -1,-5 -17,-17 -22,-19 -1,-1 -1,-1 -2,-2 -1,-1 -2,-1 -3,-2 -42,-38 -127,-66 -189,-68 -65,-2 -104,9 -160,32 -8,3 -36,19 -40,23 -5,2 -6,3 -10,7 -4,2 -9,6 -11,8l-7 5 -5 4 -16 13c-4,3 -4,3 -5,6l-6 7c-4,3 -5,6 -9,9 -4,4 -5,6 -8,10l-4 5 -5 6c-12,14 -28,43 -37,62 -44,99 -41,205 10,300 4,7 8,14 12,21 5,8 10,13 14,20 2,3 0,0 3,3 0,0 1,1 1,1 3,3 0,0 2,2zm239 -491c112,-13 224,48 277,145 17,32 30,67 34,108 16,164 -107,297 -253,311 -166,16 -296,-107 -311,-253 -10,-94 31,-182 84,-232 19,-18 20,-17 39,-32 6,-5 13,-9 21,-13 34,-18 66,-29 109,-34z"/>
  <path class="fil3" d="M7420 3388c0,2 3,3 2,0 -1,-3 4,0 -1,0 -2,0 -2,-3 -2,0z"/>
 </g>
</svg>
