<?xml version="1.0" encoding="UTF-8"?>
<!DOCTYPE svg PUBLIC "-//W3C//DTD SVG 1.1//EN" "http://www.w3.org/Graphics/SVG/1.1/DTD/svg11.dtd">
<!-- Creator: CorelDRAW X6 -->
<svg xmlns="http://www.w3.org/2000/svg" xml:space="preserve" width="50.8mm" height="21.1666mm" version="1.1" style="shape-rendering:geometricPrecision; text-rendering:geometricPrecision; image-rendering:optimizeQuality; fill-rule:evenodd; clip-rule:evenodd"
viewBox="0 0 5080 2117"
 xmlns:xlink="http://www.w3.org/1999/xlink">
 <defs>
  <style type="text/css">
   <![CDATA[
    .str0 {stroke:#4D6631;stroke-width:33.87}
    .fil1 {fill:none}
    .fil0 {fill:#4D6631}
   ]]>
  </style>
 </defs>
 <g id="Capa_x0020_1">
  <metadata id="CorelCorpID_0Corel-Layer"/>
  <path class="fil0" d="M2620 1647c244,-2 407,-208 434,-487 -3,6 -7,12 -13,20 -8,10 -28,17 -40,20 -3,1 -5,1 -6,1 -15,2 -29,0 -43,-7 -14,-6 -25,-16 -35,-29 -9,-13 -15,-28 -17,-45 0,-3 -1,-6 -1,-8 -1,-15 1,-29 8,-42 6,-13 15,-24 27,-33 12,-9 26,-15 41,-18 27,-5 59,3 73,20 3,4 7,11 11,19 0,-45 -2,-92 -6,-140 -12,-135 -73,-283 -85,-465 -205,-2 -462,96 -652,464l13 -13c5,-5 11,-9 18,-12 7,-3 14,-5 21,-5 19,-2 21,3 34,11 17,10 12,43 -18,42 -10,0 -27,-14 -41,7 -5,7 -9,19 -6,34l13 67c5,26 -48,37 -54,5l-11 -71c-14,32 -28,65 -42,100l146 380c32,-81 94,-157 172,-189 -5,-1 -11,-3 -16,-6 -14,-6 -25,-16 -35,-29 -9,-13 -15,-28 -17,-45 0,-3 -1,-6 -1,-8 -1,-15 1,-29 8,-42 6,-13 15,-24 27,-33 12,-9 26,-15 41,-18 25,-5 54,2 70,16 4,-51 10,-99 18,-142 -1,-1 -1,-3 -2,-4 -8,-14 -12,-30 -12,-47 0,-17 4,-32 11,-46 8,-14 18,-25 31,-33 2,-1 4,-2 5,-3 36,-106 91,-188 165,-256 -49,77 -88,158 -119,247 11,1 22,4 33,10 13,7 30,13 33,27 5,27 -30,44 -52,26 -6,-4 -10,-6 -17,-6 -6,0 -12,2 -18,5 -4,14 -8,28 -12,42 0,1 1,1 1,2 3,5 8,10 13,13 5,3 11,5 16,5 6,0 11,-2 16,-5 5,-3 8,-10 12,-13 21,-18 43,-17 52,6 5,11 -4,24 -12,35 -8,11 -19,20 -32,27 -13,7 -26,10 -40,10 -16,0 -30,-4 -44,-13l-1 0c-11,45 -20,92 -29,142 8,20 10,42 -8,47 -1,7 -2,14 -3,22 8,7 10,20 -6,41l-1 8c9,0 18,0 27,1 61,98 69,200 30,305 -7,34 -55,66 -76,86zm-195 -528c19,-2 21,3 34,11 17,10 12,43 -18,42 -10,0 -27,-14 -41,7 -5,7 -9,19 -6,34l13 67c5,26 -48,37 -54,5l-21 -132c-6,-28 37,-34 39,-3l15 -15c5,-5 11,-9 18,-12 7,-3 14,-5 21,-5zm150 18c-20,1 -23,22 -23,36l54 -6c-6,-21 -11,-30 -31,-29zm-68 -275c27,-5 59,3 73,20 13,15 38,71 3,74l-89 9c-2,15 0,36 25,34 8,-1 13,-1 20,-13 15,-26 83,-18 35,38 -8,10 -28,17 -40,20 -3,1 -5,1 -6,1 -15,2 -29,0 -43,-7 -14,-6 -25,-16 -35,-29 -9,-13 -15,-28 -17,-45 0,-3 -1,-6 -1,-8 -1,-15 1,-29 8,-42 6,-13 15,-24 27,-33 12,-9 26,-15 41,-18zm7 47c-20,1 -23,22 -23,36l54 -6c-6,-21 -11,-30 -31,-29zm542 228c1,-9 1,-19 2,-28 -2,1 -4,1 -7,2l-89 9c-2,15 0,36 25,34 8,-1 13,-1 20,-13 10,-17 42,-20 50,-4zm-74 -74c-20,1 -23,22 -23,36l54 -6c-6,-21 -11,-30 -31,-29zm-193 170c-16,0 -30,-4 -44,-13 -14,-9 -24,-20 -32,-35 -8,-14 -12,-30 -12,-47 0,-17 4,-32 11,-46 8,-14 18,-25 31,-33 13,-8 27,-12 43,-12 14,0 28,3 41,10 13,7 30,13 33,27 5,27 -30,44 -52,26 -6,-4 -10,-6 -17,-6 -9,0 -16,3 -23,10 -7,7 -10,14 -10,23 0,6 2,11 5,17 3,5 7,10 13,13 5,3 11,5 16,5 6,0 11,-2 16,-5 5,-3 8,-10 12,-13 21,-18 43,-17 52,6 5,11 -4,24 -12,35 -8,11 -19,20 -32,27 -13,7 -26,10 -40,10zm129 -445c27,-5 59,3 73,20 13,15 38,71 3,74l-89 9c-2,15 0,36 25,34 8,-1 13,-1 20,-13 15,-26 83,-18 35,38 -8,10 -28,17 -40,20 -3,1 -5,1 -6,1 -15,2 -29,0 -43,-7 -14,-6 -25,-16 -35,-29 -9,-13 -15,-28 -17,-45 0,-3 -1,-6 -1,-8 -1,-15 1,-29 8,-42 6,-13 15,-24 27,-33 12,-9 26,-15 41,-18zm7 47c-20,1 -23,22 -23,36l54 -6c-6,-21 -11,-30 -31,-29zm-291 418l0 -1 -1 1 1 0zm1 -55c0,-5 0,-10 0,-15l-79 8c-2,15 0,36 25,34 8,-1 13,-1 20,-13 6,-11 22,-16 34,-14z"/>
  <path class="fil0" d="M2396 1648c-3,-1 -5,-2 -6,-2 -275,-19 -550,-617 -167,-835 37,33 70,65 102,96l-11 11c-2,-31 -45,-25 -39,3l21 132c5,32 59,21 54,-5l-13 -67c-3,-15 2,-26 6,-34 3,-5 7,-8 11,-10 63,65 115,127 157,190 -4,5 -7,10 -10,16 -6,13 -9,27 -8,42 0,2 0,4 1,8 2,17 8,32 17,45 9,13 21,23 35,29 5,2 10,4 16,6 -67,28 -123,89 -158,157 -8,-1 -13,6 -13,27 -32,-47 -61,-96 -87,-151 1,-1 2,-3 4,-5 8,-11 17,-24 12,-35 -8,-18 -24,-23 -40,-14 -4,-9 -8,-19 -12,-29 21,6 45,-10 41,-32 -3,-14 -19,-21 -33,-27 -11,-6 -23,-9 -35,-10 -7,-20 -14,-40 -21,-61 13,-7 23,-15 31,-26 8,-11 17,-24 12,-35 -10,-23 -32,-24 -52,-6 -3,3 -5,7 -9,10 -6,-19 -12,-39 -18,-59 5,0 10,2 15,6 23,18 57,0 52,-26 -3,-14 -19,-21 -33,-27 -13,-7 -27,-10 -41,-10 -16,0 -30,4 -43,12 -13,8 -23,19 -31,33 -8,14 -11,29 -11,46 0,17 4,32 12,47 8,14 19,26 32,35 14,9 28,13 44,13 8,0 16,-1 24,-4 4,19 8,38 13,56 -9,2 -18,5 -26,10 -13,8 -23,19 -31,33 -8,14 -11,29 -11,46 0,17 4,32 12,47 8,14 19,26 32,35 14,9 28,13 44,13 14,0 27,-3 40,-10l0 0c29,62 65,112 107,153 -19,56 -3,122 13,168zm-165 -437c7,22 14,43 22,63 -5,3 -9,4 -14,4 -6,0 -11,-2 -16,-5 -5,-3 -10,-8 -13,-13 -3,-5 -5,-11 -5,-17 0,-9 3,-16 10,-23 5,-5 11,-8 16,-9zm-50 -236c3,23 7,44 10,65 -3,1 -7,2 -10,2 -6,0 -11,-2 -16,-5 -5,-3 -10,-8 -13,-13 -3,-5 -5,-11 -5,-17 0,-9 3,-16 10,-23 7,-7 15,-10 23,-10l1 0zm244 144c19,-2 21,3 34,11 17,10 12,43 -18,42 -10,0 -27,-14 -41,7 -5,7 -9,19 -6,34l13 67c5,26 -48,37 -54,5l-21 -132c-6,-28 37,-34 39,-3l15 -15c5,-5 11,-9 18,-12 7,-3 14,-5 21,-5zm130 77c6,10 11,20 16,30 -15,-3 -18,-18 -16,-30z"/>
  <path class="fil0" d="M2471 1748c80,-95 184,-103 205,-204 34,-91 27,-180 -26,-266 -10,-1 -19,-1 -29,-1 -8,7 -23,13 -32,15 -2,0 -4,1 -6,1 -8,1 -16,1 -24,-1 -157,66 -242,333 -92,391l-12 63 16 2zm27 -126c83,-116 106,-195 89,-274 -4,87 -33,168 -89,274z"/>
  <circle class="fil1 str0" cx="2590" cy="1048" r="796"/>
 </g>
</svg>
