<?xml version="1.0" encoding="UTF-8"?>
<!DOCTYPE svg PUBLIC "-//W3C//DTD SVG 1.1//EN" "http://www.w3.org/Graphics/SVG/1.1/DTD/svg11.dtd">
<!-- Creator: CorelDRAW X6 -->
<svg xmlns="http://www.w3.org/2000/svg" xml:space="preserve" width="33.8666mm" height="33.8666mm" version="1.1" style="shape-rendering:geometricPrecision; text-rendering:geometricPrecision; image-rendering:optimizeQuality; fill-rule:evenodd; clip-rule:evenodd"
viewBox="0 0 3387 3387"
 xmlns:xlink="http://www.w3.org/1999/xlink">
 <defs>
  <style type="text/css">
   <![CDATA[
    .fil1 {fill:#6F7B49}
    .fil2 {fill:#ABC49D}
    .fil0 {fill:#C9DCBE}
    .fil3 {fill:#A2A2A2}
   ]]>
  </style>
 </defs>
 <g id="Capa_x0020_1">
  <metadata id="CorelCorpID_0Corel-Layer"/>
  <path class="fil0" d="M2587 2555l0 -1550 -986 -555c-82,25 -178,93 -257,137l-498 280c-74,40 -174,91 -242,141l6 1549c834,0 1113,0 1978,-2z"/>
  <path class="fil1" d="M1669 2984c-34,-163 201,-197 231,-58 35,165 -202,197 -231,58zm-466 -139l4 33c6,23 8,39 21,59 25,40 14,17 35,32 13,78 124,155 191,192 276,149 614,37 761,-249 94,60 155,144 339,111 169,-31 215,-149 258,-190 220,88 327,-38 305,-275l-392 -6 -6 -1618c-13,-33 -1088,-635 -1119,-637 -58,-3 -822,454 -1001,548 -40,21 -112,53 -129,89 -41,85 27,1461 -16,1623l-384 3c-3,177 19,362 288,286 91,86 131,188 330,184 108,-2 197,-54 261,-128 44,-51 -2,-32 68,-58 24,24 -35,10 44,22 9,2 34,0 44,-1 42,-4 46,-13 97,-19zm-399 -50l26 28c9,89 -28,98 -102,74 -23,-73 -10,-109 76,-102zm1706 -7c151,-36 153,113 22,100l-26 -29 4 -71zm-560 -65c120,-34 155,67 55,107 -42,-12 -28,-7 -55,-28l0 -80zm-344 -165l-130 -1 -867 0 -6 -1549c68,-50 168,-101 242,-141l498 -280c79,-44 175,-112 257,-137l986 555 0 1550 -980 3z"/>
  <path class="fil1" d="M1544 2568l146 1c-20,-112 -39,-211 -11,-330 23,-99 100,-197 105,-233l-7 -14 -60 49c-104,123 -84,156 -137,224 -2,-209 71,-323 -62,-493 122,455 -116,289 25,796z"/>
  <path class="fil2" d="M1669 2984c29,139 266,107 231,-58 -30,-139 -265,-105 -231,58z"/>
  <path class="fil2" d="M804 2795c-85,-6 -98,30 -76,102 74,24 111,15 102,-74l-26 -28z"/>
  <path class="fil2" d="M2506 2859l26 29c131,14 129,-136 -22,-100l-4 71z"/>
  <path class="fil2" d="M1950 2803c27,21 13,16 55,28 100,-40 65,-142 -55,-107l0 80z"/>
  <path class="fil1" d="M1342 1600l-104 -45c-90,-33 -238,-67 -332,-47 -3,6 -8,-1 1,8 35,46 136,107 179,132 36,21 126,55 167,64 10,2 14,1 24,5l13 3c-9,2 -3,0 -10,1 -95,14 -133,35 -224,88l-6 16c82,31 203,26 315,-26 -26,44 -66,62 -94,171 50,-23 112,-65 146,-106 65,-79 61,-104 81,-133 26,11 113,-8 148,-19 57,-17 108,-52 157,-91 -19,-8 -69,-6 -96,-4 -42,4 -62,15 -100,22 76,-74 126,-148 144,-248 3,-16 9,-25 1,-38 -42,20 -82,51 -111,83 -30,32 -48,64 -73,94 -1,-14 19,-94 10,-210 -4,-48 -25,-176 -52,-225 -19,29 -37,77 -48,108 -14,39 -23,74 -31,113 -22,114 -12,138 -8,236 -51,-92 -50,-130 -141,-238 -40,-47 -137,-144 -183,-156 25,131 62,225 142,338 23,32 68,76 84,104z"/>
  <path class="fil1" d="M1879 1866l22 -64c15,-55 29,-145 13,-200 -4,-1 0,-5 -4,1 -26,23 -57,86 -70,113 -11,22 -27,78 -31,103 -1,6 0,8 -2,15l-1 8c-2,-5 0,-2 -1,-6 -13,-56 -27,-78 -63,-129l-10 -3c-15,51 -6,122 30,187 -27,-14 -40,-37 -107,-48 16,29 44,64 70,82 50,35 65,32 83,42 -5,16 10,67 18,87 13,33 36,62 62,89 4,-12 0,-41 -2,-57 -4,-25 -12,-36 -18,-59 48,42 94,68 155,74 10,1 15,4 23,-1 -14,-24 -34,-46 -55,-62 -21,-16 -40,-25 -59,-39 8,-1 57,7 126,-4 28,-4 104,-23 132,-42 -18,-10 -48,-18 -67,-24 -24,-6 -45,-11 -69,-13 -69,-8 -83,-1 -141,6 52,-35 75,-36 135,-95 26,-26 79,-88 85,-116 -77,21 -132,47 -195,100 -18,15 -42,44 -58,55z"/>
  <g id="_498223848">
   <path class="fil2" d="M2389 1321l-9 -6c-3,-3 -5,-4 -8,-6 -3,-2 -8,-6 -9,-9 -3,-2 -3,-1 -6,-4 -2,-2 -2,-2 -4,-4 -4,-3 -5,-5 -9,-9l-15 -17c-2,-2 0,0 -2,-2 0,0 -1,-1 -1,-1 -2,-2 -1,-1 -2,-3 -3,-6 -7,-10 -11,-16 -3,-5 -6,-11 -9,-17 -40,-76 -43,-161 -8,-240 7,-15 20,-38 29,-49l4 -4 3 -4c3,-4 4,-5 7,-8 3,-3 4,-5 7,-8l5 -6c1,-3 1,-3 4,-5l13 -10 4 -3 6 -4c1,-2 6,-5 9,-7 3,-3 4,-4 8,-5 3,-4 26,-16 32,-19 45,-19 75,-28 127,-26 49,2 117,24 151,54 1,1 2,1 3,2 1,1 1,1 2,2 4,2 16,11 17,15 7,4 15,13 20,20 3,0 2,1 4,3 2,2 3,3 4,5 3,3 9,10 11,15 4,2 19,29 22,36 48,99 30,223 -46,301 -3,3 -4,5 -7,8l-15 14c-90,78 -218,86 -321,22 -3,-2 -6,-4 -8,-6zm211 -596c-11,0 -26,-2 -38,-3 -40,-5 -94,8 -107,8 -4,-13 -31,-68 -36,-75 -7,-9 -24,-17 -41,-13 -7,2 -71,31 -77,35 -30,22 -14,52 -2,78 6,13 12,26 17,38l-53 48c-8,8 -39,48 -43,58 -20,-5 -66,-27 -82,-28 -37,0 -43,35 -51,58 -9,25 -29,58 0,80 13,10 78,28 79,32 0,1 0,1 0,1l0 7c-4,36 -5,63 0,99 1,10 5,25 6,35 -10,8 -61,25 -75,37 -9,7 -17,24 -13,41 3,10 12,28 17,39 11,25 20,59 56,55 17,-2 59,-27 80,-34 12,19 56,62 74,76l30 21c-1,13 -27,66 -27,82 0,36 36,41 59,50 28,11 59,27 80,-1 6,-8 27,-66 31,-79 31,2 33,6 74,4 26,-1 45,-6 69,-9 6,6 27,65 37,75 25,27 50,10 80,-4 10,-5 29,-12 38,-18 12,-8 19,-23 17,-38 -2,-16 -27,-58 -34,-80l20 -16c11,-9 35,-33 44,-45 4,-5 7,-8 11,-14 8,-10 13,-19 21,-30 11,1 66,27 82,27 36,0 42,-35 50,-59 11,-28 28,-58 -1,-80 -9,-7 -27,-12 -39,-16 -13,-5 -28,-11 -40,-15 1,-12 3,-24 3,-36 1,-16 1,-30 0,-45l-3 -27c-2,-11 -5,-24 -6,-35 6,-1 70,-30 76,-37 9,-8 17,-23 12,-41l-17 -39c-11,-22 -19,-59 -57,-55 -15,2 -66,30 -78,33l-22 -27c-14,-17 -65,-62 -82,-69 1,-8 11,-31 14,-40 10,-26 26,-56 -6,-77 -5,-3 -73,-29 -80,-30 -17,-3 -34,6 -40,15 -8,11 -18,42 -24,59 -2,6 -6,14 -7,20z"/>
   <path class="fil1" d="M2659 587c-24,1 -46,15 -58,27 -5,6 -14,18 -17,28 -2,6 -9,23 -11,31 -1,1 -1,2 -1,3 -4,3 -34,1 -44,1 -16,0 -29,3 -44,4 -13,-17 -16,-57 -57,-76 -43,-20 -69,-1 -104,14 -37,16 -59,24 -75,58 -8,17 -9,39 -4,57 4,14 18,37 20,47 -3,3 -5,4 -7,7l-23 23c-5,4 -25,29 -27,34 -23,-4 -57,-33 -105,-9 -7,3 -15,9 -19,14 -5,5 -11,11 -15,18 -7,11 -14,34 -19,48 -13,37 -28,65 -6,104 17,29 35,33 56,41 6,3 18,6 24,10 1,12 -1,30 0,45 1,13 4,30 4,42 -31,14 -62,24 -76,57 -18,42 -2,69 14,104 15,33 23,59 59,75 49,22 87,-15 105,-17 5,9 35,36 46,45 6,5 11,9 17,14 -12,35 -29,65 -9,104 17,33 40,40 79,54 37,13 64,29 104,7 37,-20 39,-55 52,-81 50,1 41,0 87,-3l21 45c9,14 19,24 35,32 41,19 70,1 104,-14 13,-6 34,-14 45,-22 29,-20 44,-58 33,-94 -4,-13 -18,-37 -20,-47 6,-4 10,-9 16,-15 6,-6 11,-10 15,-15l28 -33c20,7 44,19 68,18 27,-1 48,-14 60,-28 14,-16 20,-35 28,-59 6,-18 21,-50 18,-69 1,-20 -13,-44 -26,-57 -7,-6 -15,-12 -25,-17 -6,-3 -27,-11 -32,-11l-8 -4c0,-14 1,-30 1,-45 -1,-15 -3,-28 -4,-43l45 -21c14,-9 25,-20 32,-35 19,-44 2,-69 -14,-104 -17,-37 -24,-59 -58,-75 -17,-8 -39,-9 -58,-4 -15,4 -32,15 -47,20l-31 -31c-5,-6 -10,-9 -16,-14 -4,-3 -5,-4 -8,-7 -2,-2 -7,-4 -9,-7 6,-22 19,-40 18,-67 -1,-26 -14,-49 -27,-60 -19,-16 -34,-20 -57,-28 -20,-7 -46,-20 -69,-19 -1,0 -1,0 -2,0zm285 518c0,-2 0,0 1,0 4,0 0,-2 1,0 1,2 -2,2 -2,0zm-344 -380c2,-7 5,-14 7,-20 6,-16 16,-47 24,-59 6,-8 23,-18 40,-15 7,1 75,26 80,30 32,21 15,52 6,77 -3,9 -13,32 -14,40 17,7 69,52 82,69l22 27c13,-3 63,-32 78,-33 38,-4 46,32 57,55l17 39c5,18 -4,32 -12,41 -6,6 -70,35 -76,37 1,11 4,24 6,35l3 27c1,15 1,29 0,45 -1,12 -3,25 -3,36 12,4 28,10 40,15 12,5 30,10 39,16 29,22 12,51 1,80 -9,24 -15,60 -50,59 -16,0 -72,-27 -82,-27 -8,10 -13,20 -21,30 -4,6 -7,9 -11,14 -9,12 -33,36 -44,45l-20 16c7,22 32,63 34,80 1,15 -6,30 -17,38 -9,6 -28,13 -38,18 -29,13 -54,31 -80,4 -9,-10 -31,-69 -37,-75 -24,3 -44,7 -69,9 -41,2 -43,-2 -74,-4 -4,12 -25,71 -31,79 -21,28 -52,12 -80,1 -23,-9 -59,-14 -59,-50 0,-16 26,-70 27,-82l-30 -21c-19,-14 -63,-57 -74,-76 -20,6 -63,32 -80,34 -35,3 -45,-31 -56,-55 -5,-11 -14,-28 -17,-39 -5,-17 4,-34 13,-41 15,-12 65,-29 75,-37 0,-10 -4,-25 -6,-35 -5,-36 -4,-64 0,-99l0 -7c0,0 0,0 0,-1 0,-4 -65,-22 -79,-32 -29,-22 -10,-55 0,-80 9,-23 14,-59 51,-58 15,0 62,23 82,28 4,-10 35,-50 43,-58l53 -48c-5,-12 -11,-26 -17,-38 -13,-26 -29,-56 2,-78 6,-4 70,-33 77,-35 17,-5 34,4 41,13 5,7 32,62 36,75 13,0 66,-13 107,-8 11,1 26,3 38,3z"/>
   <path class="fil0" d="M2520 873c-35,4 -60,13 -87,27 -6,3 -12,7 -17,10 -16,12 -16,11 -31,26 -43,40 -75,111 -67,185 12,117 116,214 248,202 116,-11 215,-117 202,-248 -3,-33 -13,-61 -27,-86 -42,-78 -131,-126 -220,-116z"/>
   <path class="fil1" d="M2330 1265l15 17c3,4 5,6 9,9 2,2 2,2 4,4 3,3 2,2 6,4 1,3 6,7 9,9 3,3 5,4 8,6l9 6c3,1 5,4 8,6 103,64 232,55 321,-22l15 -14c3,-3 4,-5 7,-8 76,-79 94,-203 46,-301 -4,-7 -18,-34 -22,-36 -2,-5 -7,-12 -11,-15 -1,-2 -2,-3 -4,-5 -2,-3 -1,-3 -4,-3 -4,-7 -13,-16 -20,-20 -1,-4 -13,-13 -17,-15 -1,-1 -1,-1 -2,-2 -1,-1 -2,-1 -3,-2 -33,-30 -101,-52 -151,-54 -52,-2 -83,7 -127,26 -6,3 -29,15 -32,19 -4,2 -5,2 -8,5 -3,1 -8,4 -9,7l-6 4 -4 3 -13 10c-3,2 -3,2 -4,5l-5 6c-3,2 -4,4 -7,8 -3,3 -4,4 -7,8l-3 4 -4 4c-10,12 -23,35 -29,49 -35,79 -32,164 8,240 3,6 6,12 9,17 4,6 8,10 11,16 1,2 0,0 2,3 0,0 1,1 1,1 2,2 0,0 2,2zm190 -391c89,-10 178,38 220,116 14,25 24,53 27,86 13,131 -86,237 -202,248 -132,12 -236,-85 -248,-202 -8,-75 24,-145 67,-185 15,-14 16,-14 31,-26 5,-4 11,-7 17,-10 27,-14 52,-23 87,-27z"/>
   <path class="fil3" d="M2944 1105c0,2 2,2 2,0 -1,-2 4,0 -1,0 -2,0 -1,-2 -1,0z"/>
  </g>
  <g id="_498222480">
   <path class="fil2" d="M2991 1767l-4 -3c-2,-1 -3,-2 -4,-3 -2,-1 -4,-3 -5,-4 -2,-1 -2,-1 -3,-2 -1,-1 -1,-1 -2,-2 -2,-2 -3,-3 -4,-5l-7 -9c-1,-1 0,0 -1,-1 0,0 0,0 -1,-1 -1,-1 0,0 -1,-1 -2,-3 -4,-5 -5,-8 -2,-3 -3,-5 -5,-8 -20,-38 -22,-80 -4,-120 3,-7 10,-19 15,-25l2 -2 1 -2c1,-2 2,-2 3,-4 1,-2 2,-3 4,-4l3 -3c0,-1 0,-1 2,-2l6 -5 2 -1 3 -2c1,-1 3,-3 4,-3 2,-1 2,-2 4,-3 2,-2 13,-8 16,-9 22,-9 38,-14 64,-13 25,1 59,12 75,27 1,0 1,1 1,1 1,1 0,0 1,1 2,1 8,6 9,8 4,2 8,7 10,10 1,0 1,0 2,2 1,1 1,2 2,3 2,2 4,5 5,7 2,1 9,15 11,18 24,49 15,111 -23,151 -1,1 -2,2 -3,4l-8 7c-45,39 -109,43 -161,11 -1,-1 -3,-2 -4,-3zm106 -298c-6,0 -13,-1 -19,-2 -20,-2 -47,4 -53,4 -2,-6 -15,-34 -18,-37 -4,-4 -12,-9 -20,-6 -3,1 -36,16 -38,18 -15,11 -7,26 -1,39 3,6 6,13 9,19l-26 24c-4,4 -20,24 -22,29 -10,-2 -33,-14 -41,-14 -19,0 -21,18 -26,29 -5,13 -14,29 0,40 7,5 39,14 39,16 0,0 0,0 0,0l0 3c-2,18 -2,32 0,50 1,5 3,13 3,18 -5,4 -30,13 -38,19 -4,3 -9,12 -6,20 1,5 6,14 9,19 6,12 10,29 28,28 9,-1 30,-14 40,-17 6,10 28,31 37,38l15 10c-1,6 -14,33 -14,41 0,18 18,21 30,25 14,5 29,13 40,-1 3,-4 14,-33 15,-39 15,1 16,3 37,2 13,-1 23,-3 35,-4 3,3 14,32 18,37 13,14 25,5 40,-2 5,-2 15,-6 19,-9 6,-4 9,-11 9,-19 -1,-8 -13,-29 -17,-40l10 -8c6,-4 18,-16 22,-22 2,-3 4,-4 6,-7 4,-5 7,-10 10,-15 5,0 33,14 41,14 18,0 21,-18 25,-30 5,-14 14,-29 -1,-40 -4,-3 -13,-6 -19,-8 -6,-2 -14,-5 -20,-7 0,-6 1,-12 2,-18 1,-8 1,-15 0,-22l-1 -14c-1,-6 -2,-12 -3,-18 3,-1 35,-15 38,-18 4,-4 9,-12 6,-20l-9 -19c-6,-11 -9,-30 -28,-27 -7,1 -33,15 -39,17l-11 -13c-7,-9 -32,-31 -41,-35 1,-4 5,-16 7,-20 5,-13 13,-28 -3,-39 -3,-2 -37,-14 -40,-15 -9,-1 -17,3 -20,7 -4,6 -9,21 -12,29 -1,3 -3,7 -4,10z"/>
   <path class="fil1" d="M3126 1400c-12,1 -23,8 -29,14 -3,3 -7,9 -9,14 -1,3 -4,11 -5,15 0,1 -1,1 -1,1 -2,2 -17,1 -22,1 -8,0 -14,1 -22,2 -7,-8 -8,-28 -29,-38 -22,-10 -35,0 -52,7 -19,8 -29,12 -37,29 -4,8 -4,19 -2,29 2,7 9,19 10,23 -1,1 -2,2 -4,4l-12 11c-2,2 -13,14 -14,17 -12,-2 -28,-16 -53,-4 -3,2 -7,4 -10,7 -3,3 -5,6 -8,9 -3,6 -7,17 -10,24 -7,18 -14,33 -3,52 8,14 17,16 28,21 3,1 9,3 12,5 1,6 0,15 0,23 0,7 2,15 2,21 -16,7 -31,12 -38,28 -9,21 -1,35 7,52 8,16 11,30 29,37 25,11 43,-7 52,-8 2,4 18,18 23,23 3,2 5,5 9,7 -6,17 -15,32 -5,52 8,17 20,20 40,27 19,7 32,14 52,3 19,-10 20,-28 26,-40 25,1 21,0 44,-2l11 22c5,7 10,12 18,16 21,10 35,1 52,-7 6,-3 17,-7 22,-11 14,-10 22,-29 17,-47 -2,-7 -9,-18 -10,-24 3,-2 5,-4 8,-7 3,-3 5,-5 8,-8l14 -17c10,4 22,10 34,9 14,-1 24,-7 30,-14 7,-8 10,-18 14,-30 3,-9 11,-25 9,-34 0,-10 -7,-22 -13,-28 -3,-3 -7,-6 -13,-8 -3,-1 -13,-5 -16,-5l-4 -2c0,-7 1,-15 0,-22 0,-8 -1,-14 -2,-21l22 -11c7,-5 12,-10 16,-18 10,-22 1,-34 -7,-52 -8,-18 -12,-29 -29,-37 -8,-4 -19,-4 -29,-2 -7,2 -16,7 -23,10l-15 -15c-3,-3 -5,-5 -8,-7 -2,-2 -2,-2 -4,-4 -1,-1 -3,-2 -4,-4 3,-11 9,-20 9,-33 0,-13 -7,-25 -13,-30 -9,-8 -17,-10 -29,-14 -10,-4 -23,-10 -34,-9 0,0 -1,0 -1,0zm143 259c0,-1 0,0 1,0 2,0 0,-1 0,0 0,1 -1,1 -1,0zm-172 -190c1,-3 2,-7 4,-10 3,-8 8,-24 12,-29 3,-4 11,-9 20,-7 3,1 37,13 40,15 16,11 8,26 3,39 -2,5 -7,16 -7,20 9,4 34,26 41,35l11 13c6,-2 32,-16 39,-17 19,-2 23,16 28,27l9 19c3,9 -2,16 -6,20 -3,3 -35,18 -38,18 0,6 2,12 3,18l1 14c1,7 1,14 0,22 0,6 -1,12 -2,18 6,2 14,5 20,7 6,2 15,5 19,8 14,11 6,26 1,40 -4,12 -7,30 -25,30 -8,0 -36,-13 -41,-14 -4,5 -7,10 -10,15 -2,3 -4,4 -6,7 -5,6 -17,18 -22,22l-10 8c3,11 16,32 17,40 1,7 -3,15 -9,19 -4,3 -14,7 -19,9 -15,7 -27,16 -40,2 -5,-5 -16,-34 -18,-37 -12,1 -22,4 -35,4 -20,1 -21,-1 -37,-2 -2,6 -13,35 -15,39 -10,14 -26,6 -40,1 -12,-4 -30,-7 -30,-25 0,-8 13,-35 14,-41l-15 -10c-9,-7 -31,-28 -37,-38 -10,3 -31,16 -40,17 -18,2 -22,-15 -28,-28 -2,-5 -7,-14 -9,-19 -2,-8 2,-17 6,-20 7,-6 33,-15 38,-19 0,-5 -2,-12 -3,-18 -2,-18 -2,-32 0,-50l0 -3c0,0 0,0 0,0 0,-2 -33,-11 -39,-16 -14,-11 -5,-27 0,-40 4,-11 7,-29 26,-29 8,0 31,11 41,14 2,-5 18,-25 22,-29l26 -24c-3,-6 -6,-13 -9,-19 -6,-13 -14,-28 1,-39 3,-2 35,-17 38,-18 9,-2 17,2 20,6 3,3 16,31 18,37 6,0 33,-6 53,-4 6,1 13,1 19,2z"/>
   <path class="fil0" d="M3057 1543c-17,2 -30,6 -43,14 -3,2 -6,3 -9,5 -8,6 -8,6 -16,13 -21,20 -37,55 -34,93 6,58 58,107 124,101 58,-5 107,-59 101,-124 -2,-16 -7,-30 -14,-43 -21,-39 -66,-63 -110,-58z"/>
   <path class="fil1" d="M2961 1738l7 9c2,2 3,3 4,5 1,1 1,1 2,2 1,1 1,1 3,2 1,1 3,3 5,4 1,1 2,2 4,3l4 3c1,1 3,2 4,3 51,32 116,28 161,-11l8 -7c1,-1 2,-2 3,-4 38,-39 47,-101 23,-151 -2,-4 -9,-17 -11,-18 -1,-2 -4,-6 -5,-7 -1,-1 -1,-2 -2,-3 -1,-1 -1,-2 -2,-2 -2,-3 -6,-8 -10,-10 -1,-2 -7,-7 -9,-8 0,-1 0,0 -1,-1 0,0 -1,-1 -1,-1 -17,-15 -51,-26 -75,-27 -26,-1 -41,4 -64,13 -3,1 -14,8 -16,9 -2,1 -2,1 -4,3 -2,1 -4,2 -4,3l-3 2 -2 1 -6 5c-2,1 -2,1 -2,2l-3 3c-2,1 -2,2 -4,4 -2,2 -2,2 -3,4l-1 2 -2 2c-5,6 -11,17 -15,25 -18,39 -16,82 4,120 2,3 3,6 5,8 2,3 4,5 5,8 1,1 0,0 1,1 0,0 0,0 1,1 1,1 0,0 1,1zm95 -196c45,-5 89,19 110,58 7,13 12,27 14,43 6,65 -43,119 -101,124 -66,6 -118,-43 -124,-101 -4,-37 12,-72 34,-93 8,-7 8,-7 16,-13 2,-2 5,-3 9,-5 13,-7 26,-11 43,-14z"/>
   <path class="fil3" d="M3268 1659c0,1 1,1 1,0 0,-1 2,0 0,0 -1,0 -1,-1 -1,0z"/>
  </g>
 </g>
</svg>
