<?xml version="1.0" encoding="UTF-8"?>
<!DOCTYPE svg PUBLIC "-//W3C//DTD SVG 1.1//EN" "http://www.w3.org/Graphics/SVG/1.1/DTD/svg11.dtd">
<!-- Creator: CorelDRAW X6 -->
<svg xmlns="http://www.w3.org/2000/svg" xml:space="preserve" width="33.8666mm" height="33.8666mm" version="1.1" style="shape-rendering:geometricPrecision; text-rendering:geometricPrecision; image-rendering:optimizeQuality; fill-rule:evenodd; clip-rule:evenodd"
viewBox="0 0 3387 3387"
 xmlns:xlink="http://www.w3.org/1999/xlink">
 <defs>
  <style type="text/css">
   <![CDATA[
    .fil0 {fill:#6F7B49}
    .fil5 {fill:#ABC49D}
    .fil1 {fill:#C9DCBE}
    .fil4 {fill:#F1F1F1}
    .fil3 {fill:#F1F2EE}
    .fil2 {fill:#FAFAFA}
   ]]>
  </style>
 </defs>
 <g id="Capa_x0020_1">
  <metadata id="CorelCorpID_0Corel-Layer"/>
  <path class="fil0" d="M995 2873l-93 -1 -4 -737c509,-35 565,23 1010,327 93,63 240,124 116,248 -107,58 -444,-257 -566,-292l-55 82c66,33 129,78 196,123 129,87 303,224 427,193 104,-26 112,-96 159,-172 67,-50 322,-145 411,-184 118,-52 343,-200 433,-78 -301,213 -597,437 -904,651 -311,218 -208,191 -808,-78 -147,-66 -135,-80 -322,-80zm1149 -482c-39,-126 70,-95 77,-91 50,64 25,128 -77,91zm324 -258c30,-6 19,-13 51,-6 30,6 24,10 38,20 57,127 -144,131 -89,-13zm-620 34c-146,-124 -20,-266 96,-222 100,39 126,242 -96,222zm-854 809c189,-5 455,151 622,225 316,141 358,72 583,-96l967 -689c-60,-246 -277,-186 -388,-160 -20,-115 -68,-79 -136,-148 -134,-134 -148,-261 -323,-209 -93,28 -76,65 -132,125l-104 -19c-26,-239 -314,-240 -363,-39 -171,-21 -154,12 -203,123 -165,-108 -1008,-55 -1261,-50l0 1068 637 2 4 -133 97 -2z"/>
  <path class="fil1" d="M995 2873c187,0 175,14 322,80 600,269 497,296 808,78 306,-214 603,-438 904,-651 -90,-122 -315,27 -433,78 -89,39 -344,135 -411,184 -47,76 -56,146 -159,172 -124,31 -297,-105 -427,-193 -67,-45 -129,-90 -196,-123l55 -82c122,36 459,351 566,292 124,-124 -24,-184 -116,-248 -445,-303 -501,-362 -1010,-327l4 737 93 1z"/>
  <path class="fil0" d="M2538 862c-52,407 -111,257 -326,483 -65,69 -122,151 -140,274 -22,153 -20,270 138,265 108,-44 7,-211 46,-345 70,-238 392,-268 312,-666 -13,-75 -22,-123 -68,-165 3,62 7,104 38,153z"/>
  <path class="fil2" d="M1848 2168c221,20 196,-183 96,-222 -116,-45 -242,97 -96,222z"/>
  <path class="fil3" d="M2557 2147c-15,-10 -8,-13 -38,-20 -32,-6 -21,1 -51,6 -55,144 146,140 89,13z"/>
  <path class="fil4" d="M2144 2392c102,37 127,-27 77,-91 -7,-4 -116,-35 -77,91z"/>
  <path class="fil5" d="M1999 1238l-102 -44c-89,-32 -235,-66 -327,-46 -3,6 -8,-1 1,7 35,46 134,105 177,130 35,20 125,54 165,63 10,2 14,1 24,5l12 3c-9,2 -3,0 -10,1 -93,14 -131,34 -221,87l-6 15c81,31 200,25 311,-25 -26,43 -65,61 -93,169 49,-22 111,-64 144,-105 64,-78 60,-103 80,-131 26,11 112,-8 145,-18 56,-17 107,-52 154,-90 -19,-8 -68,-6 -94,-4 -41,4 -61,15 -99,22 75,-73 124,-146 142,-245 3,-16 9,-24 1,-37 -41,20 -80,50 -110,82 -29,32 -47,63 -72,93 -1,-14 19,-93 10,-207 -4,-47 -24,-174 -52,-222 -19,28 -36,76 -47,106 -14,38 -23,73 -30,111 -22,113 -12,136 -8,232 -51,-90 -50,-128 -139,-235 -39,-47 -135,-142 -180,-154 25,129 61,222 140,333 23,32 67,75 83,103z"/>
  <path class="fil5" d="M2640 1105l30 -87c21,-76 39,-199 17,-273 -5,-2 1,-7 -6,1 -35,32 -78,117 -96,155 -15,31 -37,107 -42,140 -1,8 0,12 -2,20l-1 11c-2,-7 0,-3 -2,-8 -18,-76 -37,-106 -86,-177l-13 -4c-20,69 -8,167 41,255 -37,-19 -55,-50 -146,-66 22,39 60,87 96,112 68,48 89,43 113,58 -7,22 14,92 24,119 17,45 49,85 84,122 6,-16 1,-56 -3,-78 -6,-34 -16,-49 -25,-80 65,58 129,93 212,102 13,1 21,6 31,-2 -19,-33 -47,-63 -75,-85 -28,-22 -55,-35 -81,-54 11,-2 78,10 172,-5 39,-6 142,-31 180,-57 -24,-14 -65,-25 -91,-32 -33,-9 -62,-14 -94,-18 -95,-11 -113,-1 -193,8 71,-48 103,-49 185,-130 36,-35 109,-121 116,-159 -105,29 -180,65 -267,137 -25,21 -58,60 -79,75z"/>
  <path class="fil5" d="M2348 491l-80 -61c-71,-48 -192,-109 -277,-112 -4,4 -7,-3 -1,7 21,48 94,122 127,153 27,26 98,75 131,92 8,4 12,4 20,9l10 5c-8,0 -3,-1 -9,-1 -85,-8 -123,1 -213,28l-8 12c65,45 170,66 279,45 -32,32 -71,39 -119,128 48,-9 111,-33 149,-61 73,-54 75,-77 99,-98 21,15 100,17 132,16 53,-3 105,-22 155,-45 -15,-11 -58,-20 -82,-24 -37,-6 -57,0 -91,-2 82,-48 141,-101 178,-184 6,-13 13,-19 9,-33 -40,9 -82,27 -114,48 -33,21 -55,45 -84,66 2,-12 37,-77 54,-180 7,-42 16,-158 3,-206 -23,21 -49,59 -65,83 -20,31 -36,59 -51,91 -44,94 -40,117 -58,203 -25,-90 -16,-123 -71,-237 -24,-50 -88,-154 -125,-175 -6,118 5,209 51,323 13,33 43,81 51,108z"/>
 </g>
</svg>
