<?xml version="1.0" encoding="UTF-8"?>
<!DOCTYPE svg PUBLIC "-//W3C//DTD SVG 1.1//EN" "http://www.w3.org/Graphics/SVG/1.1/DTD/svg11.dtd">
<!-- Creator: CorelDRAW X6 -->
<svg xmlns="http://www.w3.org/2000/svg" xml:space="preserve" width="50.8mm" height="21.1666mm" version="1.1" style="shape-rendering:geometricPrecision; text-rendering:geometricPrecision; image-rendering:optimizeQuality; fill-rule:evenodd; clip-rule:evenodd"
viewBox="0 0 5080 2117"
 xmlns:xlink="http://www.w3.org/1999/xlink">
 <defs>
  <style type="text/css">
   <![CDATA[
    .str0 {stroke:#4D6631;stroke-width:7.62}
    .fil0 {fill:#4D6631}
   ]]>
  </style>
 </defs>
 <g id="Capa_x0020_1">
  <metadata id="CorelCorpID_0Corel-Layer"/>
  <path class="fil0 str0" d="M1841 1494c13,19 25,28 33,57 6,21 17,55 20,77 -20,-25 -50,-96 -53,-134zm42 -144c14,23 24,62 39,92 11,23 48,76 51,85 3,10 -6,85 0,120 8,45 23,65 36,102 -82,-41 -147,-362 -146,-399 -35,-71 -53,-273 -263,-345 -44,-15 -121,-29 -177,-29l161 38c53,17 97,41 134,77l33 41c66,101 60,184 76,217l26 132c-33,-17 -35,-82 -45,-101l3 46 -100 -76c-88,-39 -213,-85 -285,-128 -20,-12 -34,-21 -52,-35 -30,-25 -45,-69 -45,-123l-6 0c0,26 -1,53 5,70 10,30 28,51 51,67l45 30c11,7 14,9 28,16 70,35 142,64 207,101 30,11 48,25 72,42 97,67 83,81 97,140 7,31 17,61 31,87 39,78 96,136 161,187 86,67 68,-17 68,254l42 0 3 -138c7,8 16,16 24,27l77 106c1,1 2,4 3,5l40 0 0 -216 -46 0 0 120c-51,-43 -57,-98 -163,-168 -82,-54 -87,-149 -82,-248 40,24 119,148 326,161 52,3 70,-12 109,14 78,51 146,124 266,110 0,-61 -74,-108 -82,-158 17,-17 128,-132 67,-146 -18,-4 -51,6 -68,11 -30,8 -52,14 -81,25 -149,56 -215,64 -299,-61 -16,-24 -67,-124 -55,-149 -21,-49 8,-137 25,-169 14,10 15,18 29,33 29,30 82,73 126,73 0,-48 -32,-70 -31,-162 0,-33 6,-35 6,-62 115,-31 256,-326 91,-409 -108,-54 -294,19 -364,93 -88,92 -51,107 -159,114 -62,4 -156,-40 -55,60 25,25 33,32 64,48 -11,49 -38,81 -37,180 1,187 8,91 19,199z"/>
  <path class="fil0 str0" d="M2691 274c22,6 14,2 25,19 -24,-2 -19,4 -25,-19zm-56 0l12 0 0 12 -12 0 0 -12zm25 0c29,2 11,-7 25,12 -29,-2 -11,7 -25,-12zm-44 0l6 0 -5 7 -1 -7zm75 0l-6 0 5 -7 1 7zm-75 0l-6 0 5 -7 1 7zm50 -37l-6 0 14 11c-20,6 -36,11 -51,-5l0 19c-19,-2 -12,0 -25,-6l-6 0c-23,-6 -13,-7 -31,-19 5,20 11,26 31,31l-19 19 44 6c-26,0 -55,9 -77,17 -89,33 -126,52 -228,52 13,24 24,46 37,68 28,45 63,82 106,112 163,116 328,-74 386,-87 16,11 31,21 49,32 21,14 26,20 43,38 94,93 128,245 70,365 -23,-17 -85,-106 -156,-106 0,40 32,90 31,162 0,31 -7,30 -7,62 -29,7 -56,34 -76,54l-72 120c-31,86 -15,113 -5,167 38,47 60,98 197,79 112,-15 148,-56 200,-77 20,-34 54,-52 78,-85 30,-41 26,-55 108,-60 22,-1 49,7 71,11 75,12 -12,-67 -26,-81 -12,-12 -11,-10 -24,-20 -17,-13 -6,-10 -27,-16 29,-123 58,-144 30,-317 -29,-184 -146,-339 -324,-398 -25,-8 -44,-12 -69,-18 -34,-8 -35,-16 -52,-41 -14,-22 -48,-81 -78,-84 -30,-3 -11,1 -17,6 25,2 26,4 37,19 -29,1 -24,-6 -31,19 32,-3 8,-5 37,-12 22,15 34,45 50,68l-103 -41c-26,-12 2,-6 -34,-3l-25 -30c-1,0 -2,-2 -2,-2l-16 -5c17,-34 16,-66 25,-106l-12 0c-2,30 -18,58 -25,87 -23,-16 -3,-6 -19,-6z"/>
  <path class="fil0 str0" d="M2878 2034l1 23 41 0 2 -105c50,74 8,88 99,88 6,-22 26,-66 43,-83l1 98 45 0 1 -213 -48 -1 -68 142c-36,-42 -47,-143 -94,-143l-25 0 0 193z"/>
  <path class="fil0 str0" d="M1691 1966c43,-5 70,-11 72,31 -8,27 -52,21 -72,19l0 -50zm0 -83l36 6c0,31 -5,34 -37,32l0 -38zm-47 151l2 23c51,0 108,9 140,-19 44,-39 16,-83 -16,-109 9,-97 -53,-87 -126,-87l0 193z"/>
  <path class="fil0 str0" d="M3450 1882c109,2 99,118 1,118l-1 -118zm-46 176c59,0 35,2 47,-8l62 -15c19,26 9,23 61,23l-26 -50c52,-87 8,-166 -97,-166l-47 0 0 216z"/>
  <path class="fil0 str0" d="M2494 1966c-26,89 -167,51 -139,-36 9,-29 48,-57 92,-44 29,9 58,43 47,80zm-100 -119c-149,39 -86,246 65,206 134,-36 82,-245 -65,-206z"/>
  <path class="fil0 str0" d="M1912 1889c91,-37 142,87 59,122 -93,39 -141,-89 -59,-122zm-2 -42c-153,42 -78,249 65,206 51,-15 96,-69 74,-136 -15,-48 -74,-88 -139,-70z"/>
  <path class="fil0 str0" d="M1501 1902l16 25c4,10 8,18 11,26 7,18 15,32 17,51 -31,22 -59,17 -85,-1l41 -100zm-109 155c38,0 34,5 54,-13 43,15 68,20 112,1 29,11 13,15 59,10l-89 -214c-63,-1 -42,-7 -90,103 -13,31 -39,82 -46,113z"/>
  <path class="fil0 str0" d="M3263 1906c15,18 38,78 45,99 -34,14 -54,15 -89,-2l44 -97zm-111 151c37,0 33,7 53,-14 36,20 80,20 116,0l54 14 -88 -215c-61,-1 -42,-8 -90,102 -12,28 -42,88 -45,113z"/>
  <path class="fil0 str0" d="M2601 1944c36,-8 43,4 65,19 6,41 -1,43 -23,66l-42 -3 0 -82zm-31 111c194,31 151,-189 0,-137l0 137z"/>
  <polygon class="fil0 str0" points="2823,2027 2751,2028 2751,2014 2795,2014 2797,1985 2751,1985 2752,1942 2821,1942 2821,1913 2723,1914 2723,2055 2823,2055 "/>
  <path class="fil0 str0" d="M2660 237l6 0c0,-31 2,-12 -6,-19 13,-26 19,-60 19,-100 -22,16 -7,3 -15,35 -5,20 -8,18 -10,40 -47,-13 2,-55 12,-93 -17,12 -35,29 -37,56l-12 0c-11,-47 21,-45 25,-93 -11,13 -24,28 -31,56 -19,-22 -5,-18 6,-68 -13,9 -19,14 -19,37l-6 0c0,-31 -12,-37 -12,-37 1,31 4,47 19,75 -17,-1 -17,-3 -31,-6 26,39 23,0 50,50 -28,-1 -25,-6 -56,-6 34,50 62,-2 75,44l-62 0c17,24 46,25 75,19l12 12z"/>
  <path class="fil0 str0" d="M1795 1350l12 27 1 -27c-18,-110 -40,-243 -167,-243l0 6c57,0 94,38 114,79 17,35 43,109 41,158z"/>
  <path class="fil0 str0" d="M2823 2027l0 27 -100 0 0 -141c-3,5 -4,4 -6,15l0 56c0,24 -1,48 1,72l109 4c1,-9 2,-12 1,-20 -2,-10 -3,-10 -5,-13z"/>
  <path class="fil0 str0" d="M2772 255c-19,14 -10,-4 -12,25 19,-14 10,4 12,-25z"/>
  <path class="fil0 str0" d="M2579 50c-4,-15 3,-8 -12,-12l12 12z"/>
  <polygon class="fil0 str0" points="2666,100 2672,100 2667,93 "/>
  <polygon class="fil0 str0" points="2598,255 2591,255 "/>
  <polygon class="fil0 str0" points="2784,249 2772,255 "/>
 </g>
</svg>
