<?xml version="1.0" encoding="UTF-8"?>
<!DOCTYPE svg PUBLIC "-//W3C//DTD SVG 1.1//EN" "http://www.w3.org/Graphics/SVG/1.1/DTD/svg11.dtd">
<!-- Creator: CorelDRAW X6 -->
<svg xmlns="http://www.w3.org/2000/svg" xml:space="preserve" width="50.8mm" height="21.1666mm" version="1.1" style="shape-rendering:geometricPrecision; text-rendering:geometricPrecision; image-rendering:optimizeQuality; fill-rule:evenodd; clip-rule:evenodd"
viewBox="0 0 5080 2117"
 xmlns:xlink="http://www.w3.org/1999/xlink">
 <defs>
  <style type="text/css">
   <![CDATA[
    .str0 {stroke:#4D6631;stroke-width:7.62}
    .fil0 {fill:#4D6631}
   ]]>
  </style>
 </defs>
 <g id="Capa_x0020_1">
  <metadata id="CorelCorpID_0Corel-Layer"/>
  <g id="_401641160">
   <path class="fil0 str0" d="M1278 1092c7,17 61,281 76,338 8,27 31,25 43,4l8 -13 4 -24c5,-14 3,-8 8,-12 -1,-20 19,-65 26,-88l9 -23c10,13 56,151 56,165l5 4c14,8 11,7 30,4 3,-6 7,-12 9,-23 1,-5 2,-11 3,-16 0,-1 1,-5 2,-6 5,-13 1,-2 5,-8 -2,-17 4,-37 9,-55l49 -224c8,-23 7,-28 3,-49 -39,-10 -38,6 -46,39l-46 212c-2,6 -2,4 -5,8l-4 15 -34 -105c-8,-14 -10,-48 -29,-56l-16 1c-7,3 -3,0 -8,5 -2,2 -4,5 -4,4 0,-1 -1,2 -2,2 0,14 -30,100 -35,110l-9 33c-1,2 0,7 -3,10l-5 -7c-3,-45 -34,-125 -31,-163 -10,-11 -15,-53 -18,-69 -6,-29 -3,-44 -39,-41 -8,7 -11,13 -10,29z"/>
   <path class="fil0 str0" d="M2669 1391c-2,2 0,4 -8,8 -9,4 -5,2 -12,2 -8,8 -26,4 -37,4l-22 0 -26 0 -18 -1 -1 -298c28,-1 66,-2 94,0 24,1 50,21 47,45 3,4 3,-5 4,11 0,41 0,82 0,123 0,35 7,94 -20,104zm-142 59l28 0 30 0 12 0 19 0 14 0c61,-2 99,-36 103,-96 3,-50 4,-154 0,-203 -3,-18 -3,-23 -11,-38 -9,-16 -17,-20 -24,-31 -8,-3 -21,-9 -29,-15 -38,-9 -83,-4 -124,-5l-32 0c-21,14 -12,65 -12,93l-1 217c0,36 -12,76 28,77z"/>
   <path class="fil0 str0" d="M1242 1001l147 0 2 1 11 0 25 0 59 0 35 0 35 0 64 0 20 0 38 0c-2,25 -26,142 -35,158 0,13 -2,17 -4,28 -1,2 -2,11 -3,12 -4,13 -3,7 -6,10 2,17 -12,76 -18,94 -3,23 -24,133 -34,144l-2 20 -1 12 -2 -1c-9,10 3,3 -9,7l-78 1 -2 0 -31 0 -50 0 -77 0 -9 -45c-8,-23 -50,-215 -48,-231 -10,-16 -26,-104 -25,-115 -9,-10 -20,-78 -23,-95l20 -1zm-44 14l110 495 -2 2c32,4 262,4 283,-2 11,-16 7,-41 18,-53 -2,-28 23,-109 28,-144l73 -330 -9 -3 -15 0c-34,-6 -115,-1 -154,-1 -26,0 -52,0 -79,0 -16,0 -62,7 -71,-4l-47 2 -10 1 -10 0 -61 0 -13 0 -14 0 -12 -1 -16 1c-7,13 -3,21 -1,37z"/>
   <path class="fil0 str0" d="M3498 1253c4,-16 8,-30 26,-28 9,-9 67,-4 81,-3l-1 184c-13,2 -69,4 -81,-3 -12,-2 -13,-2 -18,-14 -2,-1 -2,8 -7,-8 -1,-5 -1,-13 -1,-18 0,-12 0,-25 0,-38 0,-22 -1,-50 1,-71zm-34 161l3 0 4 11c10,3 7,2 12,10l6 6 40 9 56 0 20 1c0,29 2,33 -7,57 -4,3 -2,1 -7,1 -5,9 7,2 -9,8 -4,2 -11,2 -16,2l-54 0 -18 0c-25,5 -29,28 -11,42 18,7 78,4 101,2l7 2c5,-5 -7,-4 13,-5 9,-7 19,-13 28,-17l0 -5c6,-8 0,-1 6,-4 15,-37 13,-36 14,-82l0 -187c0,-30 6,-68 -7,-86l-126 -1c-46,10 -63,44 -64,91 0,49 -4,105 11,146z"/>
   <path class="fil0 str0" d="M2283 1241c3,-14 6,-14 21,-18l-3 0c2,-1 4,-3 11,-5 1,0 10,-1 12,-1 16,0 50,-1 62,5 4,21 2,71 2,95 0,17 7,82 -6,89 -15,2 -73,8 -79,-4 -16,2 -2,1 -9,-2 -17,-7 9,9 -4,-4 -3,-2 -6,-1 -10,-11 -4,-9 -9,-130 4,-142zm107 -171c-11,32 0,73 -5,107 -17,7 -68,3 -90,3 -35,1 -61,35 -63,73 -2,43 -1,92 1,135 5,14 10,24 15,35 23,14 22,25 66,27l10 0c25,0 82,5 99,-7 9,-24 4,-154 4,-190 0,-39 7,-160 -4,-187 -7,-2 -35,-8 -33,3z"/>
   <path class="fil0 str0" d="M2009 1291c0,-23 0,-38 13,-52 23,-25 93,-38 95,52l-108 0zm-12 -93l-11 11 -14 22 -4 16c-4,31 -3,66 -3,99 0,42 0,56 23,80 15,18 31,23 59,24l2 0 48 0 17 0 27 0c35,-10 16,-40 9,-43 -20,-2 -40,-1 -60,-1 -10,0 -20,0 -30,0 -35,0 -21,-1 -26,-5l-9 -1c-23,-17 -17,-28 -18,-61l150 -4 3 -11c1,-42 3,-60 -10,-96 -12,-13 -11,-17 -26,-31 -9,-8 -27,-11 -36,-21l-5 1 -41 0c-22,4 -32,16 -46,20z"/>
   <path class="fil0 str0" d="M1761 1238c2,-5 -7,-4 2,-5l5 0c14,-18 48,-15 62,3 22,10 22,34 21,55l-22 0 -48 0 -19 0 -17 -1c-4,-10 -3,-19 0,-30 4,-15 6,-16 17,-22zm-62 148c7,33 23,36 30,50 5,2 9,3 14,5 10,5 5,3 9,7l33 1 42 0c22,1 49,1 64,-4 4,-14 4,-13 3,-29l-7 -10c-20,-2 -40,-1 -60,-2l-45 0c-16,-1 -9,0 -13,-5 -8,-1 -6,3 -16,-6 -6,-6 -7,-10 -7,-19 -7,-5 -4,-20 -4,-39l153 -1c-2,-42 4,-68 -9,-107 -4,-5 -6,-9 -11,-16l-11 -12c-7,-4 -6,-5 -13,-10 -4,-3 -3,-2 -7,-4 -5,-3 -5,-3 -7,-5l-16 -3 -4 -2 -43 2c-35,8 -61,35 -70,68 -7,26 -5,110 -3,139z"/>
   <path class="fil0 str0" d="M2849 1291c-3,-94 109,-96 109,0l-109 0zm-15 -88l-18 22c0,-1 -1,1 -2,2 -2,14 1,4 -6,7 1,15 -4,34 -4,52 0,20 0,40 0,60 0,58 8,60 31,91 15,4 21,9 44,13l28 0 40 0 25 0 16 -1 -2 1c18,-11 21,-24 6,-43l0 0c-22,-1 -42,-1 -64,-1 -16,0 -45,4 -55,-5 -14,0 -21,-10 -22,-24 -3,-4 -2,0 -4,-8l0 -34 152 0c3,-43 2,-79 -11,-113 -19,-8 -17,-37 -70,-44 -43,-5 -59,7 -84,26z"/>
   <path class="fil0 str0" d="M1436 562l2 290c-7,-5 -15,-14 -21,-21 -8,-10 -13,-12 -15,-25 -12,-6 -16,-11 -21,-21 -9,-8 -19,-21 -27,-33 -10,-6 -29,-40 -40,-41 -29,8 -8,22 2,35 7,8 7,7 12,18 6,3 24,24 28,29 11,15 20,23 30,40 1,0 2,-1 5,4 4,6 1,0 4,9l11 9c7,7 7,7 11,15l-22 -3 -12 -3 -26 -5 -28 -5 -19 1 0 18 24 9c16,-2 30,2 45,7 6,1 10,1 16,2 13,4 7,3 12,6l-27 10c-8,9 -21,6 -23,18 -2,13 7,17 20,12 11,-4 9,-5 22,-8 5,-9 26,-17 38,-22 14,-6 33,2 44,11l34 14 6 2 5 2 18 -1 0 -19c-17,-6 -37,-16 -52,-23 12,-7 35,-11 52,-9 0,-6 34,-5 45,-15 4,-14 4,-7 -2,-16 -10,-4 -29,0 -41,4l-23 3 -22 4 -21 3 16 -20c5,-6 9,-9 14,-15 10,-11 6,-10 18,-18l13 -18c7,-10 16,-20 22,-27 9,-11 14,-17 22,-27l15 -16c0,-1 2,-1 2,-2l-2 -6 1 -3c-5,-4 -5,-3 -12,-7l-11 3 -4 3 -34 37c-1,9 -14,21 -23,30 -12,13 -10,20 -28,29 -2,9 -3,11 -10,18l-18 17 2 -83c-6,-12 -4,-101 -4,-116 0,-20 0,-40 0,-60 0,-22 2,-46 -25,-29z"/>
   <path class="fil0 str0" d="M3723 1436l0 8c12,5 18,6 34,5l7 -4 2 -210c1,-15 0,-5 3,-9 4,-9 8,-5 37,-5 8,0 15,0 23,0 16,0 13,0 18,4 37,-5 28,61 28,92 0,38 -2,80 0,118l8 11c18,6 25,6 35,-6 6,-43 1,-117 1,-164 0,-29 -1,-49 -15,-68 -9,-13 -27,-26 -49,-30 -151,-7 -132,-4 -132,64l1 194z"/>
   <path class="fil0 str0" d="M3087 1201c-2,4 -4,9 -7,13 -4,5 -2,2 -7,5 0,29 -6,38 8,66 4,5 6,7 9,12 27,17 59,32 92,47 16,8 35,12 40,27 7,22 -14,37 -34,30 -5,5 2,3 -12,4l-36 -6c-1,0 -2,-1 -3,-2l-11 1 0 -3c-12,-3 -5,0 -12,-3 -8,-4 -5,-2 -8,-7l-2 1 -22 0c-4,7 7,4 -10,7l1 28c16,4 5,0 9,7l6 2c6,3 7,3 12,6 3,1 5,1 8,3 7,4 2,1 7,5l17 1 20 2 42 0 16 1c10,-9 23,-8 40,-24 13,-13 17,-25 18,-48 -8,-44 -13,-36 -31,-56 -15,-6 -32,-14 -47,-22 -9,-5 -13,-7 -23,-11 -4,-2 -9,-4 -13,-6 -15,-9 -3,-1 -9,-8 -8,-1 -9,1 -14,-6 -15,-8 -18,-9 -13,-32l7 -4c2,-6 -4,-4 9,-3 4,-7 3,-5 16,-6 4,0 15,0 19,0 14,1 21,2 31,9 25,1 6,11 45,5 4,-9 4,-19 5,-31 -26,-12 -43,-27 -84,-28 -17,0 -32,1 -47,7 -14,5 -23,15 -32,17z"/>
   <path class="fil0 str0" d="M3340 1440c12,11 16,11 35,7l7 -11 -1 -251 -11 -7c-37,-2 -32,11 -32,45 0,24 0,47 0,71 0,48 -1,98 1,146z"/>
  </g>
 </g>
</svg>
